{"glyphs":{"0":{"ha":833,"x_min":56,"x_max":779,"o":"m 417 -21 q 228 28 310 -21 q 101 176 147 78 q 56 422 56 275 q 103 667 56 569 q 232 815 150 765 q 417 864 314 864 q 601 815 519 864 q 731 667 683 765 q 779 422 779 569 q 733 176 779 275 q 604 28 686 78 q 417 -21 522 -21 m 415 143 q 531 213 490 143 q 572 422 572 283 q 553 576 572 515 q 498 669 533 638 q 415 700 463 700 q 335 669 369 700 q 281 576 300 638 q 263 422 263 514 q 303 213 263 283 q 415 143 343 143 z "},"1":{"ha":533,"x_min":15,"x_max":426,"o":"m 426 214 l 222 214 l 222 649 l 74 596 q 34 631 53 608 q 15 690 15 653 q 104 793 15 764 l 269 854 l 315 854 q 397 824 367 854 q 426 742 426 794 l 426 214 m 222 367 l 426 367 l 426 1 q 389 -7 414 -3 q 335 -11 364 -11 q 249 10 276 -11 q 222 85 222 31 l 222 367 z "},"2":{"ha":721,"x_min":50,"x_max":661,"o":"m 82 731 q 114 803 82 774 q 201 849 146 833 q 331 864 257 864 q 506 831 435 864 q 613 741 576 799 q 650 610 650 683 q 609 466 650 536 q 479 322 568 396 l 286 161 l 640 161 q 654 128 647 149 q 661 82 661 107 q 642 19 661 39 q 590 0 622 0 l 106 0 q 65 47 79 18 q 50 113 50 75 q 67 182 50 153 q 106 229 85 211 l 311 413 q 415 519 388 478 q 443 600 443 561 q 408 672 443 644 q 310 699 374 699 q 208 681 253 699 q 133 642 163 663 q 97 679 113 657 q 82 731 82 701 z "},"3":{"ha":715,"x_min":38,"x_max":658,"o":"m 318 865 q 553 801 469 865 q 636 625 636 738 q 619 541 636 578 q 573 479 601 504 q 514 440 544 454 q 585 401 553 428 q 638 335 617 375 q 658 235 658 294 q 615 97 658 154 q 497 10 572 40 q 321 -21 421 -21 q 167 -3 231 -21 q 71 46 104 15 q 38 114 38 76 q 53 172 38 147 q 93 208 69 196 q 172 167 124 189 q 296 144 219 144 q 411 174 371 144 q 451 251 451 203 q 418 326 451 300 q 310 353 385 353 l 183 353 q 169 385 175 365 q 163 432 163 406 q 169 481 163 460 q 183 514 175 501 l 307 514 q 401 538 372 514 q 431 606 431 561 q 394 675 431 650 q 288 700 357 700 q 184 685 229 700 q 110 650 139 671 q 74 686 89 664 q 60 738 60 708 q 92 807 60 779 q 183 850 125 835 q 318 865 242 865 z "},"4":{"ha":818,"x_min":42,"x_max":794,"o":"m 67 383 l 406 838 q 459 849 429 844 q 513 854 489 854 q 581 844 549 854 q 635 810 614 835 q 656 740 656 786 l 656 342 l 774 342 q 788 307 781 329 q 794 260 794 285 q 774 196 794 217 q 722 175 754 175 l 656 175 l 656 0 q 617 -6 644 -1 q 565 -11 590 -11 q 485 4 514 -11 q 456 75 456 19 l 456 175 l 108 175 q 62 219 82 190 q 42 289 42 247 q 47 338 42 311 q 67 383 53 365 m 465 342 l 467 647 l 463 647 l 257 342 l 465 342 z "},"5":{"ha":731,"x_min":71,"x_max":689,"o":"m 325 844 l 290 719 l 274 518 q 330 533 299 526 q 404 540 361 540 q 560 505 497 540 q 656 408 624 469 q 689 267 689 346 q 653 124 689 189 q 542 19 617 58 q 350 -21 467 -21 q 204 -3 267 -21 q 106 46 142 14 q 71 122 71 78 q 92 181 71 157 q 136 218 113 206 q 219 166 172 189 q 338 143 267 143 q 447 178 411 143 q 482 265 482 214 q 449 348 482 317 q 349 379 415 379 q 279 369 308 379 q 218 343 250 360 q 122 377 157 346 q 86 468 86 408 q 87 481 86 474 q 89 507 88 489 l 107 732 q 140 814 111 783 q 221 844 168 844 l 325 844 m 238 678 l 238 844 l 626 844 q 642 811 635 832 q 649 765 649 790 q 629 699 649 721 q 575 678 610 678 l 238 678 z "},"6":{"ha":772,"x_min":56,"x_max":722,"o":"m 661 751 q 649 701 661 725 q 619 665 638 678 q 544 692 585 682 q 467 701 504 701 q 325 649 378 701 q 260 493 272 596 q 336 535 288 515 q 443 554 385 554 q 646 481 569 554 q 722 272 722 408 q 685 125 722 192 q 576 19 647 58 q 400 -21 506 -21 q 218 26 296 -21 q 98 167 140 74 q 56 399 56 261 q 85 606 56 518 q 167 751 114 694 q 290 836 219 808 q 443 864 360 864 q 559 851 510 864 q 635 814 608 839 q 661 751 661 789 m 401 143 q 485 178 456 143 q 515 272 515 214 q 484 363 515 331 q 400 396 453 396 q 325 379 361 396 q 267 336 289 363 l 268 313 q 306 185 268 228 q 401 143 343 143 z "},"7":{"ha":661,"x_min":29,"x_max":644,"o":"m 103 844 l 590 844 q 628 807 611 831 q 644 749 644 783 q 640 708 644 728 q 626 667 636 688 l 322 -8 q 291 -10 306 -10 q 263 -10 276 -10 q 176 12 210 -10 q 142 82 142 33 q 154 138 142 108 q 186 207 167 167 l 417 678 l 51 678 q 37 713 44 692 q 29 760 29 735 q 50 824 29 804 q 103 844 71 844 z "},"8":{"ha":781,"x_min":53,"x_max":735,"o":"m 392 -24 q 215 7 292 -24 q 95 94 138 38 q 53 231 53 151 q 86 352 53 303 q 172 431 119 401 q 278 471 224 461 l 368 497 q 474 540 436 513 q 511 617 511 568 q 480 686 511 661 q 392 711 449 711 q 308 685 339 711 q 276 617 276 658 q 295 558 276 581 q 347 522 314 535 q 419 504 379 510 l 540 458 q 632 417 588 443 q 706 345 676 390 q 735 229 735 300 q 692 94 735 150 q 572 7 649 38 q 392 -24 496 -24 m 392 133 q 492 161 454 133 q 529 242 529 189 q 474 336 529 300 q 324 378 419 372 l 261 419 q 126 494 176 442 q 75 626 75 546 q 115 755 75 701 q 226 838 154 808 q 392 867 299 867 q 627 802 542 867 q 713 626 713 738 q 665 497 713 544 q 547 426 618 449 l 428 383 q 300 333 342 371 q 258 242 258 294 q 294 162 258 190 q 392 133 331 133 z "},"9":{"ha":774,"x_min":51,"x_max":718,"o":"m 100 93 q 113 144 100 119 q 142 179 125 168 q 218 153 176 164 q 300 143 260 143 q 412 167 364 143 q 487 238 460 190 q 513 351 514 285 q 469 324 496 338 q 410 303 443 311 q 339 296 378 296 q 192 326 257 296 q 89 417 126 356 q 51 571 51 478 q 89 719 51 653 q 199 824 126 785 q 372 864 271 864 q 556 816 479 864 q 676 675 633 768 q 718 444 718 582 q 669 183 718 286 q 532 30 619 81 q 329 -21 444 -21 q 163 8 226 -21 q 100 93 100 38 m 383 451 q 455 469 421 451 q 507 511 489 486 l 507 521 q 472 653 507 607 q 371 700 438 700 q 287 667 318 700 q 256 575 256 633 q 292 483 256 515 q 383 451 329 451 z "},"\r":{"ha":310,"x_min":0,"x_max":0,"o":""}," ":{"ha":278,"x_min":0,"x_max":0,"o":""},"!":{"ha":397,"x_min":78,"x_max":317,"o":"m 304 783 q 302 691 304 749 q 297 564 300 633 q 288 427 294 494 q 275 306 282 360 q 240 292 264 297 q 197 286 215 286 q 140 299 164 286 q 110 342 115 311 q 101 438 106 375 q 92 575 96 500 q 87 722 89 650 q 85 849 85 794 q 200 879 138 879 q 277 856 250 879 q 304 783 304 832 m 78 94 q 110 179 78 146 q 197 213 143 213 q 285 179 253 213 q 317 94 317 146 q 285 11 317 44 q 197 -22 253 -22 q 110 11 143 -22 q 78 94 78 44 z "},"\"":{"ha":521,"x_min":38,"x_max":481,"o":"m 200 539 q 169 529 186 532 q 129 526 151 526 q 76 539 97 526 q 53 582 56 551 l 38 850 q 133 879 75 879 q 203 861 179 879 q 226 803 226 843 q 222 728 226 778 q 213 627 218 679 q 200 539 207 575 m 456 539 q 424 529 442 532 q 383 526 407 526 q 332 539 353 526 q 308 582 311 551 l 292 850 q 335 872 310 864 q 389 879 360 879 q 458 861 435 879 q 481 803 481 843 q 477 728 481 778 q 468 627 474 679 q 456 539 463 575 z "},"#":{"ha":975,"x_min":46,"x_max":932,"o":"m 822 190 l 67 190 q 53 223 60 203 q 46 265 46 243 q 66 326 46 308 q 117 344 86 344 l 872 344 q 886 313 879 332 q 893 269 893 293 q 874 210 893 229 q 822 190 854 190 m 860 510 l 106 510 q 91 542 97 522 q 85 585 85 561 q 104 645 85 626 q 156 664 124 664 l 911 664 q 925 631 918 651 q 932 589 932 611 q 913 528 932 547 q 860 510 893 510 m 464 650 l 322 -1 q 292 -5 307 -4 q 264 -6 278 -6 q 192 13 219 -6 q 165 78 165 31 q 174 142 165 107 q 186 200 182 176 l 328 853 q 360 856 344 856 q 388 856 375 856 q 459 839 432 856 q 486 775 486 822 q 478 713 486 746 q 464 650 469 679 m 789 650 l 647 -1 q 617 -5 632 -4 q 589 -6 603 -6 q 517 13 544 -6 q 490 78 490 31 q 499 142 490 107 q 511 200 507 176 l 653 853 q 685 856 669 856 q 713 856 700 856 q 784 839 757 856 q 811 775 811 822 q 803 713 811 746 q 789 650 794 679 z "},"$":{"ha":769,"x_min":65,"x_max":713,"o":"m 292 81 l 474 81 l 474 -121 q 440 -127 461 -124 q 392 -131 418 -131 q 316 -112 340 -131 q 292 -44 292 -93 l 292 81 m 474 736 l 292 736 l 292 967 q 326 973 304 969 q 372 976 347 976 q 449 958 425 976 q 474 890 474 939 l 474 736 m 356 149 q 462 176 429 149 q 494 240 494 203 q 469 297 494 275 q 393 335 443 318 l 319 358 q 188 414 244 383 q 99 492 131 444 q 67 615 67 540 q 154 799 67 731 q 397 867 242 867 q 538 851 476 867 q 635 806 600 836 q 671 733 671 776 q 656 679 671 703 q 619 640 640 656 q 534 678 588 661 q 418 694 481 694 q 317 672 351 694 q 283 615 283 650 q 306 570 283 588 q 374 539 329 553 l 450 514 q 644 411 576 475 q 713 239 713 347 q 622 49 713 122 q 361 -24 532 -24 q 210 -5 276 -24 q 104 48 143 14 q 65 128 65 82 q 86 189 65 164 q 133 228 107 214 q 227 173 171 197 q 356 149 283 149 z "},"%":{"ha":1100,"x_min":49,"x_max":1051,"o":"m 482 642 q 421 484 482 542 q 265 426 360 426 q 110 484 171 426 q 49 642 49 542 q 110 799 49 742 q 265 856 171 856 q 421 799 360 856 q 482 642 482 742 m 200 642 q 219 574 200 597 q 265 551 238 551 q 313 574 294 551 q 332 642 332 597 q 313 708 332 686 q 265 729 294 729 q 219 708 238 729 q 200 642 200 686 m 269 143 l 757 857 q 833 833 800 850 q 867 788 867 817 q 857 747 867 768 q 832 703 847 725 l 343 -10 q 265 13 296 -6 q 233 60 233 32 q 243 99 233 79 q 269 143 253 119 m 1051 204 q 990 47 1051 104 q 835 -11 929 -11 q 680 47 742 -11 q 618 204 618 104 q 680 361 618 304 q 835 418 742 418 q 990 361 929 418 q 1051 204 1051 304 m 769 204 q 788 137 769 160 q 835 114 807 114 q 883 137 864 114 q 901 204 901 160 q 883 269 901 247 q 835 292 864 292 q 788 269 807 292 q 769 204 769 247 z "},"&":{"ha":922,"x_min":56,"x_max":888,"o":"m 754 157 l 676 86 q 543 3 621 29 q 388 -22 465 -22 q 208 15 282 -22 q 95 115 135 51 q 56 258 56 178 q 83 379 56 328 q 156 465 111 431 q 254 518 201 500 l 349 393 q 299 368 322 386 q 263 326 276 350 q 250 269 250 301 q 288 175 250 213 q 399 138 326 138 q 476 151 428 138 q 567 208 524 164 l 628 301 q 652 406 646 347 q 658 517 658 464 q 702 531 681 526 q 743 535 724 535 q 818 504 799 535 q 838 422 838 474 q 817 290 838 361 q 754 157 797 219 m 786 -19 q 690 28 738 -19 l 292 432 l 256 486 q 190 582 204 542 q 175 658 175 622 q 205 763 175 717 q 290 838 235 810 q 425 865 346 865 q 547 836 510 865 q 583 763 583 807 q 574 722 583 742 q 549 686 565 701 q 509 699 532 694 q 461 704 486 704 q 396 686 421 704 q 371 633 371 668 q 388 584 371 607 q 439 526 404 561 l 888 85 q 856 10 885 40 q 786 -19 826 -19 z "},"'":{"ha":276,"x_min":38,"x_max":238,"o":"m 211 543 q 178 531 199 536 q 133 526 158 526 q 78 541 100 526 q 53 586 56 556 l 38 846 q 81 869 54 860 q 139 879 107 879 q 212 860 186 879 q 238 799 238 840 q 233 726 238 774 q 224 629 229 679 q 211 543 218 579 z "},"(":{"ha":406,"x_min":63,"x_max":400,"o":"m 303 -182 q 222 -152 256 -182 q 164 -78 189 -122 q 91 112 119 -1 q 63 372 63 225 q 92 633 63 519 q 164 821 122 747 q 222 894 189 864 q 303 924 256 924 q 362 906 336 924 q 400 865 388 888 q 295 648 332 765 q 258 372 258 531 q 294 98 258 214 q 400 -122 329 -18 q 362 -163 388 -144 q 303 -182 336 -182 z "},")":{"ha":406,"x_min":7,"x_max":344,"o":"m 104 -182 q 185 -152 151 -182 q 243 -78 218 -122 q 316 112 288 -1 q 344 372 344 225 q 315 633 344 519 q 243 821 285 747 q 185 894 218 864 q 104 924 151 924 q 45 906 71 924 q 7 865 19 888 q 112 648 75 765 q 149 372 149 531 q 113 98 149 214 q 7 -122 78 -18 q 45 -163 19 -144 q 104 -182 71 -182 z "},"*":{"ha":469,"x_min":28,"x_max":436,"o":"m 210 757 l 254 619 l 35 683 q 28 729 28 706 q 46 777 28 760 q 96 794 64 794 q 115 792 104 794 q 138 786 126 789 l 210 757 m 313 694 l 181 500 q 166 498 174 499 q 153 497 158 497 q 90 514 111 497 q 69 558 69 531 q 77 588 69 574 q 96 618 85 603 l 147 682 l 313 694 m 199 650 l 274 747 l 410 560 q 381 515 401 532 q 333 497 361 497 q 288 514 304 497 q 258 554 272 531 l 199 650 m 189 721 l 385 810 q 421 782 406 801 q 436 736 436 763 q 421 695 436 707 q 379 672 406 683 l 285 633 l 189 721 m 294 715 l 172 654 l 171 879 q 198 893 181 885 q 238 901 215 901 q 283 887 265 901 q 301 843 301 872 q 299 809 301 835 q 297 756 297 783 q 294 715 296 728 z "},"+":{"ha":758,"x_min":49,"x_max":710,"o":"m 633 324 l 69 324 q 55 358 61 338 q 49 401 49 378 q 70 466 49 446 q 125 486 92 486 l 689 486 q 703 451 696 474 q 710 406 710 429 q 689 342 710 361 q 633 324 668 324 m 474 651 l 474 76 q 437 69 461 74 q 389 65 413 65 q 315 83 340 65 q 289 154 289 100 l 289 728 q 326 735 301 731 q 374 740 350 740 q 448 722 422 740 q 474 651 474 704 z "},",":{"ha":304,"x_min":-12,"x_max":272,"o":"m 179 -108 q 78 -161 140 -161 q -12 -129 25 -161 q 22 -20 6 -78 q 51 94 38 38 q 72 196 64 150 q 120 213 92 206 q 178 221 149 221 q 244 203 217 221 q 272 142 272 186 q 258 58 272 106 q 222 -35 243 10 q 179 -108 200 -81 z "},"-":{"ha":504,"x_min":50,"x_max":454,"o":"m 378 274 l 72 274 q 57 308 64 288 q 50 354 50 329 q 71 419 50 399 q 126 439 92 439 l 432 439 q 447 404 439 426 q 454 358 454 382 q 433 294 454 314 q 378 274 413 274 z "},".":{"ha":297,"x_min":29,"x_max":268,"o":"m 29 99 q 62 185 29 150 q 149 221 94 221 q 236 185 204 221 q 268 99 268 150 q 236 13 268 49 q 149 -22 204 -22 q 62 13 94 -22 q 29 99 29 49 z "},"/":{"ha":464,"x_min":11,"x_max":453,"o":"m 425 767 l 178 -147 q 146 -149 161 -149 q 115 -150 131 -150 q 39 -128 67 -150 q 11 -58 11 -107 q 21 7 11 -26 q 38 65 31 40 l 285 979 q 319 983 303 982 q 349 983 336 983 q 424 963 396 983 q 453 896 453 942 q 443 831 453 863 q 425 767 433 799 z "},":":{"ha":335,"x_min":47,"x_max":293,"o":"m 54 547 q 87 634 54 599 q 174 669 119 669 q 260 634 228 669 q 293 547 293 599 q 260 462 293 497 q 174 426 228 426 q 87 462 119 426 q 54 547 54 497 m 47 99 q 80 185 47 150 q 167 221 113 221 q 255 185 222 221 q 288 99 288 150 q 255 13 288 49 q 167 -22 222 -22 q 80 13 113 -22 q 47 99 47 49 z "},";":{"ha":347,"x_min":8,"x_max":296,"o":"m 56 547 q 88 634 56 599 q 175 669 121 669 q 263 634 231 669 q 296 547 296 599 q 263 462 296 497 q 175 426 231 426 q 88 462 121 426 q 56 547 56 497 m 200 -108 q 99 -161 161 -161 q 8 -129 46 -161 q 42 -20 26 -78 q 72 94 58 38 q 93 196 85 150 q 141 213 113 206 q 199 221 169 221 q 265 203 238 221 q 293 142 293 186 q 278 58 293 106 q 242 -35 264 10 q 200 -108 221 -81 z "},"<":{"ha":675,"x_min":50,"x_max":632,"o":"m 244 392 l 629 210 q 632 192 632 201 q 632 174 632 182 q 612 100 632 132 q 539 68 592 68 q 491 78 515 68 q 432 107 467 89 l 81 289 q 50 394 50 329 q 65 470 50 443 q 106 513 79 497 l 532 728 q 610 685 589 713 q 632 628 632 658 q 610 561 632 585 q 547 517 588 538 l 244 392 z "},"=":{"ha":710,"x_min":51,"x_max":658,"o":"m 583 474 l 71 474 q 57 506 63 486 q 51 550 51 526 q 72 615 51 594 q 126 635 93 635 l 639 635 q 652 601 646 622 q 658 554 658 579 q 638 492 658 511 q 583 474 617 474 m 583 185 l 71 185 q 57 219 63 199 q 51 263 51 239 q 72 327 51 307 q 126 347 93 347 l 639 347 q 652 313 646 335 q 658 267 658 290 q 638 203 658 222 q 583 185 617 185 z "},">":{"ha":671,"x_min":43,"x_max":621,"o":"m 426 406 l 46 582 q 44 600 44 590 q 43 619 43 610 q 64 692 43 660 q 135 724 85 724 q 187 713 160 724 q 243 686 214 701 l 590 507 q 621 401 621 467 q 607 326 621 353 q 567 283 593 299 l 147 68 q 69 110 90 83 q 47 168 47 138 q 69 234 47 210 q 132 279 92 258 l 426 406 z "},"?":{"ha":678,"x_min":35,"x_max":628,"o":"m 321 318 l 182 289 q 144 331 161 303 q 126 396 126 358 q 146 451 126 432 q 206 481 165 471 l 311 507 q 386 545 361 521 q 411 611 411 569 q 380 676 411 647 q 276 706 349 706 q 169 691 221 706 q 85 654 117 676 q 50 694 65 671 q 35 749 35 718 q 110 847 35 814 q 303 879 186 879 q 480 845 407 879 q 590 751 553 811 q 628 611 628 690 q 551 421 628 492 q 321 318 475 350 m 143 96 q 176 181 143 147 q 263 214 208 214 q 351 181 318 214 q 383 96 383 147 q 351 12 383 44 q 263 -21 318 -21 q 176 12 208 -21 q 143 96 143 44 z "},"@":{"ha":1461,"x_min":71,"x_max":1397,"o":"m 632 276 q 664 185 632 213 q 742 157 696 157 q 819 180 788 157 q 876 243 850 203 l 922 78 q 835 22 889 44 q 707 0 781 0 q 506 72 583 0 q 428 275 428 144 q 471 451 428 376 q 591 568 514 526 q 771 610 668 610 q 897 592 843 610 q 988 551 950 575 q 1042 464 1042 515 q 1042 449 1042 457 q 1040 433 1042 440 l 1000 76 l 813 74 l 847 431 q 815 444 833 439 q 768 449 796 449 q 672 404 711 449 q 632 276 632 360 m 878 44 q 895 103 879 75 q 940 148 911 131 q 1004 165 968 165 q 1027 156 1013 161 q 1057 150 1042 150 q 1165 215 1126 150 q 1203 382 1203 281 q 1147 580 1203 494 q 993 713 1092 665 q 765 761 894 761 q 503 700 617 761 q 328 531 390 639 q 265 283 265 422 q 322 52 265 150 q 476 -99 378 -46 q 699 -151 574 -151 q 799 -146 758 -151 q 868 -135 839 -140 q 885 -168 878 -149 q 892 -206 892 -187 q 874 -263 892 -239 q 810 -300 856 -287 q 685 -312 765 -312 q 506 -290 594 -312 q 338 -222 417 -268 q 199 -104 260 -175 q 105 63 139 -33 q 71 283 71 160 q 122 547 71 431 q 268 747 174 664 q 488 873 363 829 q 764 917 614 917 q 1021 879 904 917 q 1222 771 1138 842 q 1351 601 1306 700 q 1397 381 1397 503 q 1308 95 1397 197 q 1057 -7 1219 -7 q 965 6 1014 -7 q 878 44 917 18 z "},"A":{"ha":858,"x_min":35,"x_max":831,"o":"m 438 668 l 429 668 q 397 569 415 624 q 358 456 378 515 q 319 338 338 396 l 294 214 q 278 158 286 188 q 263 101 271 129 q 247 47 254 72 q 235 0 240 22 q 199 -9 218 -4 q 153 -14 179 -14 q 65 7 96 -14 q 35 67 35 28 q 40 103 35 85 q 51 144 44 121 q 87 259 64 189 q 138 410 110 329 q 193 570 165 490 q 245 717 221 650 q 285 821 269 783 q 347 844 306 833 q 431 854 389 854 q 537 838 490 854 q 596 782 583 821 q 654 612 624 708 q 717 410 685 515 q 778 205 749 304 q 831 26 808 106 q 788 -1 817 10 q 719 -12 758 -12 q 638 8 661 -12 q 603 69 615 28 l 558 226 l 535 343 q 499 465 517 406 q 465 576 481 524 q 438 668 450 628 m 203 188 l 285 351 l 610 351 l 638 188 l 203 188 z "},"B":{"ha":853,"x_min":99,"x_max":797,"o":"m 540 506 l 540 356 l 231 356 l 231 506 l 540 506 m 436 356 l 453 471 q 644 443 568 471 q 758 365 719 415 q 797 244 797 315 q 697 44 797 110 q 413 -21 597 -21 q 337 -18 379 -21 q 251 -8 294 -15 q 171 11 207 -1 q 99 104 99 38 l 99 768 q 114 810 99 796 q 156 835 129 825 q 269 857 203 850 q 407 864 336 864 q 672 805 578 864 q 767 624 767 746 q 728 510 767 557 q 615 438 689 463 q 435 414 540 414 l 425 506 q 525 532 493 506 q 557 607 557 558 q 519 678 557 653 q 408 703 482 703 q 352 701 382 703 q 304 696 322 700 l 304 154 q 361 145 326 147 q 426 143 396 143 q 540 169 497 143 q 582 253 582 196 q 545 331 582 306 q 436 356 508 356 z "},"C":{"ha":799,"x_min":56,"x_max":753,"o":"m 749 728 q 732 673 749 697 q 694 636 715 649 q 616 678 660 660 q 513 696 572 696 q 384 664 438 696 q 301 570 331 632 q 272 421 272 508 q 340 217 272 286 q 522 147 407 147 q 626 164 583 147 q 706 203 669 181 q 740 163 726 188 q 753 107 753 139 q 738 56 753 79 q 689 17 724 33 q 615 -10 663 3 q 496 -24 567 -24 q 274 24 374 -24 q 115 171 174 72 q 56 421 56 269 q 113 665 56 565 q 269 815 171 764 q 483 867 367 867 q 625 848 565 867 q 717 798 685 829 q 749 728 749 767 z "},"D":{"ha":921,"x_min":99,"x_max":865,"o":"m 649 422 q 583 218 649 286 q 406 150 517 150 q 355 152 382 150 q 308 158 328 154 l 308 686 q 354 692 331 690 q 403 693 378 693 q 531 663 475 693 q 617 574 586 633 q 649 422 649 514 m 865 425 q 806 671 865 574 q 640 816 746 768 q 390 864 533 864 q 274 858 338 864 q 156 835 211 853 q 114 810 129 825 q 99 768 99 796 l 99 103 q 171 11 99 38 q 292 -15 225 -8 q 404 -21 358 -21 q 647 28 543 -21 q 808 176 750 78 q 865 425 865 275 z "},"E":{"ha":756,"x_min":99,"x_max":697,"o":"m 99 588 l 304 588 l 304 10 q 266 1 292 6 q 211 -3 240 -3 q 129 28 160 -3 q 99 110 99 58 l 99 588 m 304 254 l 99 254 l 99 731 q 129 813 99 782 q 211 843 160 843 q 266 839 240 843 q 304 831 292 835 l 304 254 m 211 347 l 211 513 l 631 513 q 645 478 639 499 q 651 432 651 457 q 632 367 651 388 q 579 347 613 347 l 211 347 m 211 -3 l 211 164 l 676 164 q 691 130 685 151 q 697 82 697 108 q 678 18 697 39 q 625 -3 658 -3 l 211 -3 m 211 676 l 211 843 l 669 843 q 685 808 678 829 q 692 763 692 788 q 672 697 692 718 q 618 676 653 676 l 211 676 z "},"F":{"ha":733,"x_min":99,"x_max":694,"o":"m 307 346 l 99 346 l 99 731 q 129 813 99 782 q 211 843 160 843 q 267 839 240 843 q 307 831 294 835 l 307 346 m 208 315 l 208 483 l 625 483 q 641 449 633 469 q 649 401 649 428 q 628 337 649 358 q 574 315 608 315 l 208 315 m 211 672 l 211 843 l 674 843 q 688 808 682 829 q 694 761 694 786 q 675 694 694 717 q 621 672 656 672 l 211 672 m 99 429 l 310 429 l 310 1 q 269 -6 296 -1 q 213 -10 242 -10 q 124 13 150 -10 q 99 89 99 35 l 99 429 z "},"G":{"ha":914,"x_min":56,"x_max":838,"o":"m 838 415 l 838 125 q 822 67 838 88 q 775 29 807 47 q 667 -8 738 8 q 525 -24 596 -24 q 285 23 392 -24 q 117 167 179 69 q 56 419 56 265 q 118 666 56 567 q 287 816 181 765 q 522 867 393 867 q 671 849 607 867 q 769 799 735 831 q 803 726 803 767 q 787 672 803 696 q 749 635 771 647 q 661 676 714 656 q 538 696 608 696 q 399 663 460 696 q 306 568 339 629 q 272 421 272 507 q 305 268 272 329 q 396 177 338 207 q 528 147 454 147 q 592 153 564 147 q 636 168 619 160 l 636 332 l 472 332 q 458 366 464 344 q 451 413 451 388 q 471 476 451 456 q 524 496 490 496 l 757 496 q 816 474 794 496 q 838 415 838 453 z "},"H":{"ha":928,"x_min":99,"x_max":829,"o":"m 99 586 l 310 586 l 310 1 q 269 -6 296 -1 q 213 -10 242 -10 q 124 13 150 -10 q 99 89 99 35 l 99 586 m 310 322 l 99 322 l 99 844 q 141 851 113 847 q 196 856 169 856 q 283 835 256 856 q 310 757 310 814 l 310 322 m 618 586 l 829 586 l 829 1 q 788 -6 815 -1 q 731 -10 760 -10 q 644 13 669 -10 q 618 89 618 35 l 618 586 m 829 322 l 618 322 l 618 844 q 660 851 632 847 q 715 856 689 856 q 802 834 775 856 q 829 754 829 813 l 829 322 m 738 339 l 194 339 l 194 507 l 738 507 l 738 339 z "},"I":{"ha":408,"x_min":99,"x_max":310,"o":"m 99 586 l 310 586 l 310 1 q 269 -6 296 -1 q 213 -10 242 -10 q 124 13 150 -10 q 99 89 99 35 l 99 586 m 310 322 l 99 322 l 99 844 q 142 851 114 847 q 197 856 169 856 q 283 835 257 856 q 310 757 310 814 l 310 322 z "},"J":{"ha":563,"x_min":31,"x_max":468,"o":"m 257 403 l 468 403 l 468 239 q 436 99 468 157 q 345 10 404 40 q 201 -19 286 -19 q 79 6 128 -19 q 31 90 31 31 q 39 135 31 117 q 57 165 47 154 q 103 155 82 158 q 149 151 125 151 q 231 179 206 151 q 257 264 257 207 l 257 403 m 468 314 l 257 314 l 257 844 q 299 851 271 847 q 354 856 328 856 q 441 835 414 856 q 468 757 468 814 l 468 314 z "},"K":{"ha":838,"x_min":99,"x_max":806,"o":"m 214 447 l 449 476 q 657 254 565 351 q 806 99 749 157 q 772 16 806 46 q 692 -14 738 -14 q 611 11 643 -14 q 549 69 579 36 l 214 447 m 454 374 l 188 363 l 622 850 q 737 819 701 850 q 772 746 772 789 q 756 687 772 715 q 706 625 740 658 l 454 374 m 99 588 l 310 588 l 310 1 q 269 -6 296 -3 q 213 -10 242 -10 q 124 13 150 -10 q 99 89 99 35 l 99 588 m 310 324 l 99 324 l 99 844 q 141 851 113 847 q 196 856 169 856 q 283 835 256 856 q 310 757 310 814 l 310 324 z "},"L":{"ha":708,"x_min":99,"x_max":671,"o":"m 99 583 l 310 583 l 310 10 l 211 -3 q 129 28 160 -3 q 99 110 99 58 l 99 583 m 211 -3 l 211 168 l 647 168 q 664 133 657 156 q 671 86 671 111 q 651 19 671 42 q 597 -3 632 -3 l 211 -3 m 310 322 l 99 322 l 99 844 q 141 851 113 847 q 196 856 169 856 q 283 835 256 856 q 310 757 310 814 l 310 322 z "},"M":{"ha":1101,"x_min":82,"x_max":1028,"o":"m 656 210 q 614 190 639 199 q 556 181 589 181 q 484 192 513 181 q 446 229 456 203 q 366 450 399 361 q 315 603 333 539 l 308 603 q 301 442 304 515 q 297 300 299 368 q 292 160 294 232 q 285 4 289 89 q 243 -5 268 0 q 193 -10 218 -10 q 111 8 140 -10 q 82 69 82 25 q 85 160 82 100 q 92 299 88 221 q 103 465 97 378 q 115 638 108 553 q 125 796 121 724 q 169 830 136 813 q 261 847 203 847 q 361 827 324 847 q 415 763 399 807 q 460 645 436 711 q 507 512 483 579 q 550 389 531 444 l 557 389 q 638 629 597 513 q 708 825 678 746 q 756 841 726 835 q 819 847 786 847 q 916 830 879 847 q 960 778 953 813 q 972 694 965 751 q 985 563 978 638 q 999 408 992 489 q 1012 250 1006 326 q 1022 112 1018 174 q 1028 14 1026 50 q 984 -4 1007 1 q 926 -10 961 -10 q 851 6 883 -10 q 817 68 819 22 q 807 276 811 178 q 800 457 803 375 q 794 596 797 539 l 788 596 q 737 445 769 536 q 656 210 704 354 z "},"N":{"ha":936,"x_min":99,"x_max":838,"o":"m 99 604 l 290 606 q 299 489 296 547 q 301 376 301 431 q 301 271 301 322 l 301 1 q 263 -6 290 -1 q 208 -10 236 -10 q 124 11 149 -10 q 99 86 99 32 l 99 604 m 838 243 l 646 240 q 635 435 636 343 q 635 610 635 526 l 635 844 q 675 851 649 847 q 729 856 701 856 q 813 835 789 856 q 838 760 838 814 l 838 243 m 838 310 l 838 442 l 838 26 q 788 0 821 10 q 711 -10 756 -10 q 624 5 664 -10 q 557 72 583 19 l 388 393 q 357 456 372 425 q 328 517 342 486 q 300 579 314 547 l 99 535 l 99 806 q 151 842 117 829 q 226 854 186 854 q 315 839 274 854 q 381 772 356 824 l 551 450 q 583 390 568 421 q 611 327 597 358 q 638 264 625 296 l 838 310 z "},"O":{"ha":972,"x_min":56,"x_max":917,"o":"m 917 422 q 860 178 917 278 q 706 28 803 79 q 485 -24 608 -24 q 265 28 363 -24 q 111 178 167 79 q 56 422 56 278 q 113 666 56 567 q 267 816 169 765 q 485 867 364 867 q 704 816 607 867 q 859 666 801 765 q 917 422 917 567 m 700 422 q 642 626 700 557 q 485 696 583 696 q 331 626 389 696 q 272 422 272 557 q 331 217 272 286 q 486 147 389 147 q 642 217 583 147 q 700 422 700 286 z "},"P":{"ha":803,"x_min":99,"x_max":760,"o":"m 99 271 l 99 768 q 114 810 99 796 q 156 835 129 825 q 264 857 200 850 q 379 864 328 864 q 663 784 567 864 q 760 567 760 704 q 717 411 760 478 q 596 308 675 344 q 406 271 517 271 l 99 271 m 213 -10 q 124 13 150 -10 q 99 89 99 35 l 99 364 l 310 364 l 310 1 q 269 -6 296 -1 q 213 -10 242 -10 m 308 438 l 392 438 q 504 471 463 438 q 546 567 546 504 q 507 663 546 631 q 393 694 468 694 q 347 693 367 694 q 308 689 326 692 l 308 438 z "},"Q":{"ha":974,"x_min":56,"x_max":964,"o":"m 463 7 l 679 49 q 779 1 731 21 q 874 -35 828 -19 q 963 -64 919 -50 q 964 -80 964 -74 q 964 -92 964 -86 q 929 -188 964 -157 q 838 -219 894 -219 q 709 -183 778 -219 q 564 -82 640 -147 l 463 7 m 917 424 q 860 180 917 279 q 706 30 803 81 q 485 -21 608 -21 q 265 30 363 -21 q 111 180 167 81 q 56 424 56 279 q 113 667 56 568 q 267 816 169 765 q 485 867 364 867 q 704 816 607 867 q 859 667 801 765 q 917 424 917 568 m 700 424 q 642 626 700 557 q 485 696 583 696 q 331 627 389 696 q 272 424 272 558 q 331 219 272 288 q 486 150 389 150 q 642 219 583 150 q 700 424 700 288 z "},"R":{"ha":839,"x_min":99,"x_max":796,"o":"m 307 446 l 399 446 q 511 478 468 446 q 554 571 554 510 q 513 663 554 632 q 389 694 472 694 q 346 692 365 694 q 307 688 326 690 l 307 446 m 418 285 l 99 285 l 99 768 q 114 810 99 796 q 156 835 129 825 q 262 857 200 850 q 390 864 324 864 q 672 785 578 864 q 767 572 767 707 q 722 424 767 489 q 598 322 676 358 q 418 285 519 285 m 381 333 l 567 378 q 633 291 599 335 q 699 207 668 247 q 756 133 731 167 q 796 75 781 99 q 751 10 783 33 q 679 -12 719 -12 q 602 10 629 -12 q 550 71 575 33 l 381 333 m 99 363 l 310 363 l 310 1 q 269 -6 296 -1 q 213 -10 242 -10 q 124 13 150 -10 q 99 89 99 35 l 99 363 z "},"S":{"ha":756,"x_min":61,"x_max":708,"o":"m 351 149 q 458 176 425 149 q 490 240 490 203 q 465 297 490 275 q 389 335 439 318 l 315 358 q 183 414 240 383 q 94 492 126 444 q 63 615 63 540 q 150 799 63 731 q 393 867 238 867 q 534 851 472 867 q 631 806 596 836 q 667 733 667 776 q 651 679 667 703 q 615 640 636 656 q 530 678 583 661 q 414 694 476 694 q 313 672 347 694 q 279 615 279 650 q 302 570 279 588 q 369 539 325 553 l 446 514 q 640 411 572 475 q 708 239 708 347 q 618 49 708 122 q 357 -24 528 -24 q 206 -5 272 -24 q 100 48 139 14 q 61 128 61 82 q 82 189 61 164 q 129 228 103 214 q 223 173 167 197 q 351 149 279 149 z "},"T":{"ha":761,"x_min":28,"x_max":732,"o":"m 283 672 l 282 843 l 710 843 q 725 808 718 829 q 732 761 732 786 q 712 694 732 717 q 657 672 692 672 l 283 672 m 476 843 l 478 672 l 50 672 q 35 708 42 686 q 28 756 28 729 q 48 822 28 800 q 101 843 68 843 l 476 843 m 272 710 l 482 710 l 482 1 q 442 -6 469 -1 q 385 -10 414 -10 q 298 13 324 -10 q 272 89 272 35 l 272 710 z "},"U":{"ha":917,"x_min":96,"x_max":822,"o":"m 458 -24 q 263 17 344 -24 q 139 132 182 58 q 96 304 96 206 l 96 396 l 306 396 l 306 310 q 349 190 306 233 q 458 147 392 147 q 568 190 525 147 q 611 310 611 233 l 611 396 l 822 396 l 822 304 q 778 132 822 206 q 653 17 735 58 q 458 -24 572 -24 m 306 354 l 96 354 l 96 844 q 138 851 110 847 q 193 856 165 856 q 279 835 253 856 q 306 757 306 814 l 306 354 m 822 351 l 611 351 l 611 844 q 653 851 625 847 q 708 856 682 856 q 795 835 768 856 q 822 757 822 814 l 822 351 z "},"V":{"ha":863,"x_min":29,"x_max":826,"o":"m 567 24 q 515 -1 550 10 q 436 -12 479 -12 q 351 3 388 -12 q 300 44 314 18 q 253 151 281 85 q 194 299 225 217 q 131 470 163 382 q 74 644 100 558 q 29 801 47 731 q 77 833 46 819 q 146 847 108 847 q 218 828 190 847 q 260 760 246 808 q 346 476 303 613 q 438 196 389 340 l 444 196 q 503 391 474 286 q 564 606 533 496 q 619 824 594 717 q 665 841 640 835 q 719 847 690 847 q 796 827 765 847 q 826 761 826 807 q 813 676 826 735 q 774 543 799 618 q 721 388 750 468 q 663 233 692 307 q 608 104 633 160 q 567 24 582 49 z "},"W":{"ha":1178,"x_min":40,"x_max":1131,"o":"m 485 636 q 527 651 499 643 q 585 658 556 658 q 670 643 636 658 q 711 599 704 628 q 756 447 736 515 q 793 315 775 379 q 829 182 811 251 l 836 182 q 871 403 856 299 q 900 612 886 508 q 928 825 914 715 q 1021 849 972 849 q 1099 829 1067 849 q 1131 764 1131 810 q 1124 680 1131 735 q 1106 553 1117 625 q 1080 406 1094 482 q 1049 257 1065 331 q 1016 124 1033 183 q 985 29 999 65 q 925 2 965 14 q 842 -10 885 -10 q 747 6 786 -10 q 697 50 707 22 q 667 144 685 90 q 631 264 650 199 q 594 397 613 329 q 560 261 578 331 q 525 132 542 192 q 494 29 508 72 q 440 2 476 14 q 360 -10 404 -10 q 263 7 307 -10 q 206 50 219 24 q 174 147 192 82 q 135 295 156 211 q 97 471 115 379 q 63 649 78 563 q 40 806 47 736 q 87 835 57 822 q 153 849 117 849 q 227 828 199 849 q 264 761 256 808 q 301 542 286 633 q 326 385 315 450 q 344 271 336 319 q 363 182 353 222 l 369 182 q 396 289 383 239 q 422 389 408 339 q 451 499 436 439 q 485 636 467 558 z "},"X":{"ha":832,"x_min":42,"x_max":793,"o":"m 350 375 l 306 383 l 42 754 q 85 820 53 789 q 171 851 118 851 q 233 833 206 851 q 288 772 261 814 l 467 503 l 521 468 l 793 86 q 752 15 785 42 q 667 -11 719 -11 q 606 7 632 -11 q 553 68 581 25 l 350 375 m 508 375 l 447 338 l 214 -8 q 196 -10 206 -10 q 176 -11 186 -11 q 78 17 111 -11 q 46 85 46 44 q 62 146 46 119 q 104 207 78 172 l 306 467 l 397 539 l 603 839 q 629 846 613 843 q 663 849 646 849 q 747 822 717 849 q 778 757 778 796 q 760 698 778 725 q 715 635 743 671 q 613 505 664 569 q 508 375 563 440 z "},"Y":{"ha":789,"x_min":13,"x_max":767,"o":"m 501 272 l 314 272 q 235 392 278 325 q 150 529 192 458 q 72 667 108 600 q 13 786 36 733 q 55 828 28 810 q 122 847 82 847 q 199 827 169 847 q 256 754 228 807 q 275 718 260 747 q 310 651 290 689 q 349 575 329 614 q 384 508 369 536 q 403 474 399 481 l 410 474 q 467 592 442 538 q 517 703 493 646 q 571 825 542 760 q 617 842 592 836 q 667 847 643 847 q 738 825 710 847 q 767 758 767 803 q 754 710 767 743 q 712 622 742 678 q 631 480 682 565 q 501 272 579 394 m 304 347 l 510 347 l 510 1 q 470 -6 497 -1 q 415 -10 443 -10 q 328 12 353 -10 q 304 88 304 33 l 304 347 z "},"Z":{"ha":776,"x_min":53,"x_max":729,"o":"m 106 231 l 604 846 l 667 846 q 719 732 719 803 q 706 672 719 701 q 669 615 692 643 l 175 0 l 100 0 q 66 45 79 17 q 53 110 53 74 q 68 172 53 142 q 106 231 83 203 m 128 0 l 225 174 l 706 174 q 722 137 714 158 q 729 89 729 115 q 709 22 729 43 q 654 0 689 0 l 128 0 m 626 846 l 550 672 l 88 672 q 72 708 79 688 q 65 756 65 729 q 85 824 65 801 q 142 846 106 846 l 626 846 z "},"[":{"ha":408,"x_min":72,"x_max":400,"o":"m 72 -56 l 72 783 l 263 783 l 263 -56 l 72 -56 m 72 -21 l 381 -21 q 394 -53 389 -33 q 400 -96 400 -74 q 381 -156 400 -136 q 331 -175 363 -175 l 165 -175 q 94 -147 117 -175 q 72 -81 72 -119 l 72 -21 m 165 911 l 381 911 q 394 879 389 899 q 400 838 400 860 q 381 778 400 797 q 331 758 363 758 l 72 758 l 72 818 q 94 884 72 857 q 165 911 117 911 z "},"\\":{"ha":493,"x_min":22,"x_max":465,"o":"m 218 864 l 465 -36 q 417 -68 447 -54 q 360 -82 388 -82 q 303 -67 326 -82 q 269 -17 279 -53 l 22 885 q 69 916 39 903 q 128 929 100 929 q 184 915 160 929 q 218 864 208 901 z "},"]":{"ha":424,"x_min":8,"x_max":338,"o":"m 338 799 l 338 -46 l 147 -46 l 147 799 l 338 799 m 338 758 l 29 758 q 15 791 21 771 q 8 832 8 811 q 28 893 8 875 q 79 911 47 911 l 243 911 q 315 884 292 911 q 338 818 338 857 l 338 758 m 243 -175 l 29 -175 q 15 -142 21 -162 q 8 -100 8 -122 q 28 -40 8 -58 q 79 -21 47 -21 l 338 -21 l 338 -81 q 315 -147 338 -119 q 243 -175 292 -175 z "},"^":{"ha":669,"x_min":56,"x_max":614,"o":"m 226 893 q 270 913 242 906 q 333 921 299 921 q 443 876 418 921 q 484 803 460 851 q 533 695 508 754 q 580 578 558 636 q 614 476 601 521 q 574 449 600 461 q 519 436 549 436 q 460 452 482 436 q 422 511 439 468 l 331 749 l 324 749 q 301 687 314 722 q 275 612 289 651 q 249 532 261 572 q 228 456 236 492 q 186 440 210 446 q 142 435 163 435 q 81 451 106 435 q 56 507 56 468 q 68 563 56 526 q 100 647 81 600 q 143 740 119 693 q 189 828 167 788 q 226 893 211 869 z "},"_":{"ha":692,"x_min":0,"x_max":692,"o":"m 617 -239 l 19 -239 q 6 -205 13 -225 q 0 -161 0 -185 q 21 -97 0 -117 q 76 -76 42 -76 l 672 -76 q 685 -111 679 -89 q 692 -157 692 -133 q 671 -220 692 -201 q 617 -239 650 -239 z "},"`":{"ha":419,"x_min":36,"x_max":339,"o":"m 174 765 l 39 893 q 37 908 38 899 q 36 922 36 917 q 62 990 36 965 q 126 1015 88 1015 q 172 1006 150 1015 q 215 971 194 996 l 339 817 q 309 753 335 774 q 254 732 283 732 q 210 740 228 732 q 174 765 193 749 z "},"a":{"ha":740,"x_min":44,"x_max":661,"o":"m 354 -21 q 128 34 213 -21 q 44 199 44 89 q 103 344 44 293 q 276 406 161 394 l 463 425 l 463 442 q 425 511 463 490 q 321 532 388 532 q 217 519 268 532 q 125 489 165 507 q 97 524 108 501 q 86 571 86 546 q 149 656 86 629 q 242 679 189 671 q 346 688 296 688 q 575 627 489 688 q 661 440 661 567 l 661 125 q 643 69 661 90 q 599 32 625 47 q 495 -7 557 7 q 354 -21 433 -21 m 354 131 q 417 138 386 131 q 463 153 449 144 l 463 286 l 344 276 q 270 256 297 272 q 243 206 243 239 q 269 151 243 171 q 354 131 296 131 z "},"b":{"ha":806,"x_min":83,"x_max":756,"o":"m 433 688 q 597 648 524 688 q 713 530 671 608 q 756 336 756 451 q 710 140 756 219 q 584 20 665 61 q 393 -21 503 -21 q 245 0 307 -21 q 142 49 183 21 q 98 94 113 69 q 83 153 83 119 l 83 593 l 288 593 l 288 168 q 330 150 304 158 q 390 142 356 142 q 503 190 461 142 q 546 336 546 239 q 505 480 546 435 q 396 525 464 525 q 315 508 350 525 q 257 471 281 492 l 251 636 q 329 672 283 656 q 433 688 375 688 m 288 544 l 83 544 l 83 904 q 121 913 96 908 q 175 917 146 917 q 261 897 235 917 q 288 821 288 876 l 288 544 z "},"c":{"ha":675,"x_min":50,"x_max":626,"o":"m 440 524 q 310 474 364 524 q 257 331 257 425 q 308 190 257 238 q 439 143 360 143 q 519 155 485 143 q 578 179 553 167 q 614 143 601 163 q 626 94 626 124 q 571 12 626 43 q 417 -19 515 -19 q 224 19 307 -19 q 95 138 140 58 q 50 331 50 217 q 99 530 50 451 q 231 648 149 608 q 411 688 314 688 q 562 653 507 688 q 617 567 617 618 q 605 522 617 542 q 578 488 593 501 q 517 513 551 501 q 440 524 483 524 z "},"d":{"ha":800,"x_min":50,"x_max":718,"o":"m 514 164 l 514 583 l 718 583 l 718 138 q 704 83 718 106 q 660 42 690 60 q 562 -2 622 17 q 422 -21 501 -21 q 224 18 307 -21 q 95 135 140 57 q 50 331 50 214 q 96 531 50 453 q 221 649 142 610 q 396 688 300 688 q 485 676 446 688 q 549 650 525 665 l 549 481 q 497 511 529 497 q 424 525 465 525 q 336 505 374 525 q 278 442 299 485 q 257 331 257 399 q 301 188 257 233 q 421 142 344 142 q 476 149 453 142 q 514 164 499 156 m 718 543 l 513 543 l 513 904 q 551 913 526 908 q 604 917 576 917 q 691 897 664 917 q 718 821 718 876 l 718 543 z "},"e":{"ha":753,"x_min":50,"x_max":707,"o":"m 176 236 l 168 375 l 514 429 q 479 502 510 469 q 389 535 449 535 q 283 492 325 535 q 240 371 242 450 l 246 276 q 313 167 260 200 q 438 135 365 135 q 547 151 496 135 q 631 186 599 167 q 664 151 650 174 q 678 104 678 129 q 645 35 678 63 q 555 -7 613 7 q 424 -21 497 -21 q 232 19 317 -21 q 99 140 147 60 q 50 342 50 221 q 78 496 50 431 q 153 603 106 561 q 262 667 201 646 q 388 688 322 688 q 555 649 483 688 q 667 546 626 611 q 707 394 707 481 q 683 330 707 351 q 618 301 660 308 l 176 236 z "},"f":{"ha":586,"x_min":83,"x_max":569,"o":"m 247 460 l 247 618 l 518 618 q 532 586 525 607 q 539 540 539 565 q 520 479 539 499 q 468 460 501 460 l 247 460 m 278 674 l 278 485 l 83 485 l 83 681 q 122 829 83 772 q 228 913 161 886 q 376 940 294 940 q 522 915 474 940 q 569 832 569 889 q 559 788 569 808 q 535 757 549 768 q 478 772 510 765 q 411 778 447 778 q 311 754 344 778 q 278 674 278 731 m 83 526 l 288 526 l 288 1 q 250 -6 275 -1 q 196 -10 225 -10 q 110 11 138 -10 q 83 86 83 32 l 83 526 z "},"g":{"ha":775,"x_min":49,"x_max":694,"o":"m 357 26 q 203 58 274 26 q 91 162 133 89 q 49 353 49 235 q 92 537 49 463 q 215 649 136 611 q 399 688 294 688 q 538 667 474 688 q 638 624 601 647 q 679 584 664 607 q 694 526 694 561 l 694 92 l 497 92 l 497 503 q 459 519 481 513 q 406 525 438 525 q 295 483 338 525 q 253 353 253 442 q 293 218 253 256 q 393 181 333 181 q 469 197 439 181 q 522 233 500 214 l 529 69 q 458 39 500 51 q 357 26 415 26 m 500 7 l 500 136 l 694 136 l 694 0 q 649 -157 694 -96 q 527 -247 604 -218 q 354 -276 450 -276 q 226 -264 282 -276 q 140 -232 171 -251 q 93 -146 93 -201 q 105 -94 93 -117 q 133 -60 117 -71 q 222 -98 171 -82 q 331 -114 274 -114 q 454 -85 408 -114 q 500 7 500 -57 z "},"h":{"ha":801,"x_min":83,"x_max":719,"o":"m 719 283 l 515 283 l 515 407 q 482 498 515 471 q 399 525 449 525 q 319 508 354 525 q 257 471 283 492 l 253 636 q 332 672 285 656 q 436 688 379 688 q 643 620 567 688 q 719 418 719 553 l 719 283 m 83 367 l 288 367 l 288 1 q 250 -6 275 -1 q 196 -10 225 -10 q 110 11 138 -10 q 83 86 83 32 l 83 367 m 515 367 l 719 367 l 719 1 q 682 -6 707 -1 q 628 -10 657 -10 q 542 11 569 -10 q 515 86 515 32 l 515 367 m 288 261 l 83 261 l 83 904 q 121 913 96 908 q 175 917 146 917 q 261 897 235 917 q 288 821 288 876 l 288 261 z "},"i":{"ha":378,"x_min":74,"x_max":303,"o":"m 74 858 q 106 938 74 906 q 189 969 139 969 q 271 938 239 969 q 303 858 303 906 q 271 780 303 813 q 189 747 239 747 q 106 780 139 747 q 74 858 74 813 m 86 367 l 292 367 l 292 1 q 253 -6 278 -1 q 199 -10 228 -10 q 113 11 140 -10 q 86 86 86 32 l 86 367 m 292 261 l 86 261 l 86 658 q 125 667 100 663 q 179 671 150 671 q 265 651 238 671 q 292 575 292 631 l 292 261 z "},"j":{"ha":383,"x_min":-6,"x_max":304,"o":"m -6 -157 q 49 -121 28 -140 q 82 -74 71 -101 q 93 -3 93 -46 l 93 347 l 297 347 l 297 -25 q 270 -167 297 -112 q 200 -246 243 -221 q 110 -271 157 -271 q 27 -238 57 -271 q -6 -157 -3 -206 m 75 858 q 107 938 75 906 q 190 969 139 969 q 272 938 240 969 q 304 858 304 906 q 272 780 304 813 q 190 747 240 747 q 107 780 139 747 q 75 858 75 813 m 297 257 l 93 261 l 93 658 q 131 667 106 663 q 185 671 156 671 q 271 651 244 671 q 297 575 297 631 l 297 257 z "},"k":{"ha":747,"x_min":83,"x_max":707,"o":"m 376 267 l 229 361 l 543 678 q 643 649 606 676 q 681 579 681 622 q 656 515 681 543 q 579 443 631 488 l 376 267 m 238 332 l 400 404 l 707 107 q 675 20 703 51 q 596 -11 647 -11 q 527 8 558 -11 q 461 69 496 26 l 238 332 m 83 368 l 288 364 l 288 1 q 250 -6 275 -1 q 196 -10 225 -10 q 110 11 138 -10 q 83 86 83 32 l 83 368 m 288 258 l 83 263 l 83 904 q 121 913 96 908 q 175 917 146 917 q 261 897 235 917 q 288 821 288 876 l 288 258 z "},"l":{"ha":382,"x_min":89,"x_max":293,"o":"m 89 367 l 293 363 l 293 1 q 256 -6 281 -1 q 201 -10 231 -10 q 116 11 143 -10 q 89 86 89 32 l 89 367 m 293 257 l 89 261 l 89 904 q 126 913 101 908 q 181 917 151 917 q 267 897 240 917 q 293 821 293 876 l 293 257 z "},"m":{"ha":1165,"x_min":81,"x_max":1085,"o":"m 685 460 l 685 301 l 481 301 l 481 433 q 452 503 481 482 q 382 525 424 525 q 326 516 351 525 q 285 497 301 507 l 285 301 l 81 301 l 81 518 q 95 576 81 553 q 139 617 110 599 q 250 668 183 649 q 389 688 317 688 q 514 667 456 688 q 615 603 572 646 q 636 585 626 594 q 651 565 646 576 q 675 515 665 543 q 685 460 685 488 m 1085 440 l 1085 301 l 879 301 l 879 433 q 853 503 879 482 q 783 525 826 525 q 722 513 751 525 q 674 481 693 500 l 565 600 q 669 661 611 635 q 813 688 728 688 q 947 663 885 688 q 1047 583 1008 638 q 1085 440 1085 529 m 81 365 l 285 365 l 285 1 q 247 -6 272 -1 q 193 -10 222 -10 q 108 11 135 -10 q 81 86 81 32 l 81 365 m 481 365 l 685 365 l 685 1 q 647 -6 672 -1 q 593 -10 622 -10 q 508 11 535 -10 q 481 86 481 32 l 481 365 m 879 365 l 1085 365 l 1085 1 q 1046 -6 1071 -1 q 993 -10 1021 -10 q 906 11 933 -10 q 879 86 879 32 l 879 365 z "},"n":{"ha":799,"x_min":81,"x_max":717,"o":"m 717 432 l 717 301 l 513 301 l 513 425 q 482 501 513 478 q 403 525 451 525 q 339 517 368 525 q 285 496 310 508 l 285 301 l 81 301 l 81 518 q 95 576 81 553 q 139 617 110 599 q 252 667 183 647 q 404 688 321 688 q 635 622 554 688 q 717 432 717 556 m 81 365 l 285 365 l 285 1 q 247 -6 272 -1 q 193 -10 222 -10 q 108 11 135 -10 q 81 86 81 32 l 81 365 m 513 365 l 717 365 l 717 1 q 679 -6 704 -1 q 625 -10 654 -10 q 540 11 567 -10 q 513 86 513 32 l 513 365 z "},"o":{"ha":803,"x_min":50,"x_max":753,"o":"m 753 333 q 710 145 753 225 q 588 22 667 65 q 401 -21 508 -21 q 215 22 294 -21 q 93 144 136 64 q 50 333 50 224 q 94 521 50 442 q 217 644 138 600 q 401 688 297 688 q 586 644 507 688 q 709 520 665 600 q 753 333 753 440 m 401 525 q 298 475 336 525 q 260 333 260 425 q 297 190 260 240 q 401 140 335 140 q 506 191 469 140 q 543 333 543 242 q 506 474 543 424 q 401 525 468 525 z "},"p":{"ha":799,"x_min":81,"x_max":750,"o":"m 410 -19 q 317 -7 358 -19 q 243 22 275 6 l 243 196 q 301 159 268 175 q 379 143 335 143 q 498 192 456 143 q 540 338 540 240 q 522 445 540 404 q 468 506 503 486 q 386 525 433 525 q 328 517 353 525 q 285 500 303 510 l 285 74 l 81 74 l 81 528 q 95 585 81 563 q 138 626 110 608 q 243 670 179 653 q 386 688 307 688 q 575 651 493 688 q 703 537 657 614 q 750 338 750 460 q 706 140 750 219 q 585 21 661 61 q 410 -19 508 -19 m 193 -260 q 108 -239 135 -260 q 81 -164 81 -218 l 81 126 l 285 126 l 285 -247 q 247 -256 272 -251 q 193 -260 222 -260 z "},"q":{"ha":801,"x_min":50,"x_max":719,"o":"m 719 101 l 515 101 l 515 503 q 478 519 501 513 q 425 525 456 525 q 337 504 375 525 q 278 440 299 483 q 257 331 257 397 q 301 188 257 233 q 419 142 344 142 q 488 153 458 142 q 536 182 517 165 l 536 13 q 473 -12 511 -3 q 389 -21 435 -21 q 214 18 290 -21 q 94 135 138 57 q 50 331 50 214 q 97 528 50 449 q 226 647 143 607 q 421 688 310 688 q 561 669 496 688 q 663 626 626 650 q 704 586 689 610 q 719 529 719 563 l 719 101 m 514 128 l 719 128 l 719 -251 q 681 -260 706 -256 q 626 -264 656 -264 q 541 -243 568 -264 q 514 -168 514 -222 l 514 128 z "},"r":{"ha":561,"x_min":81,"x_max":539,"o":"m 285 488 l 285 314 l 81 314 l 81 513 q 99 578 81 551 q 151 626 118 606 q 262 670 197 654 q 397 686 326 686 q 539 592 539 686 q 533 551 539 569 q 517 518 526 532 q 483 522 503 521 q 440 524 463 524 q 356 515 397 524 q 285 488 315 506 m 81 367 l 285 363 l 285 1 q 247 -6 272 -1 q 193 -10 222 -10 q 108 11 135 -10 q 81 86 81 32 l 81 367 z "},"s":{"ha":668,"x_min":60,"x_max":621,"o":"m 621 194 q 544 35 621 93 q 322 -22 468 -22 q 135 12 208 -22 q 61 110 61 46 q 74 160 61 139 q 106 194 86 182 q 197 153 144 171 q 315 135 249 135 q 418 193 418 135 q 399 233 418 218 q 340 256 381 247 l 279 269 q 115 341 169 292 q 60 476 60 390 q 138 631 60 574 q 350 688 217 688 q 471 674 417 688 q 557 635 525 661 q 589 568 589 608 q 578 520 589 542 q 550 486 567 499 q 503 506 533 496 q 435 524 472 517 q 367 532 399 532 q 288 518 317 532 q 260 476 260 504 q 276 445 260 458 q 333 422 292 432 l 389 410 q 567 328 513 381 q 621 194 621 276 z "},"t":{"ha":543,"x_min":83,"x_max":500,"o":"m 83 367 l 286 367 l 286 218 q 311 160 286 178 q 381 143 336 143 q 426 147 403 143 q 468 158 450 151 q 488 128 479 146 q 496 88 496 111 q 458 10 496 40 q 328 -19 419 -19 q 148 33 213 -19 q 83 204 83 85 l 83 367 m 211 493 l 211 651 l 479 651 q 493 619 486 640 q 500 574 500 599 q 481 513 500 532 q 431 493 463 493 l 211 493 m 286 332 l 83 332 l 83 831 q 121 840 96 835 q 174 844 146 844 q 259 824 232 844 q 286 749 286 803 l 286 332 z "},"u":{"ha":797,"x_min":81,"x_max":717,"o":"m 81 260 l 81 360 l 285 360 l 285 261 q 318 169 285 197 q 411 140 351 140 q 474 147 449 140 q 513 163 500 154 l 513 360 l 717 360 l 717 138 q 704 81 717 104 q 663 39 692 57 q 553 -5 618 11 q 410 -21 489 -21 q 237 8 311 -21 q 122 99 163 38 q 81 260 81 161 m 717 297 l 513 297 l 513 664 q 550 672 525 668 q 604 676 575 676 q 690 656 664 676 q 717 579 717 636 l 717 297 m 285 297 l 81 297 l 81 664 q 118 672 93 668 q 172 676 143 676 q 258 656 232 676 q 285 579 285 636 l 285 297 z "},"v":{"ha":740,"x_min":32,"x_max":703,"o":"m 603 681 q 674 662 644 681 q 703 599 703 643 q 688 521 703 574 q 651 399 674 468 q 600 258 628 331 q 544 122 572 185 q 494 17 517 58 q 447 -3 479 6 q 374 -12 414 -12 q 292 0 326 -12 q 246 39 258 13 q 208 121 231 68 q 160 241 186 174 q 110 381 135 308 q 65 519 86 453 q 32 636 43 586 q 77 667 49 654 q 139 681 106 681 q 209 663 182 681 q 250 594 236 644 l 311 374 q 334 296 322 335 q 356 223 346 257 q 372 167 367 189 l 379 167 q 447 408 413 279 q 507 658 481 536 q 603 681 550 681 z "},"w":{"ha":1078,"x_min":38,"x_max":1038,"o":"m 544 404 q 506 260 528 335 q 463 122 483 186 q 431 19 443 58 q 385 -3 414 6 q 317 -12 357 -12 q 233 1 269 -12 q 183 42 196 15 q 155 121 171 69 q 122 238 139 172 q 90 376 106 304 q 60 516 74 449 q 38 638 47 583 q 83 667 54 654 q 146 681 111 681 q 215 660 189 681 q 249 593 242 640 q 274 429 263 500 q 294 308 285 358 q 309 226 303 258 q 319 178 315 194 l 325 178 q 349 275 332 208 q 391 427 367 342 q 438 600 415 513 q 486 621 461 614 q 544 628 511 628 q 617 614 588 628 q 656 572 647 600 q 703 408 681 488 q 742 268 725 329 q 764 176 758 207 l 771 176 q 811 410 790 288 q 847 656 832 533 q 940 681 889 681 q 1010 662 982 681 q 1038 599 1038 643 q 1030 535 1038 579 q 1010 435 1022 492 q 982 317 997 379 q 951 196 967 254 q 921 92 935 138 q 896 19 907 46 q 846 -3 881 6 q 772 -12 811 -12 q 651 38 669 -12 q 619 135 639 75 q 579 265 599 194 q 544 404 560 336 z "},"x":{"ha":713,"x_min":40,"x_max":679,"o":"m 294 414 l 332 417 q 429 546 382 483 q 525 675 476 608 q 537 676 532 676 q 546 676 542 676 q 635 652 603 676 q 668 589 668 628 q 653 534 668 558 q 601 467 639 510 q 525 380 564 424 q 449 293 486 336 l 388 263 q 291 126 339 194 q 194 -10 243 58 q 181 -10 190 -10 q 168 -11 172 -11 q 76 15 108 -11 q 43 78 43 40 q 56 128 43 106 q 104 189 69 150 q 199 301 150 244 q 294 414 247 357 m 414 397 l 461 372 q 570 229 515 300 q 679 86 625 158 q 644 13 674 40 q 571 -14 614 -14 q 499 13 526 -12 q 444 75 471 38 q 372 176 408 125 q 301 278 336 228 l 267 301 q 153 438 210 371 q 40 572 97 504 q 79 648 50 619 q 149 676 108 676 q 211 657 189 676 q 260 603 233 638 q 336 501 297 553 q 414 397 375 449 z "},"y":{"ha":744,"x_min":32,"x_max":707,"o":"m 192 165 q 144 276 171 211 q 90 431 118 342 q 32 636 63 519 q 77 667 49 654 q 139 681 106 681 q 210 663 182 681 q 251 594 238 644 q 315 393 282 493 q 381 190 347 293 l 386 190 q 434 332 410 253 q 480 496 458 411 q 515 658 501 581 q 557 674 535 668 q 603 681 579 681 q 676 662 646 681 q 707 599 707 643 q 696 503 707 560 q 665 380 685 446 q 619 245 644 314 q 564 113 593 176 q 506 -3 535 49 q 367 -198 431 -133 q 243 -262 304 -262 q 160 -233 193 -262 q 122 -156 128 -203 q 183 -97 151 -129 q 245 -27 215 -64 q 297 46 275 10 q 248 76 274 53 q 192 165 222 100 z "},"z":{"ha":664,"x_min":51,"x_max":624,"o":"m 174 0 l 93 0 q 63 40 74 17 q 51 92 51 63 q 63 140 51 117 q 92 186 75 164 l 494 665 l 567 665 q 597 626 586 649 q 608 574 608 603 q 597 526 608 550 q 568 481 586 501 l 174 0 m 525 665 l 525 507 l 78 507 q 64 541 71 519 q 57 586 57 563 q 76 647 57 628 q 128 665 96 665 l 525 665 m 150 0 l 150 160 l 603 160 q 617 126 610 147 q 624 81 624 106 q 605 19 624 39 q 554 0 586 0 l 150 0 z "},"{":{"ha":449,"x_min":38,"x_max":410,"o":"m 250 372 q 310 313 289 353 q 331 210 331 272 l 331 49 q 352 -19 331 1 q 407 -46 374 -39 q 410 -65 410 -56 q 410 -82 410 -74 q 382 -157 410 -133 q 307 -181 354 -181 q 188 -133 235 -181 q 142 8 142 -86 l 142 160 q 119 258 142 224 q 47 303 96 292 q 40 335 43 317 q 38 372 38 354 q 40 410 38 392 q 47 443 43 428 q 119 489 96 454 q 142 586 142 524 l 142 732 q 190 873 142 826 q 310 919 239 919 q 384 897 358 919 q 410 821 410 875 q 410 804 410 813 q 407 785 410 796 q 352 759 374 779 q 331 690 331 739 l 331 536 q 310 433 331 474 q 250 372 289 392 z "},"|":{"ha":381,"x_min":99,"x_max":282,"o":"m 282 860 l 282 -239 q 246 -245 268 -242 q 200 -249 224 -249 q 125 -232 151 -249 q 99 -161 99 -215 l 99 939 q 135 945 113 942 q 181 949 157 949 q 256 931 229 949 q 282 860 282 914 z "},"}":{"ha":449,"x_min":39,"x_max":411,"o":"m 199 372 q 139 313 160 353 q 118 210 118 272 l 118 49 q 97 -19 118 1 q 42 -46 75 -39 q 39 -65 39 -56 q 39 -82 39 -74 q 67 -157 39 -133 q 142 -181 94 -181 q 260 -133 214 -181 q 307 8 307 -86 l 307 160 q 330 258 307 224 q 401 303 353 292 q 408 335 406 317 q 411 372 411 354 q 408 410 411 392 q 401 443 406 428 q 330 489 353 454 q 307 586 307 524 l 307 732 q 258 873 307 826 q 139 919 210 919 q 65 897 90 919 q 39 821 39 875 q 39 804 39 813 q 42 785 39 796 q 97 759 75 779 q 118 690 118 739 l 118 536 q 139 433 118 474 q 199 372 160 392 z "},"~":{"ha":679,"x_min":28,"x_max":654,"o":"m 447 424 q 500 442 482 424 q 529 482 518 461 q 617 451 581 482 q 654 369 654 419 q 608 272 654 304 q 496 239 561 239 q 406 251 450 239 q 319 275 361 263 q 233 288 278 288 q 181 267 199 288 q 151 231 163 247 q 65 262 101 231 q 28 343 28 293 q 51 417 28 388 q 111 460 75 446 q 185 474 147 474 q 279 461 235 474 q 365 436 324 449 q 447 424 407 424 z "}," ":{"ha":278,"x_min":0,"x_max":0,"o":""},"¡":{"ha":397,"x_min":81,"x_max":319,"o":"m 93 -135 q 95 -42 93 -100 q 100 85 97 15 q 109 222 103 154 q 122 343 115 289 q 158 357 133 351 q 200 363 182 363 q 258 350 233 363 q 288 307 282 338 q 297 211 292 274 q 305 74 301 149 q 310 -74 308 -1 q 313 -200 313 -146 q 197 -231 260 -231 q 120 -207 147 -231 q 93 -135 93 -183 m 319 554 q 287 469 319 503 q 200 436 254 436 q 113 469 144 436 q 81 554 81 503 q 113 638 81 604 q 200 671 144 671 q 287 638 254 671 q 319 554 319 604 z "},"¢":{"ha":678,"x_min":47,"x_max":624,"o":"m 275 82 l 457 82 l 457 -126 q 423 -134 444 -131 q 375 -137 401 -137 q 299 -119 324 -137 q 275 -51 275 -100 l 275 82 m 457 560 l 275 560 l 275 796 q 309 803 288 800 q 356 807 331 807 q 433 788 408 807 q 457 721 457 769 l 457 560 m 438 524 q 309 474 363 524 q 256 331 256 425 q 307 190 256 238 q 438 143 358 143 q 517 155 483 143 q 575 179 551 167 q 611 143 599 163 q 624 94 624 124 q 568 12 624 43 q 415 -19 513 -19 q 222 19 304 -19 q 93 138 139 58 q 47 331 47 217 q 97 530 47 451 q 229 648 147 608 q 410 688 311 688 q 560 653 504 688 q 615 567 615 618 q 603 522 615 542 q 575 488 592 501 q 516 513 550 501 q 438 524 482 524 z "},"£":{"ha":700,"x_min":56,"x_max":672,"o":"m 510 342 l 129 342 q 79 360 99 342 q 60 424 60 379 q 67 467 60 447 q 81 500 74 488 l 558 500 q 572 467 565 488 q 579 424 579 447 q 560 360 579 379 q 510 342 542 342 m 171 315 q 166 394 171 347 q 156 489 161 440 q 150 574 150 538 q 192 741 150 676 q 306 836 235 806 q 461 867 376 867 q 602 835 554 867 q 650 751 650 804 q 639 704 650 728 q 613 669 628 681 q 559 693 586 685 q 492 701 532 701 q 389 669 425 701 q 353 564 353 638 q 358 480 353 528 q 367 387 363 432 q 371 313 371 342 q 358 228 371 267 q 319 161 344 190 l 651 161 q 666 126 660 147 q 672 82 672 106 q 653 19 672 39 q 601 0 633 0 l 139 0 q 81 26 106 0 q 56 99 56 51 q 57 119 56 111 q 142 188 114 146 q 171 315 171 231 z "},"¤":{"ha":771,"x_min":78,"x_max":689,"o":"m 383 133 q 238 165 304 133 q 133 257 172 196 q 94 407 94 318 q 133 556 94 494 q 238 649 172 617 q 381 681 303 681 q 526 649 461 681 q 631 556 592 617 q 669 407 669 494 q 631 257 669 318 q 527 165 592 196 q 383 133 463 133 m 188 69 q 124 94 151 76 q 97 140 97 111 q 108 180 97 160 q 138 222 119 200 l 201 306 l 300 215 l 188 69 m 607 76 q 565 95 583 76 q 528 135 546 114 l 464 215 l 571 283 l 689 142 q 653 92 675 108 q 607 76 632 76 m 382 271 q 464 306 432 271 q 496 407 496 340 q 464 508 496 472 q 382 543 432 543 q 299 508 331 543 q 267 407 267 472 q 299 306 267 340 q 382 271 331 271 m 196 524 l 78 665 q 115 715 93 699 q 160 731 136 731 q 203 712 183 731 q 239 672 222 693 l 304 590 l 196 524 m 569 501 l 471 590 l 583 738 q 646 714 619 731 q 672 667 672 697 q 662 627 672 647 q 633 585 651 607 l 569 501 z "},"¥":{"ha":811,"x_min":47,"x_max":757,"o":"m 569 408 l 276 390 q 190 528 235 456 q 108 669 146 600 q 47 792 71 738 q 90 831 64 813 q 153 849 115 849 q 227 830 199 849 q 282 760 256 811 l 414 511 l 422 511 q 474 618 453 572 q 515 713 494 664 q 565 828 536 763 q 612 843 586 838 q 661 849 638 849 q 730 827 703 849 q 757 764 757 806 q 747 725 757 750 q 715 658 738 700 q 658 556 693 617 q 569 408 622 494 m 310 246 l 517 246 l 517 1 q 476 -6 503 -1 q 421 -10 449 -10 q 335 12 360 -10 q 310 88 310 33 l 310 246 m 371 363 l 394 493 l 729 493 q 742 464 736 481 q 747 428 747 447 q 731 378 747 393 q 689 363 714 363 l 371 363 m 444 493 l 464 363 l 97 363 q 85 390 92 372 q 79 426 79 407 q 96 478 79 463 q 136 493 113 493 l 444 493 m 689 158 l 97 158 q 85 185 92 168 q 79 222 79 203 q 96 274 79 258 q 136 289 113 289 l 729 289 q 740 260 735 276 q 746 224 746 243 q 729 174 746 189 q 689 158 713 158 z "},"¦":{"ha":407,"x_min":99,"x_max":282,"o":"m 282 861 l 282 433 q 246 427 268 431 q 200 424 224 424 q 125 440 151 424 q 99 511 99 457 l 99 939 q 135 945 113 942 q 181 949 157 949 q 256 931 229 949 q 282 861 282 914 m 282 189 l 282 -239 q 246 -245 268 -242 q 200 -249 224 -249 q 125 -232 151 -249 q 99 -161 99 -215 l 99 267 q 135 273 113 269 q 181 276 157 276 q 256 259 229 276 q 282 189 282 242 z "},"§":{"ha":744,"x_min":74,"x_max":671,"o":"m 671 124 q 589 -30 671 26 q 347 -86 507 -86 q 208 -72 269 -86 q 111 -28 146 -57 q 76 44 76 1 q 89 96 76 75 q 121 131 101 117 q 217 88 163 106 q 340 69 271 69 q 438 85 408 69 q 468 126 468 100 q 449 162 468 150 q 386 181 431 174 l 293 197 q 128 264 183 215 q 74 400 74 313 q 144 534 74 489 q 329 583 214 579 l 319 482 q 279 452 293 474 q 265 406 265 431 q 283 366 265 385 q 340 339 300 347 l 456 315 q 616 251 561 294 q 671 124 671 207 m 671 388 q 653 312 671 347 q 608 253 636 276 q 549 218 581 229 l 429 294 q 466 333 453 315 q 479 378 479 351 q 459 419 479 401 q 394 446 439 438 l 290 467 q 177 503 225 479 q 104 567 129 528 q 79 664 79 606 q 159 814 79 761 q 369 867 239 867 q 497 853 440 867 q 589 814 554 840 q 624 749 624 788 q 613 700 624 721 q 586 665 601 679 q 534 687 568 676 q 460 704 500 697 q 386 711 421 711 q 308 698 336 711 q 279 657 279 685 q 297 626 279 636 q 350 608 314 615 l 440 594 q 613 524 556 575 q 671 388 671 472 z "},"¨":{"ha":519,"x_min":14,"x_max":507,"o":"m 224 867 q 194 794 224 824 q 117 765 165 765 q 43 794 72 765 q 14 867 14 824 q 43 940 14 910 q 117 969 72 969 q 194 940 165 969 q 224 867 224 910 m 507 867 q 478 794 507 824 q 401 765 450 765 q 327 794 357 765 q 297 867 297 824 q 327 940 297 910 q 401 969 357 969 q 478 940 450 969 q 507 867 507 910 z "},"©":{"ha":990,"x_min":56,"x_max":935,"o":"m 56 425 q 110 644 56 546 q 264 799 165 742 q 493 857 363 857 q 724 799 625 857 q 879 644 824 742 q 935 425 935 546 q 879 208 935 304 q 724 54 824 111 q 493 -3 625 -3 q 264 54 363 -3 q 110 208 165 111 q 56 425 56 304 m 493 744 q 331 703 399 744 q 226 590 263 661 q 189 425 189 518 q 226 263 189 333 q 331 152 263 192 q 493 113 399 113 q 657 152 589 113 q 762 263 725 192 q 799 425 799 333 q 762 590 799 518 q 657 703 725 661 q 493 744 589 744 m 542 535 q 467 508 499 535 q 436 431 436 482 q 466 350 436 378 q 542 322 496 322 q 590 330 571 322 q 625 346 610 338 q 656 282 656 321 q 618 230 656 254 q 517 206 581 206 q 403 232 454 206 q 323 309 353 258 q 293 432 293 360 q 327 556 293 507 q 413 628 361 604 q 518 653 465 653 q 613 630 576 653 q 650 572 650 607 q 642 539 650 554 q 621 513 633 524 q 587 528 607 521 q 542 535 567 535 z "},"ª":{"ha":492,"x_min":29,"x_max":433,"o":"m 232 406 q 84 441 139 406 q 29 547 29 476 q 67 644 29 611 q 183 685 106 676 l 300 697 l 300 703 q 277 748 300 735 q 208 761 254 761 q 141 752 175 761 q 81 732 107 743 q 62 754 69 739 q 54 786 54 769 q 64 821 54 808 q 96 843 74 833 q 157 859 121 854 q 225 864 193 864 q 376 826 318 864 q 433 703 433 788 l 433 496 q 421 463 433 476 q 392 439 408 449 q 232 406 335 406 m 232 507 q 271 510 251 507 q 301 519 290 514 l 301 603 l 229 596 q 179 584 197 594 q 161 553 161 574 q 178 519 161 532 q 232 507 194 507 z "},"«":{"ha":761,"x_min":43,"x_max":714,"o":"m 211 308 l 389 126 q 365 63 389 92 q 294 35 342 35 q 244 49 267 35 q 201 86 222 64 l 61 232 q 49 265 54 244 q 43 304 43 285 q 53 367 43 343 q 76 404 63 390 l 281 604 q 350 567 326 592 q 374 513 374 542 q 363 464 374 485 q 317 410 351 443 l 211 308 m 538 308 l 714 126 q 691 63 714 92 q 619 35 668 35 q 569 49 592 35 q 526 86 547 64 l 388 232 q 374 265 379 244 q 368 304 368 285 q 378 367 368 343 q 403 404 388 390 l 606 604 q 676 567 653 592 q 700 513 700 542 q 689 464 700 485 q 642 410 678 443 l 538 308 z "},"¬":{"ha":739,"x_min":49,"x_max":689,"o":"m 121 600 l 597 600 q 665 576 640 600 q 689 508 689 551 l 689 253 q 651 245 676 249 q 600 242 625 242 q 524 260 550 242 q 499 335 499 279 l 499 442 l 69 442 q 56 476 63 456 q 49 519 49 496 q 69 581 49 561 q 121 600 89 600 z "},"­":{"ha":504,"x_min":50,"x_max":454,"o":"m 378 274 l 72 274 q 57 308 64 288 q 50 354 50 329 q 71 419 50 399 q 126 439 92 439 l 432 439 q 447 404 439 426 q 454 358 454 382 q 433 294 454 314 q 378 274 413 274 z "},"®":{"ha":860,"x_min":58,"x_max":801,"o":"m 58 518 q 105 701 58 619 q 235 831 151 782 q 429 879 319 879 q 622 831 539 879 q 753 701 706 782 q 801 518 801 619 q 753 338 801 419 q 622 208 706 256 q 429 160 539 160 q 235 208 319 160 q 105 338 151 256 q 58 518 58 419 m 172 518 q 203 384 172 443 q 292 292 235 325 q 429 258 350 258 q 566 292 508 258 q 654 384 624 325 q 685 518 685 443 q 654 654 685 594 q 566 748 624 714 q 429 782 508 782 q 292 748 350 782 q 203 654 235 714 q 172 518 172 594 m 418 472 l 399 472 l 399 365 q 379 363 392 364 q 350 361 367 361 q 317 369 329 361 q 304 403 304 376 l 304 661 q 328 688 304 679 q 371 696 347 693 q 419 699 394 699 q 531 668 493 699 q 569 583 569 638 q 551 525 569 549 q 507 490 533 501 l 579 394 q 559 368 574 378 q 528 358 544 358 q 492 369 506 358 q 467 397 479 379 l 418 472 m 399 542 l 426 542 q 474 585 474 542 q 460 615 474 606 q 422 625 447 625 q 409 624 415 625 q 399 624 403 624 l 399 542 z "},"¯":{"ha":493,"x_min":25,"x_max":468,"o":"m 401 786 l 46 786 q 33 819 40 799 q 25 861 25 839 q 44 924 25 906 q 93 942 63 942 l 449 942 q 463 908 458 929 q 468 865 468 888 q 450 803 468 821 q 401 786 432 786 z "},"°":{"ha":501,"x_min":31,"x_max":471,"o":"m 471 665 q 442 556 471 601 q 363 488 413 511 q 251 464 314 464 q 93 517 156 464 q 31 665 31 571 q 60 772 31 728 q 139 840 89 817 q 251 864 189 864 q 363 840 314 864 q 442 772 413 817 q 471 665 471 728 m 251 744 q 200 725 222 744 q 178 665 178 706 q 200 603 178 624 q 251 583 222 583 q 302 603 281 583 q 324 665 324 624 q 302 725 324 706 q 251 744 281 744 z "},"±":{"ha":726,"x_min":60,"x_max":667,"o":"m 592 438 l 79 438 q 65 472 71 451 q 60 515 60 492 q 81 580 60 560 q 135 600 101 600 l 647 600 q 660 565 654 588 q 667 519 667 543 q 646 456 667 475 q 592 438 625 438 m 592 0 l 79 0 q 65 34 71 14 q 60 78 60 54 q 81 142 60 122 q 135 163 101 163 l 647 163 q 660 128 654 150 q 667 82 667 106 q 646 19 667 38 q 592 0 625 0 m 458 704 l 458 251 q 421 244 446 249 q 372 240 396 240 q 298 258 324 240 q 272 329 272 275 l 272 781 q 310 788 286 783 q 358 793 335 793 q 433 775 407 793 q 458 704 458 757 z "},"²":{"ha":388,"x_min":31,"x_max":354,"o":"m 174 972 q 300 934 254 972 q 346 828 346 896 q 319 746 346 785 q 246 669 293 707 l 182 617 l 342 617 q 350 595 346 608 q 354 568 354 582 q 342 530 354 542 q 308 518 331 518 l 61 518 q 40 543 49 528 q 31 578 31 558 q 36 616 31 600 q 51 640 42 632 l 157 735 q 210 788 197 768 q 222 825 222 807 q 206 860 222 847 q 163 874 190 874 q 111 864 133 874 q 74 843 89 854 q 54 867 63 853 q 46 900 46 881 q 81 953 46 935 q 174 972 117 972 z "},"³":{"ha":393,"x_min":21,"x_max":356,"o":"m 107 792 l 174 792 q 211 801 199 792 q 224 831 224 811 q 206 861 224 850 q 157 872 189 872 q 106 865 129 872 q 64 847 82 857 q 42 871 50 857 q 33 903 33 885 q 73 956 33 938 q 175 974 113 974 q 302 938 257 974 q 347 843 347 901 q 330 788 347 813 q 286 750 313 763 q 335 710 315 738 q 356 642 356 683 q 305 542 356 578 q 175 507 254 507 q 62 529 103 507 q 21 583 21 551 q 31 618 21 603 q 56 640 40 633 q 101 617 76 628 q 163 607 126 607 q 215 619 196 607 q 233 653 233 632 q 219 686 233 675 q 176 697 204 697 l 107 697 q 98 717 101 706 q 94 744 94 729 q 107 792 94 776 z "},"´":{"ha":414,"x_min":82,"x_max":375,"o":"m 111 871 l 250 1022 q 343 995 311 1022 q 375 933 375 968 q 363 886 375 906 q 319 842 350 867 l 189 729 q 110 755 138 729 q 82 810 82 781 q 88 839 82 825 q 111 871 94 853 z "},"µ":{"ha":799,"x_min":81,"x_max":718,"o":"m 81 411 l 265 411 l 261 89 q 278 -42 271 19 q 286 -171 286 -103 l 286 -231 q 247 -243 271 -237 q 194 -249 224 -249 q 108 -228 136 -249 q 81 -153 81 -207 l 81 411 m 200 226 l 200 338 l 286 360 l 286 261 q 319 169 286 197 q 411 140 353 140 q 475 147 450 140 q 513 163 500 154 l 513 360 l 718 360 l 718 138 q 705 81 718 104 q 663 39 692 57 q 572 -3 626 15 q 440 -21 518 -21 q 297 12 350 -21 q 222 100 244 44 q 200 226 200 156 m 718 297 l 513 297 l 513 664 q 551 672 526 668 q 606 676 576 676 q 691 656 664 676 q 718 579 718 636 l 718 297 m 286 297 l 81 297 l 81 664 q 119 672 94 668 q 174 676 144 676 q 260 656 233 676 q 286 579 286 636 l 286 297 z "},"¶":{"ha":726,"x_min":22,"x_max":644,"o":"m 338 851 l 532 851 q 615 833 585 851 q 644 756 644 815 l 644 -96 q 606 -103 633 -99 q 553 -107 579 -107 q 470 -88 500 -107 q 440 -11 440 -69 l 440 679 l 344 679 l 344 332 q 324 303 344 315 q 260 292 304 292 q 148 321 203 292 q 58 409 93 350 q 22 561 22 468 q 66 724 22 660 q 182 819 110 788 q 338 851 254 851 z "},"·":{"ha":297,"x_min":29,"x_max":268,"o":"m 29 369 q 62 456 29 421 q 149 492 94 492 q 236 456 204 492 q 268 369 268 421 q 236 284 268 319 q 149 249 204 249 q 62 284 94 249 q 29 369 29 319 z "},"¸":{"ha":271,"x_min":-19,"x_max":258,"o":"m 58 6 l 169 46 q 239 -26 219 17 q 258 -117 258 -68 q 215 -231 258 -186 q 96 -276 171 -276 q 12 -251 43 -276 q -19 -181 -19 -226 q -14 -142 -19 -158 l 3 -142 q 67 -121 47 -142 q 86 -68 86 -100 q 80 -31 86 -51 q 58 6 74 -10 z "},"¹":{"ha":304,"x_min":13,"x_max":242,"o":"m 121 569 l 121 832 l 57 810 q 27 834 42 817 q 13 875 13 851 q 24 911 13 897 q 54 932 36 925 l 156 971 l 176 971 q 224 952 207 971 q 242 903 242 933 l 242 521 q 218 515 233 518 q 186 513 203 513 q 138 524 156 513 q 121 569 121 535 z "},"º":{"ha":544,"x_min":42,"x_max":496,"o":"m 496 636 q 433 465 496 525 q 269 406 371 406 q 105 467 168 406 q 42 636 42 528 q 105 803 42 743 q 269 864 168 864 q 433 803 371 864 q 496 636 496 742 m 269 756 q 204 724 228 756 q 181 636 181 693 q 205 547 181 578 q 269 515 229 515 q 333 547 310 515 q 357 636 357 578 q 333 724 357 692 q 269 756 310 756 z "},"»":{"ha":761,"x_min":47,"x_max":718,"o":"m 550 331 l 372 513 q 396 576 372 547 q 467 604 419 604 q 517 590 494 604 q 560 551 539 575 l 700 407 q 713 374 707 394 q 718 333 718 354 q 708 272 718 294 q 685 235 699 249 l 481 35 q 411 72 435 47 q 388 126 388 97 q 399 175 388 154 q 444 229 410 196 l 550 331 m 224 331 l 47 513 q 70 576 47 547 q 142 604 93 604 q 192 590 169 604 q 235 551 214 575 l 374 407 q 388 374 382 394 q 393 333 393 354 q 383 272 393 294 q 358 235 374 249 l 156 35 q 85 72 110 47 q 61 126 61 97 q 72 175 61 154 q 119 229 83 196 l 224 331 z "},"¿":{"ha":678,"x_min":39,"x_max":632,"o":"m 346 331 l 485 360 q 523 318 506 346 q 540 253 540 290 q 521 197 540 217 q 461 168 501 178 l 356 142 q 281 103 306 128 q 256 38 256 79 q 287 -28 256 1 q 390 -57 318 -57 q 498 -42 446 -57 q 582 -6 550 -28 q 617 -46 601 -22 q 632 -100 632 -69 q 556 -198 632 -165 q 364 -231 481 -231 q 187 -197 260 -231 q 76 -102 114 -162 q 39 38 39 -42 q 115 228 39 157 q 346 331 192 299 m 524 553 q 491 468 524 501 q 404 435 458 435 q 316 468 349 435 q 283 553 283 501 q 316 637 283 604 q 404 669 349 669 q 491 637 458 669 q 524 553 524 604 z "},"À":{"ha":858,"x_min":35,"x_max":831,"o":"m 438 668 l 429 668 q 397 569 415 624 q 358 456 378 515 q 319 338 338 396 l 294 214 q 278 158 286 188 q 263 101 271 129 q 247 47 254 72 q 235 0 240 22 q 199 -9 218 -4 q 153 -14 179 -14 q 65 7 96 -14 q 35 67 35 28 q 40 103 35 85 q 51 144 44 121 q 87 259 64 189 q 138 410 110 329 q 193 570 165 490 q 245 717 221 650 q 285 821 269 783 q 347 844 306 833 q 431 854 389 854 q 537 838 490 854 q 596 782 583 821 q 654 612 624 708 q 717 410 685 515 q 778 205 749 304 q 831 26 808 106 q 788 -1 817 10 q 719 -12 758 -12 q 638 8 661 -12 q 603 69 615 28 l 558 226 l 535 343 q 499 465 517 406 q 465 576 481 524 q 438 668 450 628 m 203 188 l 285 351 l 610 351 l 638 188 l 203 188 m 346 939 l 219 1036 q 217 1051 218 1042 q 217 1065 217 1060 q 242 1133 217 1108 q 304 1158 267 1158 q 394 1114 350 1158 l 513 990 q 483 928 508 949 q 428 907 458 907 q 385 916 403 907 q 346 939 367 925 z "},"Á":{"ha":858,"x_min":35,"x_max":831,"o":"m 438 668 l 429 668 q 397 569 415 624 q 358 456 378 515 q 319 338 338 396 l 294 214 q 278 158 286 188 q 263 101 271 129 q 247 47 254 72 q 235 0 240 22 q 199 -9 218 -4 q 153 -14 179 -14 q 65 7 96 -14 q 35 67 35 28 q 40 103 35 85 q 51 144 44 121 q 87 259 64 189 q 138 410 110 329 q 193 570 165 490 q 245 717 221 650 q 285 821 269 783 q 347 844 306 833 q 431 854 389 854 q 537 838 490 854 q 596 782 583 821 q 654 612 624 708 q 717 410 685 515 q 778 205 749 304 q 831 26 808 106 q 788 -1 817 10 q 719 -12 758 -12 q 638 8 661 -12 q 603 69 615 28 l 558 226 l 535 343 q 499 465 517 406 q 465 576 481 524 q 438 668 450 628 m 203 188 l 285 351 l 610 351 l 638 188 l 203 188 m 382 1039 l 533 1167 q 613 1140 585 1165 q 642 1079 642 1115 q 630 1035 642 1056 q 585 993 618 1014 l 451 906 q 378 928 403 907 q 353 979 353 950 q 358 1009 353 994 q 382 1039 363 1024 z "},"Â":{"ha":858,"x_min":35,"x_max":831,"o":"m 442 1025 q 378 965 411 997 q 311 906 344 933 q 248 927 274 906 q 222 982 222 949 q 235 1027 222 1008 q 279 1071 247 1046 l 331 1115 q 443 1165 396 1165 q 503 1153 476 1165 q 556 1113 529 1140 l 668 996 q 646 931 668 953 q 585 908 624 908 q 539 924 560 908 q 488 972 518 940 l 442 1025 m 438 668 l 429 668 q 397 569 415 624 q 358 456 378 515 q 319 338 338 396 l 294 214 q 278 158 286 188 q 263 101 271 129 q 247 47 254 72 q 235 0 240 22 q 199 -9 218 -4 q 153 -14 179 -14 q 65 7 96 -14 q 35 67 35 28 q 40 103 35 85 q 51 144 44 121 q 87 259 64 189 q 138 410 110 329 q 193 570 165 490 q 245 717 221 650 q 285 821 269 783 q 347 844 306 833 q 431 854 389 854 q 537 838 490 854 q 596 782 583 821 q 654 612 624 708 q 717 410 685 515 q 778 205 749 304 q 831 26 808 106 q 788 -1 817 10 q 719 -12 758 -12 q 638 8 661 -12 q 603 69 615 28 l 558 226 l 535 343 q 499 465 517 406 q 465 576 481 524 q 438 668 450 628 m 203 188 l 285 351 l 610 351 l 638 188 l 203 188 z "},"Ã":{"ha":858,"x_min":35,"x_max":831,"o":"m 438 668 l 429 668 q 397 569 415 624 q 358 456 378 515 q 319 338 338 396 l 294 214 q 278 158 286 188 q 263 101 271 129 q 247 47 254 72 q 235 0 240 22 q 199 -9 218 -4 q 153 -14 179 -14 q 65 7 96 -14 q 35 67 35 28 q 40 103 35 85 q 51 144 44 121 q 87 259 64 189 q 138 410 110 329 q 193 570 165 490 q 245 717 221 650 q 285 821 269 783 q 347 844 306 833 q 431 854 389 854 q 537 838 490 854 q 596 782 583 821 q 654 612 624 708 q 717 410 685 515 q 778 205 749 304 q 831 26 808 106 q 788 -1 817 10 q 719 -12 758 -12 q 638 8 661 -12 q 603 69 615 28 l 558 226 l 535 343 q 499 465 517 406 q 465 576 481 524 q 438 668 450 628 m 203 188 l 285 351 l 610 351 l 638 188 l 203 188 m 321 1151 q 395 1141 360 1151 q 461 1120 431 1131 q 513 1110 492 1110 q 557 1127 542 1110 q 579 1160 572 1144 l 586 1160 q 654 1133 625 1160 q 683 1063 683 1107 q 647 978 683 1007 q 556 950 611 950 q 478 961 513 950 q 415 983 443 972 q 363 993 386 993 q 319 976 333 993 q 296 943 304 960 l 292 943 q 222 969 251 943 q 193 1039 193 994 q 212 1103 193 1078 q 260 1140 231 1128 q 321 1151 290 1151 z "},"Ä":{"ha":858,"x_min":35,"x_max":831,"o":"m 438 668 l 429 668 q 397 569 415 624 q 358 456 378 515 q 319 338 338 396 l 294 214 q 278 158 286 188 q 263 101 271 129 q 247 47 254 72 q 235 0 240 22 q 199 -9 218 -4 q 153 -14 179 -14 q 65 7 96 -14 q 35 67 35 28 q 40 103 35 85 q 51 144 44 121 q 87 259 64 189 q 138 410 110 329 q 193 570 165 490 q 245 717 221 650 q 285 821 269 783 q 347 844 306 833 q 431 854 389 854 q 537 838 490 854 q 596 782 583 821 q 654 612 624 708 q 717 410 685 515 q 778 205 749 304 q 831 26 808 106 q 788 -1 817 10 q 719 -12 758 -12 q 638 8 661 -12 q 603 69 615 28 l 558 226 l 535 343 q 499 465 517 406 q 465 576 481 524 q 438 668 450 628 m 203 188 l 285 351 l 610 351 l 638 188 l 203 188 m 397 1036 q 368 964 397 993 q 290 935 339 935 q 217 964 246 935 q 188 1036 188 993 q 217 1109 188 1079 q 290 1139 246 1139 q 368 1109 339 1139 q 397 1036 397 1079 m 681 1036 q 652 964 681 993 q 575 935 624 935 q 501 964 531 935 q 471 1036 471 993 q 501 1109 471 1079 q 575 1139 531 1139 q 652 1109 624 1139 q 681 1036 681 1079 z "},"Å":{"ha":858,"x_min":35,"x_max":831,"o":"m 438 668 l 429 668 q 397 569 415 624 q 358 456 378 515 q 319 338 338 396 l 294 214 q 278 158 286 188 q 263 101 271 129 q 247 47 254 72 q 235 0 240 22 q 199 -9 218 -4 q 153 -14 179 -14 q 65 7 96 -14 q 35 67 35 28 q 40 103 35 85 q 51 144 44 121 q 87 259 64 189 q 138 410 110 329 q 193 570 165 490 q 245 717 221 650 q 285 821 269 783 q 347 844 306 833 q 431 854 389 854 q 537 838 490 854 q 596 782 583 821 q 654 612 624 708 q 717 410 685 515 q 778 205 749 304 q 831 26 808 106 q 788 -1 817 10 q 719 -12 758 -12 q 638 8 661 -12 q 603 69 615 28 l 558 226 l 535 343 q 499 465 517 406 q 465 576 481 524 q 438 668 450 628 m 203 188 l 285 351 l 610 351 l 638 188 l 203 188 m 264 1044 q 310 1147 264 1106 q 438 1189 357 1189 q 570 1147 522 1189 q 618 1044 618 1106 q 570 942 618 983 q 438 900 522 900 q 310 942 357 900 q 264 1044 264 983 m 390 1043 q 404 1010 390 1022 q 439 997 418 997 q 476 1010 461 997 q 490 1044 490 1022 q 476 1078 490 1065 q 439 1090 461 1090 q 404 1078 418 1090 q 390 1043 390 1065 z "},"Æ":{"ha":1204,"x_min":43,"x_max":1147,"o":"m 692 667 l 540 667 l 367 299 l 342 246 l 228 1 q 194 -8 211 -4 q 150 -12 178 -12 q 69 8 96 -12 q 43 67 43 29 q 48 103 43 85 q 64 146 53 122 q 116 254 83 188 q 188 399 149 321 q 268 556 228 478 q 344 703 308 635 q 404 814 379 771 q 455 839 421 828 q 532 850 489 850 q 593 844 560 850 q 654 823 626 838 q 690 782 682 808 l 692 667 m 206 188 l 286 351 l 608 351 l 636 188 l 206 188 m 549 728 l 754 728 l 754 10 q 715 1 740 6 q 660 -3 689 -3 q 578 28 608 -3 q 549 110 549 58 l 549 728 m 660 347 l 660 513 l 1079 513 q 1094 478 1088 499 q 1101 432 1101 457 q 1082 367 1101 388 q 1028 347 1063 347 l 660 347 m 660 -3 l 660 164 l 1125 164 q 1140 130 1133 151 q 1147 82 1147 108 q 1128 18 1147 39 q 1074 -3 1108 -3 l 660 -3 m 610 676 l 610 789 q 654 828 628 813 q 714 843 681 843 l 1119 843 q 1135 808 1128 829 q 1142 763 1142 788 q 1122 697 1142 718 q 1068 676 1103 676 l 610 676 z "},"Ç":{"ha":799,"x_min":56,"x_max":753,"o":"m 749 728 q 732 673 749 697 q 694 636 715 649 q 616 678 660 660 q 513 696 572 696 q 384 664 438 696 q 301 570 331 632 q 272 421 272 508 q 340 217 272 286 q 522 147 407 147 q 626 164 583 147 q 706 203 669 181 q 740 163 726 188 q 753 107 753 139 q 738 56 753 79 q 689 17 724 33 q 615 -10 663 3 q 496 -24 567 -24 q 274 24 374 -24 q 115 171 174 72 q 56 421 56 269 q 113 665 56 565 q 269 815 171 764 q 483 867 367 867 q 625 848 565 867 q 717 798 685 829 q 749 728 749 767 m 403 6 l 514 46 q 583 -26 564 17 q 603 -117 603 -68 q 559 -231 603 -186 q 440 -276 515 -276 q 356 -251 388 -276 q 325 -181 325 -226 q 331 -142 325 -158 l 347 -142 q 411 -121 392 -142 q 431 -68 431 -100 q 424 -31 431 -51 q 403 6 418 -10 z "},"È":{"ha":760,"x_min":103,"x_max":701,"o":"m 103 588 l 308 588 l 308 10 q 270 1 296 6 q 215 -3 244 -3 q 133 28 164 -3 q 103 110 103 58 l 103 588 m 308 254 l 103 254 l 103 731 q 133 813 103 782 q 215 843 164 843 q 270 839 244 843 q 308 831 296 835 l 308 254 m 215 347 l 215 513 l 635 513 q 649 478 643 499 q 656 432 656 457 q 636 367 656 388 q 583 347 617 347 l 215 347 m 215 -3 l 215 164 l 681 164 q 695 130 689 151 q 701 82 701 108 q 682 18 701 39 q 629 -3 663 -3 l 215 -3 m 215 676 l 215 843 l 674 843 q 689 808 682 829 q 696 763 696 788 q 676 697 696 718 q 622 676 657 676 l 215 676 m 346 939 l 219 1036 q 217 1051 218 1042 q 217 1065 217 1060 q 242 1133 217 1108 q 304 1158 267 1158 q 394 1114 350 1158 l 513 990 q 483 928 508 949 q 428 907 458 907 q 385 916 403 907 q 346 939 367 925 z "},"É":{"ha":760,"x_min":103,"x_max":701,"o":"m 103 588 l 308 588 l 308 10 q 270 1 296 6 q 215 -3 244 -3 q 133 28 164 -3 q 103 110 103 58 l 103 588 m 308 254 l 103 254 l 103 731 q 133 813 103 782 q 215 843 164 843 q 270 839 244 843 q 308 831 296 835 l 308 254 m 215 347 l 215 513 l 635 513 q 649 478 643 499 q 656 432 656 457 q 636 367 656 388 q 583 347 617 347 l 215 347 m 215 -3 l 215 164 l 681 164 q 695 130 689 151 q 701 82 701 108 q 682 18 701 39 q 629 -3 663 -3 l 215 -3 m 215 676 l 215 843 l 674 843 q 689 808 682 829 q 696 763 696 788 q 676 697 696 718 q 622 676 657 676 l 215 676 m 368 1039 l 519 1167 q 599 1140 571 1165 q 628 1079 628 1115 q 616 1035 628 1056 q 571 993 604 1014 l 438 906 q 364 928 389 907 q 339 979 339 950 q 344 1009 339 994 q 368 1039 349 1024 z "},"Ê":{"ha":760,"x_min":103,"x_max":701,"o":"m 103 588 l 308 588 l 308 10 q 270 1 296 6 q 215 -3 244 -3 q 133 28 164 -3 q 103 110 103 58 l 103 588 m 308 254 l 103 254 l 103 731 q 133 813 103 782 q 215 843 164 843 q 270 839 244 843 q 308 831 296 835 l 308 254 m 215 347 l 215 513 l 635 513 q 649 478 643 499 q 656 432 656 457 q 636 367 656 388 q 583 347 617 347 l 215 347 m 215 -3 l 215 164 l 681 164 q 695 130 689 151 q 701 82 701 108 q 682 18 701 39 q 629 -3 663 -3 l 215 -3 m 215 676 l 215 843 l 674 843 q 689 808 682 829 q 696 763 696 788 q 676 697 696 718 q 622 676 657 676 l 215 676 m 408 1025 q 344 965 378 997 q 279 906 311 933 q 215 927 240 906 q 189 982 189 949 q 202 1027 189 1008 q 247 1071 215 1046 l 297 1115 q 411 1165 363 1165 q 469 1153 443 1165 q 524 1113 496 1140 l 636 996 q 613 931 636 953 q 553 908 590 908 q 506 924 528 908 q 456 972 485 940 l 408 1025 z "},"Ë":{"ha":760,"x_min":103,"x_max":701,"o":"m 103 588 l 308 588 l 308 10 q 270 1 296 6 q 215 -3 244 -3 q 133 28 164 -3 q 103 110 103 58 l 103 588 m 308 254 l 103 254 l 103 731 q 133 813 103 782 q 215 843 164 843 q 270 839 244 843 q 308 831 296 835 l 308 254 m 215 347 l 215 513 l 635 513 q 649 478 643 499 q 656 432 656 457 q 636 367 656 388 q 583 347 617 347 l 215 347 m 215 -3 l 215 164 l 681 164 q 695 130 689 151 q 701 82 701 108 q 682 18 701 39 q 629 -3 663 -3 l 215 -3 m 215 676 l 215 843 l 674 843 q 689 808 682 829 q 696 763 696 788 q 676 697 696 718 q 622 676 657 676 l 215 676 m 368 1032 q 339 960 368 989 q 261 931 310 931 q 188 960 217 931 q 158 1032 158 989 q 188 1105 158 1075 q 261 1135 217 1135 q 339 1105 310 1135 q 368 1032 368 1075 m 651 1032 q 623 960 651 989 q 546 931 594 931 q 472 960 501 931 q 442 1032 442 989 q 472 1105 442 1075 q 546 1135 501 1135 q 623 1105 594 1135 q 651 1032 651 1075 z "},"Ì":{"ha":408,"x_min":-22,"x_max":310,"o":"m 99 586 l 310 586 l 310 1 q 269 -6 296 -1 q 213 -10 242 -10 q 124 13 150 -10 q 99 89 99 35 l 99 586 m 310 322 l 99 322 l 99 844 q 142 851 114 847 q 197 856 169 856 q 283 835 257 856 q 310 757 310 814 l 310 322 m 107 939 l -19 1036 q -22 1051 -21 1042 q -22 1065 -22 1060 q 3 1133 -22 1108 q 65 1158 28 1158 q 156 1114 111 1158 l 274 990 q 244 928 269 949 q 189 907 219 907 q 146 916 164 907 q 107 939 128 925 z "},"Í":{"ha":408,"x_min":99,"x_max":406,"o":"m 99 586 l 310 586 l 310 1 q 269 -6 296 -1 q 213 -10 242 -10 q 124 13 150 -10 q 99 89 99 35 l 99 586 m 310 322 l 99 322 l 99 844 q 142 851 114 847 q 197 856 169 856 q 283 835 257 856 q 310 757 310 814 l 310 322 m 146 1039 l 297 1167 q 377 1140 349 1165 q 406 1079 406 1115 q 394 1035 406 1056 q 349 993 382 1014 l 215 906 q 142 928 167 907 q 117 979 117 950 q 122 1009 117 994 q 146 1039 126 1024 z "},"Î":{"ha":408,"x_min":-15,"x_max":432,"o":"m 99 586 l 310 586 l 310 1 q 269 -6 296 -1 q 213 -10 242 -10 q 124 13 150 -10 q 99 89 99 35 l 99 586 m 310 322 l 99 322 l 99 844 q 142 851 114 847 q 197 856 169 856 q 283 835 257 856 q 310 757 310 814 l 310 322 m 204 1025 q 140 965 174 997 q 75 906 107 933 q 10 927 36 906 q -15 982 -15 949 q -2 1027 -15 1008 q 43 1071 11 1046 l 93 1115 q 207 1165 158 1165 q 265 1153 239 1165 q 319 1113 292 1140 l 432 996 q 409 931 432 953 q 349 908 386 908 q 302 924 324 908 q 251 972 281 940 l 204 1025 z "},"Ï":{"ha":408,"x_min":-49,"x_max":446,"o":"m 99 586 l 310 586 l 310 1 q 269 -6 296 -1 q 213 -10 242 -10 q 124 13 150 -10 q 99 89 99 35 l 99 586 m 310 322 l 99 322 l 99 844 q 142 851 114 847 q 197 856 169 856 q 283 835 257 856 q 310 757 310 814 l 310 322 m 163 1032 q 133 960 163 989 q 56 931 104 931 q -18 960 11 931 q -47 1032 -47 989 q -18 1105 -47 1075 q 56 1135 11 1135 q 133 1105 104 1135 q 163 1032 163 1075 m 446 1032 q 417 960 446 989 q 340 931 389 931 q 266 960 296 931 q 236 1032 236 989 q 266 1105 236 1075 q 340 1135 296 1135 q 417 1105 389 1135 q 446 1032 446 1075 z "},"Ð":{"ha":967,"x_min":25,"x_max":911,"o":"m 257 507 l 257 342 l 454 342 q 508 363 489 342 q 528 428 528 383 q 521 474 528 453 q 506 507 514 494 l 257 507 m 292 342 l 292 507 l 97 507 q 44 487 64 507 q 25 422 25 467 q 31 376 25 396 q 47 342 38 356 l 292 342 m 694 422 q 628 218 694 286 q 450 150 563 150 q 400 152 426 150 q 354 158 374 154 l 354 686 q 400 692 376 690 q 449 693 424 693 q 576 663 521 693 q 663 574 632 633 q 694 422 694 514 m 911 425 q 851 671 911 574 q 685 816 792 768 q 436 864 579 864 q 319 858 383 864 q 200 835 256 853 q 160 810 175 825 q 144 768 144 796 l 144 103 q 217 11 144 38 q 338 -15 271 -8 q 450 -21 404 -21 q 692 28 589 -21 q 853 176 796 78 q 911 425 911 275 z "},"Ñ":{"ha":936,"x_min":99,"x_max":838,"o":"m 99 604 l 290 606 q 299 489 296 547 q 301 376 301 431 q 301 271 301 322 l 301 1 q 263 -6 290 -1 q 208 -10 236 -10 q 124 11 149 -10 q 99 86 99 32 l 99 604 m 838 243 l 646 240 q 635 435 636 343 q 635 610 635 526 l 635 844 q 675 851 649 847 q 729 856 701 856 q 813 835 789 856 q 838 760 838 814 l 838 243 m 838 310 l 838 442 l 838 26 q 788 0 821 10 q 711 -10 756 -10 q 624 5 664 -10 q 557 72 583 19 l 388 393 q 357 456 372 425 q 328 517 342 486 q 300 579 314 547 l 99 535 l 99 806 q 151 842 117 829 q 226 854 186 854 q 315 839 274 854 q 381 772 356 824 l 551 450 q 583 390 568 421 q 611 327 597 358 q 638 264 625 296 l 838 310 m 344 1151 q 419 1141 383 1151 q 485 1120 454 1131 q 536 1110 515 1110 q 581 1127 565 1110 q 603 1160 596 1144 l 610 1160 q 678 1133 649 1160 q 707 1063 707 1107 q 671 978 707 1007 q 579 950 635 950 q 501 961 536 950 q 438 983 467 972 q 386 993 410 993 q 342 976 357 993 q 319 943 328 960 l 315 943 q 246 969 275 943 q 217 1039 217 994 q 235 1103 217 1078 q 284 1140 254 1128 q 344 1151 314 1151 z "},"Ò":{"ha":972,"x_min":56,"x_max":917,"o":"m 917 422 q 860 178 917 278 q 706 28 803 79 q 485 -24 608 -24 q 265 28 363 -24 q 111 178 167 79 q 56 422 56 278 q 113 666 56 567 q 267 816 169 765 q 485 867 364 867 q 704 816 607 867 q 859 666 801 765 q 917 422 917 567 m 700 422 q 642 626 700 557 q 485 696 583 696 q 331 626 389 696 q 272 422 272 557 q 331 217 272 286 q 486 147 389 147 q 642 217 583 147 q 700 422 700 286 m 406 939 l 279 1036 q 277 1051 278 1042 q 276 1065 276 1060 q 301 1133 276 1108 q 364 1158 326 1158 q 454 1114 410 1158 l 572 990 q 543 928 568 949 q 488 907 518 907 q 444 916 463 907 q 406 939 426 925 z "},"Ó":{"ha":972,"x_min":56,"x_max":917,"o":"m 917 422 q 860 178 917 278 q 706 28 803 79 q 485 -24 608 -24 q 265 28 363 -24 q 111 178 167 79 q 56 422 56 278 q 113 666 56 567 q 267 816 169 765 q 485 867 364 867 q 704 816 607 867 q 859 666 801 765 q 917 422 917 567 m 700 422 q 642 626 700 557 q 485 696 583 696 q 331 626 389 696 q 272 422 272 557 q 331 217 272 286 q 486 147 389 147 q 642 217 583 147 q 700 422 700 286 m 444 1039 l 596 1167 q 676 1140 647 1165 q 704 1079 704 1115 q 692 1035 704 1056 q 647 993 681 1014 l 514 906 q 440 928 465 907 q 415 979 415 950 q 420 1009 415 994 q 444 1039 425 1024 z "},"Ô":{"ha":972,"x_min":56,"x_max":917,"o":"m 917 422 q 860 178 917 278 q 706 28 803 79 q 485 -24 608 -24 q 265 28 363 -24 q 111 178 167 79 q 56 422 56 278 q 113 666 56 567 q 267 816 169 765 q 485 867 364 867 q 704 816 607 867 q 859 666 801 765 q 917 422 917 567 m 700 422 q 642 626 700 557 q 485 696 583 696 q 331 626 389 696 q 272 422 272 557 q 331 217 272 286 q 486 147 389 147 q 642 217 583 147 q 700 422 700 286 m 489 1025 q 425 965 458 997 q 360 906 392 933 q 295 927 321 906 q 269 982 269 949 q 283 1027 269 1008 q 328 1071 296 1046 l 378 1115 q 492 1165 443 1165 q 550 1153 524 1165 q 604 1113 576 1140 l 717 996 q 694 931 717 953 q 633 908 671 908 q 587 924 608 908 q 536 972 565 940 l 489 1025 z "},"Õ":{"ha":972,"x_min":56,"x_max":917,"o":"m 917 422 q 860 178 917 278 q 706 28 803 79 q 485 -24 608 -24 q 265 28 363 -24 q 111 178 167 79 q 56 422 56 278 q 113 666 56 567 q 267 816 169 765 q 485 867 364 867 q 704 816 607 867 q 859 666 801 765 q 917 422 917 567 m 700 422 q 642 626 700 557 q 485 696 583 696 q 331 626 389 696 q 272 422 272 557 q 331 217 272 286 q 486 147 389 147 q 642 217 583 147 q 700 422 700 286 m 371 1151 q 445 1141 410 1151 q 511 1120 481 1131 q 563 1110 542 1110 q 607 1127 592 1110 q 629 1160 622 1144 l 636 1160 q 704 1133 675 1160 q 733 1063 733 1107 q 697 978 733 1007 q 606 950 661 950 q 528 961 563 950 q 465 983 493 972 q 413 993 436 993 q 369 976 383 993 q 346 943 354 960 l 342 943 q 272 969 301 943 q 243 1039 243 994 q 262 1103 243 1078 q 310 1140 281 1128 q 371 1151 340 1151 z "},"Ö":{"ha":972,"x_min":56,"x_max":917,"o":"m 917 422 q 860 178 917 278 q 706 28 803 79 q 485 -24 608 -24 q 265 28 363 -24 q 111 178 167 79 q 56 422 56 278 q 113 666 56 567 q 267 816 169 765 q 485 867 364 867 q 704 816 607 867 q 859 666 801 765 q 917 422 917 567 m 700 422 q 642 626 700 557 q 485 696 583 696 q 331 626 389 696 q 272 422 272 557 q 331 217 272 286 q 486 147 389 147 q 642 217 583 147 q 700 422 700 286 m 447 1032 q 418 960 447 989 q 340 931 389 931 q 267 960 296 931 q 238 1032 238 989 q 267 1105 238 1075 q 340 1135 296 1135 q 418 1105 389 1135 q 447 1032 447 1075 m 731 1032 q 702 960 731 989 q 625 931 674 931 q 551 960 581 931 q 521 1032 521 989 q 551 1105 521 1075 q 625 1135 581 1135 q 702 1105 674 1135 q 731 1032 731 1075 z "},"×":{"ha":697,"x_min":51,"x_max":647,"o":"m 443 429 l 647 199 q 608 132 636 157 q 539 107 579 107 q 506 115 525 107 q 474 140 488 124 l 329 311 l 267 367 l 51 590 q 91 657 61 626 q 156 688 121 688 q 189 680 174 688 q 215 660 204 672 l 386 474 l 443 429 m 593 524 l 436 361 l 360 303 l 167 99 q 88 135 121 106 q 56 199 56 165 q 65 228 56 213 q 89 260 74 243 l 251 429 l 324 475 l 531 693 q 596 652 567 681 q 625 588 625 624 q 617 557 625 572 q 593 524 610 542 z "},"Ø":{"ha":972,"x_min":54,"x_max":917,"o":"m 265 97 l 149 -24 q 80 8 106 -14 q 54 63 54 31 q 66 104 54 85 q 107 150 78 124 l 153 194 l 265 97 m 856 694 l 813 653 l 719 767 l 817 868 q 884 835 858 858 q 910 782 910 811 q 894 738 910 760 q 856 694 879 717 m 728 572 l 317 143 l 251 281 l 632 683 l 728 572 m 917 422 q 860 178 917 278 q 706 28 803 79 q 485 -24 608 -24 q 266 30 364 -24 q 112 183 168 83 q 56 422 56 283 q 113 666 56 567 q 267 816 169 765 q 485 867 364 867 q 702 814 604 867 q 858 662 800 761 q 917 422 917 563 m 706 422 q 644 626 706 556 q 485 696 583 696 q 328 626 389 696 q 267 422 267 557 q 328 217 267 288 q 486 147 389 147 q 644 217 583 147 q 706 422 706 286 z "},"Ù":{"ha":917,"x_min":96,"x_max":822,"o":"m 458 -24 q 263 17 344 -24 q 139 132 182 58 q 96 304 96 206 l 96 396 l 306 396 l 306 310 q 349 190 306 233 q 458 147 392 147 q 568 190 525 147 q 611 310 611 233 l 611 396 l 822 396 l 822 304 q 778 132 822 206 q 653 17 735 58 q 458 -24 572 -24 m 306 354 l 96 354 l 96 844 q 138 851 110 847 q 193 856 165 856 q 279 835 253 856 q 306 757 306 814 l 306 354 m 822 351 l 611 351 l 611 844 q 653 851 625 847 q 708 856 682 856 q 795 835 768 856 q 822 757 822 814 l 822 351 m 358 939 l 232 1036 q 230 1051 231 1042 q 229 1065 229 1060 q 254 1133 229 1108 q 317 1158 279 1158 q 407 1114 363 1158 l 525 990 q 496 928 521 949 q 440 907 471 907 q 397 916 415 907 q 358 939 379 925 z "},"Ú":{"ha":917,"x_min":96,"x_max":822,"o":"m 458 -24 q 263 17 344 -24 q 139 132 182 58 q 96 304 96 206 l 96 396 l 306 396 l 306 310 q 349 190 306 233 q 458 147 392 147 q 568 190 525 147 q 611 310 611 233 l 611 396 l 822 396 l 822 304 q 778 132 822 206 q 653 17 735 58 q 458 -24 572 -24 m 306 354 l 96 354 l 96 844 q 138 851 110 847 q 193 856 165 856 q 279 835 253 856 q 306 757 306 814 l 306 354 m 822 351 l 611 351 l 611 844 q 653 851 625 847 q 708 856 682 856 q 795 835 768 856 q 822 757 822 814 l 822 351 m 411 1039 l 563 1167 q 642 1140 614 1165 q 671 1079 671 1115 q 659 1035 671 1056 q 614 993 647 1014 l 481 906 q 407 928 432 907 q 382 979 382 950 q 387 1009 382 994 q 411 1039 392 1024 z "},"Û":{"ha":917,"x_min":96,"x_max":822,"o":"m 458 -24 q 263 17 344 -24 q 139 132 182 58 q 96 304 96 206 l 96 396 l 306 396 l 306 310 q 349 190 306 233 q 458 147 392 147 q 568 190 525 147 q 611 310 611 233 l 611 396 l 822 396 l 822 304 q 778 132 822 206 q 653 17 735 58 q 458 -24 572 -24 m 306 354 l 96 354 l 96 844 q 138 851 110 847 q 193 856 165 856 q 279 835 253 856 q 306 757 306 814 l 306 354 m 822 351 l 611 351 l 611 844 q 653 851 625 847 q 708 856 682 856 q 795 835 768 856 q 822 757 822 814 l 822 351 m 465 1025 q 401 965 435 997 q 336 906 368 933 q 272 927 297 906 q 246 982 246 949 q 259 1027 246 1008 q 304 1071 272 1046 l 354 1115 q 468 1165 419 1165 q 526 1153 500 1165 q 581 1113 553 1140 l 693 996 q 670 931 693 953 q 610 908 647 908 q 563 924 585 908 q 513 972 542 940 l 465 1025 z "},"Ü":{"ha":917,"x_min":96,"x_max":822,"o":"m 458 -24 q 263 17 344 -24 q 139 132 182 58 q 96 304 96 206 l 96 396 l 306 396 l 306 310 q 349 190 306 233 q 458 147 392 147 q 568 190 525 147 q 611 310 611 233 l 611 396 l 822 396 l 822 304 q 778 132 822 206 q 653 17 735 58 q 458 -24 572 -24 m 306 354 l 96 354 l 96 844 q 138 851 110 847 q 193 856 165 856 q 279 835 253 856 q 306 757 306 814 l 306 354 m 822 351 l 611 351 l 611 844 q 653 851 625 847 q 708 856 682 856 q 795 835 768 856 q 822 757 822 814 l 822 351 m 418 1032 q 389 960 418 989 q 311 931 360 931 q 238 960 267 931 q 208 1032 208 989 q 238 1105 208 1075 q 311 1135 267 1135 q 389 1105 360 1135 q 418 1032 418 1075 m 701 1032 q 673 960 701 989 q 596 931 644 931 q 522 960 551 931 q 492 1032 492 989 q 522 1105 492 1075 q 596 1135 551 1135 q 673 1105 644 1135 q 701 1032 701 1075 z "},"Ý":{"ha":789,"x_min":13,"x_max":767,"o":"m 501 272 l 314 272 q 235 392 278 325 q 150 529 192 458 q 72 667 108 600 q 13 786 36 733 q 55 828 28 810 q 122 847 82 847 q 199 827 169 847 q 256 754 228 807 q 275 718 260 747 q 310 651 290 689 q 349 575 329 614 q 384 508 369 536 q 403 474 399 481 l 410 474 q 467 592 442 538 q 517 703 493 646 q 571 825 542 760 q 617 842 592 836 q 667 847 643 847 q 738 825 710 847 q 767 758 767 803 q 754 710 767 743 q 712 622 742 678 q 631 480 682 565 q 501 272 579 394 m 304 347 l 510 347 l 510 1 q 470 -6 497 -1 q 415 -10 443 -10 q 328 12 353 -10 q 304 88 304 33 l 304 347 m 335 1039 l 486 1167 q 566 1140 538 1165 q 594 1079 594 1115 q 583 1035 594 1056 q 538 993 571 1014 l 404 906 q 331 928 356 907 q 306 979 306 950 q 310 1009 306 994 q 335 1039 315 1024 z "},"Þ":{"ha":801,"x_min":93,"x_max":757,"o":"m 303 301 l 303 551 l 396 551 q 504 520 465 551 q 543 426 543 489 q 504 332 543 363 q 396 301 465 301 l 303 301 m 93 718 l 93 135 l 422 135 q 674 215 590 135 q 757 426 757 294 q 674 638 757 558 q 422 718 590 718 l 93 718 m 304 232 l 93 232 l 93 89 q 119 13 93 35 q 207 -10 146 -10 q 264 -6 236 -10 q 304 1 292 -1 l 304 232 m 93 583 l 304 583 l 304 757 q 277 835 304 814 q 190 856 250 856 q 136 851 164 856 q 93 844 108 847 l 93 583 z "},"ß":{"ha":850,"x_min":85,"x_max":804,"o":"m 289 394 l 85 394 l 85 638 q 128 808 85 740 q 244 908 171 875 q 408 940 318 940 q 578 903 504 940 q 693 799 651 867 q 735 638 735 732 q 686 553 735 576 l 635 528 q 601 504 613 517 q 590 472 590 492 q 602 442 590 456 q 638 417 614 429 q 731 357 694 388 q 786 288 768 326 q 804 196 804 249 q 733 33 804 89 q 551 -24 661 -24 q 420 3 469 -24 q 371 78 371 29 q 383 126 371 106 q 414 160 394 147 q 460 138 435 147 q 517 128 485 128 q 574 146 553 128 q 596 194 596 164 q 579 241 596 222 q 525 279 563 260 q 417 362 453 318 q 381 475 381 406 q 415 572 381 531 q 507 636 449 613 l 531 646 q 497 736 531 700 q 410 772 464 772 q 324 739 358 772 q 289 638 289 706 l 289 394 m 85 440 l 289 440 l 289 0 q 251 -7 276 -3 q 197 -11 226 -11 q 112 10 139 -11 q 85 85 85 31 l 85 440 z "},"à":{"ha":740,"x_min":44,"x_max":661,"o":"m 354 -21 q 128 34 213 -21 q 44 199 44 89 q 103 344 44 293 q 276 406 161 394 l 463 425 l 463 442 q 425 511 463 490 q 321 532 388 532 q 217 519 268 532 q 125 489 165 507 q 97 524 108 501 q 86 571 86 546 q 149 656 86 629 q 242 679 189 671 q 346 688 296 688 q 575 627 489 688 q 661 440 661 567 l 661 125 q 643 69 661 90 q 599 32 625 47 q 495 -7 557 7 q 354 -21 433 -21 m 354 131 q 417 138 386 131 q 463 153 449 144 l 463 286 l 344 276 q 270 256 297 272 q 243 206 243 239 q 269 151 243 171 q 354 131 296 131 m 293 765 l 158 893 q 156 908 157 899 q 156 922 156 917 q 181 990 156 965 q 246 1015 207 1015 q 292 1006 269 1015 q 335 971 314 996 l 458 817 q 428 753 454 774 q 374 732 403 732 q 330 740 347 732 q 293 765 313 749 z "},"á":{"ha":740,"x_min":44,"x_max":661,"o":"m 354 -21 q 128 34 213 -21 q 44 199 44 89 q 103 344 44 293 q 276 406 161 394 l 463 425 l 463 442 q 425 511 463 490 q 321 532 388 532 q 217 519 268 532 q 125 489 165 507 q 97 524 108 501 q 86 571 86 546 q 149 656 86 629 q 242 679 189 671 q 346 688 296 688 q 575 627 489 688 q 661 440 661 567 l 661 125 q 643 69 661 90 q 599 32 625 47 q 495 -7 557 7 q 354 -21 433 -21 m 354 131 q 417 138 386 131 q 463 153 449 144 l 463 286 l 344 276 q 270 256 297 272 q 243 206 243 239 q 269 151 243 171 q 354 131 296 131 m 304 871 l 443 1022 q 536 995 504 1022 q 568 933 568 968 q 556 886 568 906 q 513 842 543 867 l 382 729 q 303 755 331 729 q 275 810 275 781 q 281 839 275 825 q 304 871 288 853 z "},"â":{"ha":740,"x_min":44,"x_max":661,"o":"m 354 -21 q 128 34 213 -21 q 44 199 44 89 q 103 344 44 293 q 276 406 161 394 l 463 425 l 463 442 q 425 511 463 490 q 321 532 388 532 q 217 519 268 532 q 125 489 165 507 q 97 524 108 501 q 86 571 86 546 q 149 656 86 629 q 242 679 189 671 q 346 688 296 688 q 575 627 489 688 q 661 440 661 567 l 661 125 q 643 69 661 90 q 599 32 625 47 q 495 -7 557 7 q 354 -21 433 -21 m 354 131 q 417 138 386 131 q 463 153 449 144 l 463 286 l 344 276 q 270 256 297 272 q 243 206 243 239 q 269 151 243 171 q 354 131 296 131 m 431 789 l 365 867 q 306 799 331 826 q 251 738 281 772 q 176 760 204 738 q 147 815 147 782 q 161 858 147 840 q 201 903 175 876 l 258 961 q 308 999 282 985 q 369 1013 335 1013 q 428 1000 401 1013 q 489 947 456 988 l 592 821 q 572 764 592 788 q 511 740 551 740 q 469 753 488 740 q 431 789 450 767 z "},"ã":{"ha":740,"x_min":44,"x_max":661,"o":"m 354 -21 q 128 34 213 -21 q 44 199 44 89 q 103 344 44 293 q 276 406 161 394 l 463 425 l 463 442 q 425 511 463 490 q 321 532 388 532 q 217 519 268 532 q 125 489 165 507 q 97 524 108 501 q 86 571 86 546 q 149 656 86 629 q 242 679 189 671 q 346 688 296 688 q 575 627 489 688 q 661 440 661 567 l 661 125 q 643 69 661 90 q 599 32 625 47 q 495 -7 557 7 q 354 -21 433 -21 m 354 131 q 417 138 386 131 q 463 153 449 144 l 463 286 l 344 276 q 270 256 297 272 q 243 206 243 239 q 269 151 243 171 q 354 131 296 131 m 249 971 q 323 960 288 971 q 389 940 358 950 q 440 929 419 929 q 485 947 469 929 q 507 979 500 964 l 514 979 q 582 953 553 979 q 611 882 611 926 q 575 798 611 826 q 483 769 539 769 q 406 781 440 769 q 342 802 371 792 q 290 813 314 813 q 247 796 261 813 q 224 763 232 779 l 219 763 q 150 788 179 763 q 121 858 121 814 q 140 922 121 897 q 188 959 158 947 q 249 971 218 971 z "},"ä":{"ha":740,"x_min":44,"x_max":661,"o":"m 354 -21 q 128 34 213 -21 q 44 199 44 89 q 103 344 44 293 q 276 406 161 394 l 463 425 l 463 442 q 425 511 463 490 q 321 532 388 532 q 217 519 268 532 q 125 489 165 507 q 97 524 108 501 q 86 571 86 546 q 149 656 86 629 q 242 679 189 671 q 346 688 296 688 q 575 627 489 688 q 661 440 661 567 l 661 125 q 643 69 661 90 q 599 32 625 47 q 495 -7 557 7 q 354 -21 433 -21 m 354 131 q 417 138 386 131 q 463 153 449 144 l 463 286 l 344 276 q 270 256 297 272 q 243 206 243 239 q 269 151 243 171 q 354 131 296 131 m 336 865 q 307 793 336 822 q 229 764 278 764 q 156 793 185 764 q 126 865 126 822 q 156 938 126 908 q 229 968 185 968 q 307 938 278 968 q 336 865 336 908 m 619 865 q 591 793 619 822 q 514 764 563 764 q 440 793 469 764 q 410 865 410 822 q 440 938 410 908 q 514 968 469 968 q 591 938 563 968 q 619 865 619 908 z "},"å":{"ha":740,"x_min":44,"x_max":661,"o":"m 354 -21 q 128 34 213 -21 q 44 199 44 89 q 103 344 44 293 q 276 406 161 394 l 463 425 l 463 442 q 425 511 463 490 q 321 532 388 532 q 217 519 268 532 q 125 489 165 507 q 97 524 108 501 q 86 571 86 546 q 149 656 86 629 q 242 679 189 671 q 346 688 296 688 q 575 627 489 688 q 661 440 661 567 l 661 125 q 643 69 661 90 q 599 32 625 47 q 495 -7 557 7 q 354 -21 433 -21 m 354 131 q 417 138 386 131 q 463 153 449 144 l 463 286 l 344 276 q 270 256 297 272 q 243 206 243 239 q 269 151 243 171 q 354 131 296 131 m 193 881 q 240 986 193 943 q 367 1029 286 1029 q 499 986 451 1029 q 546 881 546 943 q 499 775 546 818 q 367 732 451 732 q 240 775 286 732 q 193 881 193 818 m 318 881 q 333 842 318 856 q 368 829 347 829 q 405 842 390 829 q 419 881 419 856 q 405 918 419 904 q 368 932 390 932 q 333 919 347 932 q 318 881 318 906 z "},"æ":{"ha":1147,"x_min":44,"x_max":1101,"o":"m 819 -21 q 574 67 665 -21 q 475 307 483 154 q 473 324 475 315 q 471 342 471 333 q 515 537 471 461 q 630 650 558 613 q 783 688 701 688 q 949 649 878 688 q 1061 546 1021 611 q 1101 394 1101 481 q 1078 330 1101 351 q 1014 301 1056 308 l 571 236 l 564 375 l 908 429 q 875 502 906 469 q 783 535 844 535 q 679 492 721 535 q 635 371 638 450 l 642 276 q 707 167 654 200 q 833 135 760 135 q 943 151 892 135 q 1025 186 994 167 q 1060 151 1046 174 q 1074 104 1074 129 q 1040 35 1074 63 q 950 -7 1007 7 q 819 -21 893 -21 m 354 131 q 417 138 386 131 q 463 153 449 144 l 463 286 l 344 276 q 270 256 297 272 q 243 206 243 239 q 269 151 243 171 q 354 131 296 131 m 351 -21 q 127 34 210 -21 q 44 199 44 89 q 103 344 44 293 q 276 406 161 394 l 463 425 l 463 442 q 425 511 463 490 q 321 532 388 532 q 217 519 268 532 q 125 489 165 507 q 97 524 108 501 q 86 571 86 546 q 149 656 86 629 q 242 679 189 671 q 346 688 296 688 q 550 625 479 688 q 621 440 621 563 l 621 122 q 606 65 621 88 q 569 31 590 42 q 480 -7 529 7 q 351 -21 431 -21 z "},"ç":{"ha":675,"x_min":50,"x_max":626,"o":"m 440 524 q 310 474 364 524 q 257 331 257 425 q 308 190 257 238 q 439 143 360 143 q 519 155 485 143 q 578 179 553 167 q 614 143 601 163 q 626 94 626 124 q 571 12 626 43 q 417 -19 515 -19 q 224 19 307 -19 q 95 138 140 58 q 50 331 50 217 q 99 530 50 451 q 231 648 149 608 q 411 688 314 688 q 562 653 507 688 q 617 567 617 618 q 605 522 617 542 q 578 488 593 501 q 517 513 551 501 q 440 524 483 524 m 319 6 l 431 46 q 500 -26 481 17 q 519 -117 519 -68 q 476 -231 519 -186 q 357 -276 432 -276 q 273 -251 304 -276 q 242 -181 242 -226 q 247 -142 242 -158 l 264 -142 q 328 -121 308 -142 q 347 -68 347 -100 q 341 -31 347 -51 q 319 6 335 -10 z "},"è":{"ha":753,"x_min":50,"x_max":707,"o":"m 176 236 l 168 375 l 514 429 q 479 502 510 469 q 389 535 449 535 q 283 492 325 535 q 240 371 242 450 l 246 276 q 313 167 260 200 q 438 135 365 135 q 547 151 496 135 q 631 186 599 167 q 664 151 650 174 q 678 104 678 129 q 645 35 678 63 q 555 -7 613 7 q 424 -21 497 -21 q 232 19 317 -21 q 99 140 147 60 q 50 342 50 221 q 78 496 50 431 q 153 603 106 561 q 262 667 201 646 q 388 688 322 688 q 555 649 483 688 q 667 546 626 611 q 707 394 707 481 q 683 330 707 351 q 618 301 660 308 l 176 236 m 303 765 l 168 893 q 166 908 167 899 q 165 922 165 917 q 191 990 165 965 q 256 1015 217 1015 q 301 1006 279 1015 q 344 971 324 996 l 468 817 q 438 753 464 774 q 383 732 413 732 q 340 740 357 732 q 303 765 322 749 z "},"é":{"ha":753,"x_min":50,"x_max":707,"o":"m 176 236 l 168 375 l 514 429 q 479 502 510 469 q 389 535 449 535 q 283 492 325 535 q 240 371 242 450 l 246 276 q 313 167 260 200 q 438 135 365 135 q 547 151 496 135 q 631 186 599 167 q 664 151 650 174 q 678 104 678 129 q 645 35 678 63 q 555 -7 613 7 q 424 -21 497 -21 q 232 19 317 -21 q 99 140 147 60 q 50 342 50 221 q 78 496 50 431 q 153 603 106 561 q 262 667 201 646 q 388 688 322 688 q 555 649 483 688 q 667 546 626 611 q 707 394 707 481 q 683 330 707 351 q 618 301 660 308 l 176 236 m 331 871 l 469 1022 q 563 995 531 1022 q 594 933 594 968 q 582 886 594 906 q 539 842 569 867 l 408 729 q 329 755 357 729 q 301 810 301 781 q 308 839 301 825 q 331 871 314 853 z "},"ê":{"ha":753,"x_min":50,"x_max":707,"o":"m 176 236 l 168 375 l 514 429 q 479 502 510 469 q 389 535 449 535 q 283 492 325 535 q 240 371 242 450 l 246 276 q 313 167 260 200 q 438 135 365 135 q 547 151 496 135 q 631 186 599 167 q 664 151 650 174 q 678 104 678 129 q 645 35 678 63 q 555 -7 613 7 q 424 -21 497 -21 q 232 19 317 -21 q 99 140 147 60 q 50 342 50 221 q 78 496 50 431 q 153 603 106 561 q 262 667 201 646 q 388 688 322 688 q 555 649 483 688 q 667 546 626 611 q 707 394 707 481 q 683 330 707 351 q 618 301 660 308 l 176 236 m 454 789 l 389 867 q 329 799 354 826 q 275 738 304 772 q 199 760 228 738 q 171 815 171 782 q 185 858 171 840 q 225 903 199 876 l 282 961 q 332 999 306 985 q 393 1013 358 1013 q 452 1000 425 1013 q 513 947 479 988 l 615 821 q 595 764 615 788 q 535 740 575 740 q 492 753 511 740 q 454 789 474 767 z "},"ë":{"ha":753,"x_min":50,"x_max":707,"o":"m 176 236 l 168 375 l 514 429 q 479 502 510 469 q 389 535 449 535 q 283 492 325 535 q 240 371 242 450 l 246 276 q 313 167 260 200 q 438 135 365 135 q 547 151 496 135 q 631 186 599 167 q 664 151 650 174 q 678 104 678 129 q 645 35 678 63 q 555 -7 613 7 q 424 -21 497 -21 q 232 19 317 -21 q 99 140 147 60 q 50 342 50 221 q 78 496 50 431 q 153 603 106 561 q 262 667 201 646 q 388 688 322 688 q 555 649 483 688 q 667 546 626 611 q 707 394 707 481 q 683 330 707 351 q 618 301 660 308 l 176 236 m 340 865 q 311 793 340 822 q 233 764 282 764 q 160 793 189 764 q 131 865 131 822 q 160 938 131 908 q 233 968 189 968 q 311 938 282 968 q 340 865 340 908 m 624 865 q 595 793 624 822 q 518 764 567 764 q 444 793 474 764 q 414 865 414 822 q 444 938 414 908 q 518 968 474 968 q 595 938 567 968 q 624 865 624 908 z "},"ì":{"ha":378,"x_min":-29,"x_max":292,"o":"m 86 388 l 292 388 l 292 0 q 253 -7 278 -3 q 200 -11 229 -11 q 114 10 142 -11 q 86 85 86 31 l 86 388 m 292 321 l 86 321 l 86 658 q 124 666 100 663 q 178 669 149 669 q 265 649 238 669 q 292 574 292 629 l 292 321 m 108 765 l -26 893 q -28 908 -28 899 q -29 922 -29 917 q -3 990 -29 965 q 60 1015 22 1015 q 107 1006 85 1015 q 150 971 129 996 l 274 817 q 244 753 269 774 q 188 732 218 732 q 144 740 163 732 q 108 765 126 749 z "},"í":{"ha":378,"x_min":86,"x_max":397,"o":"m 86 388 l 292 388 l 292 0 q 253 -7 278 -3 q 200 -11 229 -11 q 114 10 142 -11 q 86 85 86 31 l 86 388 m 292 321 l 86 321 l 86 658 q 124 666 100 663 q 178 669 149 669 q 265 649 238 669 q 292 574 292 629 l 292 321 m 133 871 l 272 1022 q 365 995 333 1022 q 397 933 397 968 q 385 886 397 906 q 343 842 372 867 l 213 729 q 132 755 160 729 q 104 810 104 781 q 110 839 104 825 q 133 871 117 853 z "},"î":{"ha":378,"x_min":-29,"x_max":414,"o":"m 86 388 l 292 388 l 292 0 q 253 -7 278 -3 q 200 -11 229 -11 q 114 10 142 -11 q 86 85 86 31 l 86 388 m 292 321 l 86 321 l 86 658 q 124 666 100 663 q 178 669 149 669 q 265 649 238 669 q 292 574 292 629 l 292 321 m 253 789 l 189 867 q 129 799 154 826 q 74 738 104 772 q -1 760 26 738 q -29 815 -29 782 q -15 858 -29 840 q 24 903 -1 876 l 81 961 q 131 999 106 985 q 192 1013 157 1013 q 252 1000 225 1013 q 311 947 279 988 l 414 821 q 394 764 414 788 q 333 740 375 740 q 291 753 310 740 q 253 789 272 767 z "},"ï":{"ha":378,"x_min":-60,"x_max":435,"o":"m 86 388 l 292 388 l 292 0 q 253 -7 278 -3 q 200 -11 229 -11 q 114 10 142 -11 q 86 85 86 31 l 86 388 m 292 321 l 86 321 l 86 658 q 124 666 100 663 q 178 669 149 669 q 265 649 238 669 q 292 574 292 629 l 292 321 m 151 865 q 122 792 151 822 q 44 763 92 763 q -31 792 -1 763 q -60 865 -60 822 q -31 938 -60 908 q 44 968 -1 968 q 122 938 92 968 q 151 865 151 908 m 435 865 q 406 792 435 822 q 331 763 376 763 q 255 792 285 763 q 225 865 225 822 q 255 938 225 908 q 331 968 285 968 q 406 938 376 968 q 435 865 435 908 z "},"ð":{"ha":796,"x_min":50,"x_max":746,"o":"m 522 768 l 454 740 l 201 647 q 169 683 183 660 q 156 732 156 706 q 199 790 156 772 l 297 831 l 419 879 l 613 957 q 646 921 631 944 q 661 872 661 897 q 649 830 661 844 q 615 807 636 815 l 522 768 m 571 546 l 547 392 q 487 451 524 429 q 406 472 450 472 q 297 428 333 472 q 260 310 260 383 q 296 187 260 232 q 401 142 332 142 q 502 188 469 142 q 535 314 535 235 q 530 390 535 356 q 515 460 525 425 q 514 497 513 481 q 517 528 515 513 q 511 560 518 543 q 454 659 485 615 q 372 744 424 703 q 344 768 361 754 q 314 790 326 782 q 240 829 279 814 q 154 860 200 844 q 186 942 158 915 q 256 969 214 969 q 374 944 313 969 q 493 872 435 918 q 513 855 503 863 q 533 838 522 847 q 641 705 593 781 q 717 540 689 629 q 746 354 746 451 q 708 158 746 243 q 594 26 671 74 q 400 -21 518 -21 q 144 68 239 -21 q 50 310 50 157 q 96 488 50 417 q 214 593 142 558 q 367 628 286 628 q 488 604 436 628 q 571 546 540 581 z "},"ñ":{"ha":801,"x_min":83,"x_max":721,"o":"m 721 432 l 721 301 l 517 301 l 517 425 q 486 501 517 478 q 407 525 456 525 q 343 517 372 525 q 289 496 314 508 l 289 301 l 85 301 l 85 518 q 99 576 85 553 q 143 617 114 599 q 256 667 188 647 q 408 688 325 688 q 640 622 558 688 q 721 432 721 556 m 85 365 l 289 365 l 289 1 q 251 -6 276 -1 q 197 -10 226 -10 q 112 11 139 -10 q 85 86 85 32 l 85 365 m 517 365 l 721 365 l 721 1 q 683 -6 708 -1 q 629 -10 658 -10 q 544 11 571 -10 q 517 86 517 32 l 517 365 m 285 971 q 359 960 324 971 q 425 940 394 950 q 476 929 456 929 q 521 947 506 929 q 543 979 536 964 l 550 979 q 618 953 589 979 q 647 882 647 926 q 611 798 647 826 q 519 769 575 769 q 442 781 476 769 q 378 802 407 792 q 326 813 350 813 q 283 796 297 813 q 260 763 268 779 l 256 763 q 186 788 215 763 q 157 858 157 814 q 176 922 157 897 q 224 959 194 947 q 285 971 254 971 z "},"ò":{"ha":803,"x_min":50,"x_max":753,"o":"m 753 333 q 710 145 753 225 q 588 22 667 65 q 401 -21 508 -21 q 215 22 294 -21 q 93 144 136 64 q 50 333 50 224 q 94 521 50 442 q 217 644 138 600 q 401 688 297 688 q 586 644 507 688 q 709 520 665 600 q 753 333 753 440 m 401 525 q 298 475 336 525 q 260 333 260 425 q 297 190 260 240 q 401 140 335 140 q 506 191 469 140 q 543 333 543 242 q 506 474 543 424 q 401 525 468 525 m 353 765 l 218 893 q 216 908 217 899 q 215 922 215 917 q 241 990 215 965 q 306 1015 267 1015 q 351 1006 329 1015 q 394 971 374 996 l 518 817 q 488 753 514 774 q 433 732 463 732 q 390 740 407 732 q 353 765 372 749 z "},"ó":{"ha":803,"x_min":50,"x_max":753,"o":"m 753 333 q 710 145 753 225 q 588 22 667 65 q 401 -21 508 -21 q 215 22 294 -21 q 93 144 136 64 q 50 333 50 224 q 94 521 50 442 q 217 644 138 600 q 401 688 297 688 q 586 644 507 688 q 709 520 665 600 q 753 333 753 440 m 401 525 q 298 475 336 525 q 260 333 260 425 q 297 190 260 240 q 401 140 335 140 q 506 191 469 140 q 543 333 543 242 q 506 474 543 424 q 401 525 468 525 m 319 871 l 458 1022 q 551 995 519 1022 q 583 933 583 968 q 571 886 583 906 q 528 842 558 867 l 397 729 q 318 755 346 729 q 290 810 290 781 q 297 839 290 825 q 319 871 303 853 z "},"ô":{"ha":803,"x_min":50,"x_max":753,"o":"m 753 333 q 710 145 753 225 q 588 22 667 65 q 401 -21 508 -21 q 215 22 294 -21 q 93 144 136 64 q 50 333 50 224 q 94 521 50 442 q 217 644 138 600 q 401 688 297 688 q 586 644 507 688 q 709 520 665 600 q 753 333 753 440 m 401 525 q 298 475 336 525 q 260 333 260 425 q 297 190 260 240 q 401 140 335 140 q 506 191 469 140 q 543 333 543 242 q 506 474 543 424 q 401 525 468 525 m 464 789 l 399 867 q 339 799 364 826 q 285 738 314 772 q 209 760 238 738 q 181 815 181 782 q 194 858 181 840 q 235 903 208 876 l 292 961 q 342 999 315 985 q 403 1013 368 1013 q 462 1000 435 1013 q 522 947 489 988 l 625 821 q 605 764 625 788 q 544 740 585 740 q 502 753 521 740 q 464 789 483 767 z "},"õ":{"ha":803,"x_min":50,"x_max":753,"o":"m 753 333 q 710 145 753 225 q 588 22 667 65 q 401 -21 508 -21 q 215 22 294 -21 q 93 144 136 64 q 50 333 50 224 q 94 521 50 442 q 217 644 138 600 q 401 688 297 688 q 586 644 507 688 q 709 520 665 600 q 753 333 753 440 m 401 525 q 298 475 336 525 q 260 333 260 425 q 297 190 260 240 q 401 140 335 140 q 506 191 469 140 q 543 333 543 242 q 506 474 543 424 q 401 525 468 525 m 288 971 q 362 960 326 971 q 428 940 397 950 q 479 929 458 929 q 524 947 508 929 q 546 979 539 964 l 553 979 q 621 953 592 979 q 650 882 650 926 q 614 798 650 826 q 522 769 578 769 q 444 781 479 769 q 381 802 410 792 q 329 813 353 813 q 285 796 300 813 q 263 763 271 779 l 258 763 q 189 788 218 763 q 160 858 160 814 q 178 922 160 897 q 227 959 197 947 q 288 971 257 971 z "},"ö":{"ha":803,"x_min":50,"x_max":753,"o":"m 753 333 q 710 145 753 225 q 588 22 667 65 q 401 -21 508 -21 q 215 22 294 -21 q 93 144 136 64 q 50 333 50 224 q 94 521 50 442 q 217 644 138 600 q 401 688 297 688 q 586 644 507 688 q 709 520 665 600 q 753 333 753 440 m 401 525 q 298 475 336 525 q 260 333 260 425 q 297 190 260 240 q 401 140 335 140 q 506 191 469 140 q 543 333 543 242 q 506 474 543 424 q 401 525 468 525 m 364 865 q 335 793 364 822 q 257 764 306 764 q 183 793 213 764 q 154 865 154 822 q 183 938 154 908 q 257 968 213 968 q 335 938 306 968 q 364 865 364 908 m 647 865 q 619 793 647 822 q 542 764 590 764 q 467 793 497 764 q 438 865 438 822 q 467 938 438 908 q 542 968 497 968 q 619 938 590 968 q 647 865 647 908 z "},"÷":{"ha":728,"x_min":49,"x_max":679,"o":"m 604 324 l 69 324 q 55 358 61 338 q 49 401 49 378 q 70 466 49 446 q 125 486 92 486 l 660 486 q 673 451 667 474 q 679 406 679 429 q 658 342 679 361 q 604 324 638 324 m 267 172 q 294 244 267 215 q 368 274 322 274 q 440 244 414 274 q 467 172 467 215 q 440 100 467 129 q 368 71 414 71 q 294 100 322 71 q 267 172 267 129 m 267 636 q 294 710 267 681 q 368 739 322 739 q 440 710 414 739 q 467 636 467 681 q 440 565 467 593 q 368 536 414 536 q 294 565 322 536 q 267 636 267 593 z "},"ø":{"ha":803,"x_min":50,"x_max":753,"o":"m 606 538 l 532 626 l 615 751 q 652 743 632 751 q 687 722 672 735 q 701 689 701 708 q 692 661 701 676 l 606 538 m 292 65 l 189 -85 q 151 -76 171 -85 q 117 -53 131 -67 q 103 -22 103 -39 q 114 7 103 -8 l 188 115 l 292 65 m 317 108 l 251 206 l 475 540 l 574 496 l 317 108 m 753 333 q 710 145 753 225 q 588 22 667 65 q 401 -21 508 -21 q 216 22 296 -21 q 93 144 136 64 q 50 333 50 224 q 94 521 50 442 q 217 644 138 600 q 401 688 297 688 q 586 644 507 688 q 709 520 665 600 q 753 333 753 440 m 401 528 q 291 478 336 528 q 246 333 246 429 q 290 190 246 240 q 401 139 333 139 q 513 188 469 139 q 557 333 557 236 q 513 478 557 428 q 401 528 468 528 z "},"ù":{"ha":797,"x_min":81,"x_max":717,"o":"m 81 260 l 81 360 l 285 360 l 285 261 q 318 169 285 197 q 411 140 351 140 q 474 147 449 140 q 513 163 500 154 l 513 360 l 717 360 l 717 138 q 704 81 717 104 q 663 39 692 57 q 553 -5 618 11 q 410 -21 489 -21 q 237 8 311 -21 q 122 99 163 38 q 81 260 81 161 m 717 297 l 513 297 l 513 664 q 550 672 525 668 q 604 676 575 676 q 690 656 664 676 q 717 579 717 636 l 717 297 m 285 297 l 81 297 l 81 664 q 118 672 93 668 q 172 676 143 676 q 258 656 232 676 q 285 579 285 636 l 285 297 m 307 765 l 172 893 q 170 908 171 899 q 169 922 169 917 q 195 990 169 965 q 260 1015 221 1015 q 306 1006 283 1015 q 349 971 328 996 l 472 817 q 442 753 468 774 q 388 732 417 732 q 344 740 361 732 q 307 765 326 749 z "},"ú":{"ha":797,"x_min":81,"x_max":717,"o":"m 81 260 l 81 360 l 285 360 l 285 261 q 318 169 285 197 q 411 140 351 140 q 474 147 449 140 q 513 163 500 154 l 513 360 l 717 360 l 717 138 q 704 81 717 104 q 663 39 692 57 q 553 -5 618 11 q 410 -21 489 -21 q 237 8 311 -21 q 122 99 163 38 q 81 260 81 161 m 717 297 l 513 297 l 513 664 q 550 672 525 668 q 604 676 575 676 q 690 656 664 676 q 717 579 717 636 l 717 297 m 285 297 l 81 297 l 81 664 q 118 672 93 668 q 172 676 143 676 q 258 656 232 676 q 285 579 285 636 l 285 297 m 356 871 l 494 1022 q 588 995 556 1022 q 619 933 619 968 q 607 886 619 906 q 564 842 594 867 l 433 729 q 354 755 382 729 q 326 810 326 781 q 333 839 326 825 q 356 871 339 853 z "},"û":{"ha":797,"x_min":81,"x_max":717,"o":"m 81 260 l 81 360 l 285 360 l 285 261 q 318 169 285 197 q 411 140 351 140 q 474 147 449 140 q 513 163 500 154 l 513 360 l 717 360 l 717 138 q 704 81 717 104 q 663 39 692 57 q 553 -5 618 11 q 410 -21 489 -21 q 237 8 311 -21 q 122 99 163 38 q 81 260 81 161 m 717 297 l 513 297 l 513 664 q 550 672 525 668 q 604 676 575 676 q 690 656 664 676 q 717 579 717 636 l 717 297 m 285 297 l 81 297 l 81 664 q 118 672 93 668 q 172 676 143 676 q 258 656 232 676 q 285 579 285 636 l 285 297 m 461 789 l 396 867 q 336 799 361 826 q 282 738 311 772 q 206 760 235 738 q 178 815 178 782 q 192 858 178 840 q 232 903 206 876 l 289 961 q 339 999 313 985 q 400 1013 365 1013 q 459 1000 432 1013 q 519 947 486 988 l 622 821 q 602 764 622 788 q 542 740 582 740 q 499 753 518 740 q 461 789 481 767 z "},"ü":{"ha":797,"x_min":81,"x_max":717,"o":"m 81 260 l 81 360 l 285 360 l 285 261 q 318 169 285 197 q 411 140 351 140 q 474 147 449 140 q 513 163 500 154 l 513 360 l 717 360 l 717 138 q 704 81 717 104 q 663 39 692 57 q 553 -5 618 11 q 410 -21 489 -21 q 237 8 311 -21 q 122 99 163 38 q 81 260 81 161 m 717 297 l 513 297 l 513 664 q 550 672 525 668 q 604 676 575 676 q 690 656 664 676 q 717 579 717 636 l 717 297 m 285 297 l 81 297 l 81 664 q 118 672 93 668 q 172 676 143 676 q 258 656 232 676 q 285 579 285 636 l 285 297 m 358 865 q 329 793 358 822 q 251 764 300 764 q 178 793 207 764 q 149 865 149 822 q 178 938 149 908 q 251 968 207 968 q 329 938 300 968 q 358 865 358 908 m 642 865 q 613 793 642 822 q 536 764 585 764 q 462 793 492 764 q 432 865 432 822 q 462 938 432 908 q 536 968 492 968 q 613 938 585 968 q 642 865 642 908 z "},"ý":{"ha":744,"x_min":32,"x_max":707,"o":"m 192 165 q 144 276 171 211 q 90 431 118 342 q 32 636 63 519 q 77 667 49 654 q 139 681 106 681 q 210 663 182 681 q 251 594 238 644 q 315 393 282 493 q 381 190 347 293 l 386 190 q 434 332 410 253 q 480 496 458 411 q 515 658 501 581 q 557 674 535 668 q 603 681 579 681 q 676 662 646 681 q 707 599 707 643 q 696 503 707 560 q 665 380 685 446 q 619 245 644 314 q 564 113 593 176 q 506 -3 535 49 q 367 -198 431 -133 q 243 -262 304 -262 q 160 -233 193 -262 q 122 -156 128 -203 q 183 -97 151 -129 q 245 -27 215 -64 q 297 46 275 10 q 248 76 274 53 q 192 165 222 100 m 294 871 l 433 1022 q 526 995 494 1022 q 558 933 558 968 q 546 886 558 906 q 503 842 533 867 l 372 729 q 293 755 321 729 q 265 810 265 781 q 272 839 265 825 q 294 871 278 853 z "},"þ":{"ha":804,"x_min":83,"x_max":753,"o":"m 413 -19 q 319 -7 361 -19 q 246 22 278 6 l 246 196 q 304 159 271 175 q 382 143 338 143 q 501 192 458 143 q 543 338 543 240 q 524 445 543 404 q 469 506 504 486 q 389 525 433 525 q 321 515 356 525 q 251 478 286 504 l 242 644 q 315 673 269 658 q 418 688 361 688 q 586 651 511 688 q 707 537 661 614 q 753 338 753 460 q 708 140 753 219 q 588 21 664 61 q 413 -19 511 -19 m 196 -249 q 110 -228 138 -249 q 83 -151 83 -207 l 83 126 l 288 126 l 288 -236 q 250 -244 275 -240 q 196 -249 225 -249 m 83 75 l 83 904 q 121 913 96 908 q 175 917 146 917 q 261 896 235 917 q 288 821 288 875 l 288 75 l 83 75 z "},"ÿ":{"ha":744,"x_min":32,"x_max":707,"o":"m 192 165 q 144 276 171 211 q 90 431 118 342 q 32 636 63 519 q 77 667 49 654 q 139 681 106 681 q 210 663 182 681 q 251 594 238 644 q 315 393 282 493 q 381 190 347 293 l 386 190 q 434 332 410 253 q 480 496 458 411 q 515 658 501 581 q 557 674 535 668 q 603 681 579 681 q 676 662 646 681 q 707 599 707 643 q 696 503 707 560 q 665 380 685 446 q 619 245 644 314 q 564 113 593 176 q 506 -3 535 49 q 367 -198 431 -133 q 243 -262 304 -262 q 160 -233 193 -262 q 122 -156 128 -203 q 183 -97 151 -129 q 245 -27 215 -64 q 297 46 275 10 q 248 76 274 53 q 192 165 222 100 m 331 865 q 301 793 331 822 q 224 764 272 764 q 150 793 179 764 q 121 865 121 822 q 150 938 121 908 q 224 968 179 968 q 301 938 272 968 q 331 865 331 908 m 614 865 q 585 793 614 822 q 508 764 557 764 q 434 793 464 764 q 404 865 404 822 q 434 938 404 908 q 508 968 464 968 q 585 938 557 968 q 614 865 614 908 z "},"Ā":{"ha":858,"x_min":35,"x_max":831,"o":"m 579 961 l 224 961 q 210 995 218 975 q 203 1038 203 1015 q 222 1100 203 1082 q 271 1118 240 1118 l 626 1118 q 641 1085 636 1106 q 646 1042 646 1064 q 628 979 646 997 q 579 961 610 961 m 438 668 l 429 668 q 397 569 415 624 q 358 456 378 515 q 319 338 338 396 l 294 214 q 278 158 286 188 q 263 101 271 129 q 247 47 254 72 q 235 0 240 22 q 199 -9 218 -4 q 153 -14 179 -14 q 65 7 96 -14 q 35 67 35 28 q 40 103 35 85 q 51 144 44 121 q 87 259 64 189 q 138 410 110 329 q 193 570 165 490 q 245 717 221 650 q 285 821 269 783 q 347 844 306 833 q 431 854 389 854 q 537 838 490 854 q 596 782 583 821 q 654 612 624 708 q 717 410 685 515 q 778 205 749 304 q 831 26 808 106 q 788 -1 817 10 q 719 -12 758 -12 q 638 8 661 -12 q 603 69 615 28 l 558 226 l 535 343 q 499 465 517 406 q 465 576 481 524 q 438 668 450 628 m 203 188 l 285 351 l 610 351 l 638 188 l 203 188 z "},"ā":{"ha":740,"x_min":44,"x_max":661,"o":"m 354 -21 q 128 34 213 -21 q 44 199 44 89 q 103 344 44 293 q 276 406 161 394 l 463 425 l 463 442 q 425 511 463 490 q 321 532 388 532 q 217 519 268 532 q 125 489 165 507 q 97 524 108 501 q 86 571 86 546 q 149 656 86 629 q 242 679 189 671 q 346 688 296 688 q 575 627 489 688 q 661 440 661 567 l 661 125 q 643 69 661 90 q 599 32 625 47 q 495 -7 557 7 q 354 -21 433 -21 m 354 131 q 417 138 386 131 q 463 153 449 144 l 463 286 l 344 276 q 270 256 297 272 q 243 206 243 239 q 269 151 243 171 q 354 131 296 131 m 535 786 l 179 786 q 166 819 174 799 q 158 861 158 839 q 177 924 158 906 q 226 942 196 942 l 582 942 q 597 908 592 929 q 601 865 601 888 q 583 803 601 821 q 535 786 565 786 z "},"Ă":{"ha":858,"x_min":35,"x_max":831,"o":"m 438 668 l 429 668 q 397 569 415 624 q 358 456 378 515 q 319 338 338 396 l 294 214 q 278 158 286 188 q 263 101 271 129 q 247 47 254 72 q 235 0 240 22 q 199 -9 218 -4 q 153 -14 179 -14 q 65 7 96 -14 q 35 67 35 28 q 40 103 35 85 q 51 144 44 121 q 87 259 64 189 q 138 410 110 329 q 193 570 165 490 q 245 717 221 650 q 285 821 269 783 q 347 844 306 833 q 431 854 389 854 q 537 838 490 854 q 596 782 583 821 q 654 612 624 708 q 717 410 685 515 q 778 205 749 304 q 831 26 808 106 q 788 -1 817 10 q 719 -12 758 -12 q 638 8 661 -12 q 603 69 615 28 l 558 226 l 535 343 q 499 465 517 406 q 465 576 481 524 q 438 668 450 628 m 203 188 l 285 351 l 610 351 l 638 188 l 203 188 m 433 1071 q 503 1092 476 1071 q 539 1149 531 1114 q 551 1150 546 1150 q 564 1150 557 1150 q 635 1123 611 1150 q 658 1063 658 1096 q 600 963 658 1004 q 433 921 542 921 q 265 963 324 921 q 207 1063 207 1004 q 231 1123 207 1096 q 303 1150 256 1150 q 315 1150 310 1150 q 328 1149 321 1150 q 363 1092 335 1114 q 433 1071 390 1071 z "},"ă":{"ha":740,"x_min":44,"x_max":661,"o":"m 354 -21 q 128 34 213 -21 q 44 199 44 89 q 103 344 44 293 q 276 406 161 394 l 463 425 l 463 442 q 425 511 463 490 q 321 532 388 532 q 217 519 268 532 q 125 489 165 507 q 97 524 108 501 q 86 571 86 546 q 149 656 86 629 q 242 679 189 671 q 346 688 296 688 q 575 627 489 688 q 661 440 661 567 l 661 125 q 643 69 661 90 q 599 32 625 47 q 495 -7 557 7 q 354 -21 433 -21 m 354 131 q 417 138 386 131 q 463 153 449 144 l 463 286 l 344 276 q 270 256 297 272 q 243 206 243 239 q 269 151 243 171 q 354 131 296 131 m 371 914 q 441 935 414 914 q 476 992 468 957 q 489 993 483 993 q 501 993 494 993 q 572 966 549 993 q 596 906 596 939 q 538 806 596 847 q 371 764 479 764 q 203 806 261 764 q 144 906 144 847 q 169 966 144 939 q 240 993 193 993 q 253 993 247 993 q 265 992 258 993 q 300 935 272 957 q 371 914 328 914 z "},"Ą":{"ha":858,"x_min":35,"x_max":851,"o":"m 653 15 l 808 14 q 769 -19 786 0 q 753 -69 753 -39 q 774 -116 753 -99 q 832 -133 794 -133 l 842 -133 q 849 -157 846 -144 q 851 -185 851 -169 q 826 -247 851 -219 q 736 -275 801 -275 q 615 -237 663 -275 q 567 -131 567 -199 q 581 -63 567 -93 q 615 -13 596 -33 q 653 15 635 7 m 438 668 l 429 668 q 397 569 415 624 q 358 456 378 515 q 319 338 338 396 l 294 214 q 278 158 286 188 q 263 101 271 129 q 247 47 254 72 q 235 0 240 22 q 199 -9 218 -4 q 153 -14 179 -14 q 65 7 96 -14 q 35 67 35 28 q 40 103 35 85 q 51 144 44 121 q 87 259 64 189 q 138 410 110 329 q 193 570 165 490 q 245 717 221 650 q 285 821 269 783 q 347 844 306 833 q 431 854 389 854 q 537 838 490 854 q 596 782 583 821 q 654 612 624 708 q 717 410 685 515 q 778 205 749 304 q 831 26 808 106 q 788 -1 817 10 q 719 -12 758 -12 q 638 8 661 -12 q 603 69 615 28 l 558 226 l 535 343 q 499 465 517 406 q 465 576 481 524 q 438 668 450 628 m 203 188 l 285 351 l 610 351 l 638 188 l 203 188 z "},"ą":{"ha":740,"x_min":44,"x_max":661,"o":"m 449 8 l 619 46 q 567 -4 588 21 q 546 -69 546 -29 q 567 -116 546 -99 q 624 -133 588 -133 l 635 -133 q 642 -157 639 -144 q 644 -185 644 -169 q 619 -247 644 -219 q 528 -275 593 -275 q 408 -237 456 -275 q 360 -131 360 -199 q 390 -40 360 -75 q 449 8 419 -6 m 354 -21 q 128 34 213 -21 q 44 199 44 89 q 103 344 44 293 q 276 406 161 394 l 463 425 l 463 442 q 425 511 463 490 q 321 532 388 532 q 217 519 268 532 q 125 489 165 507 q 97 524 108 501 q 86 571 86 546 q 149 656 86 629 q 242 679 189 671 q 346 688 296 688 q 575 627 489 688 q 661 440 661 567 l 661 125 q 643 69 661 90 q 599 32 625 47 q 495 -7 557 7 q 354 -21 433 -21 m 354 131 q 417 138 386 131 q 463 153 449 144 l 463 286 l 344 276 q 270 256 297 272 q 243 206 243 239 q 269 151 243 171 q 354 131 296 131 z "},"Ć":{"ha":799,"x_min":56,"x_max":753,"o":"m 749 728 q 732 673 749 697 q 694 636 715 649 q 616 678 660 660 q 513 696 572 696 q 384 664 438 696 q 301 570 331 632 q 272 421 272 508 q 340 217 272 286 q 522 147 407 147 q 626 164 583 147 q 706 203 669 181 q 740 163 726 188 q 753 107 753 139 q 738 56 753 79 q 689 17 724 33 q 615 -10 663 3 q 496 -24 567 -24 q 274 24 374 -24 q 115 171 174 72 q 56 421 56 269 q 113 665 56 565 q 269 815 171 764 q 483 867 367 867 q 625 848 565 867 q 717 798 685 829 q 749 728 749 767 m 397 1039 l 549 1167 q 628 1140 600 1165 q 657 1079 657 1115 q 645 1035 657 1056 q 600 993 633 1014 l 467 906 q 393 928 418 907 q 368 979 368 950 q 373 1009 368 994 q 397 1039 378 1024 z "},"ć":{"ha":675,"x_min":50,"x_max":626,"o":"m 440 524 q 310 474 364 524 q 257 331 257 425 q 308 190 257 238 q 439 143 360 143 q 519 155 485 143 q 578 179 553 167 q 614 143 601 163 q 626 94 626 124 q 571 12 626 43 q 417 -19 515 -19 q 224 19 307 -19 q 95 138 140 58 q 50 331 50 217 q 99 530 50 451 q 231 648 149 608 q 411 688 314 688 q 562 653 507 688 q 617 567 617 618 q 605 522 617 542 q 578 488 593 501 q 517 513 551 501 q 440 524 483 524 m 325 871 l 464 1022 q 557 995 525 1022 q 589 933 589 968 q 576 886 589 906 q 533 842 564 867 l 403 729 q 324 755 351 729 q 296 810 296 781 q 302 839 296 825 q 325 871 308 853 z "},"Ĉ":{"ha":799,"x_min":56,"x_max":753,"o":"m 749 728 q 732 673 749 697 q 694 636 715 649 q 616 678 660 660 q 513 696 572 696 q 384 664 438 696 q 301 570 331 632 q 272 421 272 508 q 340 217 272 286 q 522 147 407 147 q 626 164 583 147 q 706 203 669 181 q 740 163 726 188 q 753 107 753 139 q 738 56 753 79 q 689 17 724 33 q 615 -10 663 3 q 496 -24 567 -24 q 274 24 374 -24 q 115 171 174 72 q 56 421 56 269 q 113 665 56 565 q 269 815 171 764 q 483 867 367 867 q 625 848 565 867 q 717 798 685 829 q 749 728 749 767 m 468 1025 q 404 965 438 997 q 339 906 371 933 q 274 927 300 906 q 249 982 249 949 q 262 1027 249 1008 q 307 1071 275 1046 l 357 1115 q 471 1165 422 1165 q 529 1153 503 1165 q 583 1113 556 1140 l 696 996 q 673 931 696 953 q 613 908 650 908 q 566 924 588 908 q 515 972 544 940 l 468 1025 z "},"ĉ":{"ha":675,"x_min":50,"x_max":626,"o":"m 440 524 q 310 474 364 524 q 257 331 257 425 q 308 190 257 238 q 439 143 360 143 q 519 155 485 143 q 578 179 553 167 q 614 143 601 163 q 626 94 626 124 q 571 12 626 43 q 417 -19 515 -19 q 224 19 307 -19 q 95 138 140 58 q 50 331 50 217 q 99 530 50 451 q 231 648 149 608 q 411 688 314 688 q 562 653 507 688 q 617 567 617 618 q 605 522 617 542 q 578 488 593 501 q 517 513 551 501 q 440 524 483 524 m 447 789 l 382 867 q 322 799 347 826 q 268 738 297 772 q 192 760 221 738 q 164 815 164 782 q 178 858 164 840 q 218 903 192 876 l 275 961 q 325 999 299 985 q 386 1013 351 1013 q 445 1000 418 1013 q 506 947 472 988 l 608 821 q 588 764 608 788 q 528 740 568 740 q 485 753 504 740 q 447 789 467 767 z "},"Ċ":{"ha":799,"x_min":56,"x_max":753,"o":"m 749 728 q 732 673 749 697 q 694 636 715 649 q 616 678 660 660 q 513 696 572 696 q 384 664 438 696 q 301 570 331 632 q 272 421 272 508 q 340 217 272 286 q 522 147 407 147 q 626 164 583 147 q 706 203 669 181 q 740 163 726 188 q 753 107 753 139 q 738 56 753 79 q 689 17 724 33 q 615 -10 663 3 q 496 -24 567 -24 q 274 24 374 -24 q 115 171 174 72 q 56 421 56 269 q 113 665 56 565 q 269 815 171 764 q 483 867 367 867 q 625 848 565 867 q 717 798 685 829 q 749 728 749 767 m 582 1046 q 551 969 582 1000 q 471 938 521 938 q 390 969 421 938 q 360 1046 360 1000 q 390 1123 360 1092 q 469 1154 421 1154 q 551 1123 521 1154 q 582 1046 582 1092 z "},"ċ":{"ha":675,"x_min":50,"x_max":626,"o":"m 440 524 q 310 474 364 524 q 257 331 257 425 q 308 190 257 238 q 439 143 360 143 q 519 155 485 143 q 578 179 553 167 q 614 143 601 163 q 626 94 626 124 q 571 12 626 43 q 417 -19 515 -19 q 224 19 307 -19 q 95 138 140 58 q 50 331 50 217 q 99 530 50 451 q 231 648 149 608 q 411 688 314 688 q 562 653 507 688 q 617 567 617 618 q 605 522 617 542 q 578 488 593 501 q 517 513 551 501 q 440 524 483 524 m 496 869 q 465 792 496 824 q 385 761 435 761 q 304 792 335 761 q 274 869 274 824 q 304 947 274 915 q 383 978 335 978 q 465 947 435 978 q 496 869 496 915 z "},"Č":{"ha":799,"x_min":56,"x_max":753,"o":"m 749 728 q 732 673 749 697 q 694 636 715 649 q 616 678 660 660 q 513 696 572 696 q 384 664 438 696 q 301 570 331 632 q 272 421 272 508 q 340 217 272 286 q 522 147 407 147 q 626 164 583 147 q 706 203 669 181 q 740 163 726 188 q 753 107 753 139 q 738 56 753 79 q 689 17 724 33 q 615 -10 663 3 q 496 -24 567 -24 q 274 24 374 -24 q 115 171 174 72 q 56 421 56 269 q 113 665 56 565 q 269 815 171 764 q 483 867 367 867 q 625 848 565 867 q 717 798 685 829 q 749 728 749 767 m 475 1044 q 540 1106 507 1075 q 606 1165 574 1138 q 671 1143 644 1165 q 697 1088 697 1121 q 684 1042 697 1061 q 639 997 671 1022 l 589 954 q 530 917 554 928 q 475 907 506 907 q 412 921 439 907 q 361 958 385 935 l 246 1067 q 267 1136 246 1111 q 326 1161 288 1161 q 373 1148 351 1161 q 429 1097 394 1135 l 475 1044 z "},"č":{"ha":675,"x_min":50,"x_max":626,"o":"m 440 524 q 310 474 364 524 q 257 331 257 425 q 308 190 257 238 q 439 143 360 143 q 519 155 485 143 q 578 179 553 167 q 614 143 601 163 q 626 94 626 124 q 571 12 626 43 q 417 -19 515 -19 q 224 19 307 -19 q 95 138 140 58 q 50 331 50 217 q 99 530 50 451 q 231 648 149 608 q 411 688 314 688 q 562 653 507 688 q 617 567 617 618 q 605 522 617 542 q 578 488 593 501 q 517 513 551 501 q 440 524 483 524 m 324 947 l 379 886 l 504 1007 q 579 984 551 1007 q 607 926 607 961 q 593 882 607 900 q 549 839 579 864 l 481 778 q 433 748 457 757 q 382 739 408 739 q 343 743 361 739 q 305 761 325 747 q 256 800 285 775 l 149 900 q 151 947 144 922 q 176 988 157 971 q 225 1004 194 1004 q 270 994 250 1004 q 324 947 290 983 z "},"Ď":{"ha":921,"x_min":99,"x_max":865,"o":"m 649 422 q 583 218 649 286 q 406 150 517 150 q 355 152 382 150 q 308 158 328 154 l 308 686 q 354 692 331 690 q 403 693 378 693 q 531 663 475 693 q 617 574 586 633 q 649 422 649 514 m 865 425 q 806 671 865 574 q 640 816 746 768 q 390 864 533 864 q 274 858 338 864 q 156 835 211 853 q 114 810 129 825 q 99 768 99 796 l 99 103 q 171 11 99 38 q 292 -15 225 -8 q 404 -21 358 -21 q 647 28 543 -21 q 808 176 750 78 q 865 425 865 275 m 463 1044 q 528 1106 494 1075 q 593 1165 561 1138 q 658 1143 632 1165 q 685 1088 685 1121 q 672 1042 685 1061 q 626 997 658 1022 l 576 954 q 517 917 542 928 q 463 907 493 907 q 399 921 426 907 q 349 958 372 935 l 233 1067 q 254 1136 233 1111 q 314 1161 275 1161 q 360 1148 339 1161 q 417 1097 382 1135 l 463 1044 z "},"ď":{"ha":1021,"x_min":50,"x_max":1025,"o":"m 514 164 l 514 583 l 718 583 l 718 138 q 704 83 718 106 q 660 42 690 60 q 562 -2 622 17 q 422 -21 501 -21 q 224 18 307 -21 q 95 135 140 57 q 50 331 50 214 q 96 531 50 453 q 221 649 142 610 q 396 688 300 688 q 485 676 446 688 q 549 650 525 665 l 549 481 q 497 511 529 497 q 424 525 465 525 q 336 505 374 525 q 278 442 299 485 q 257 331 257 399 q 301 188 257 233 q 421 142 344 142 q 476 149 453 142 q 514 164 499 156 m 718 543 l 513 543 l 513 904 q 551 913 526 908 q 604 917 576 917 q 691 897 664 917 q 718 821 718 876 l 718 543 m 950 693 q 906 662 931 671 q 854 653 882 653 q 778 681 808 653 q 819 790 804 736 q 840 894 835 844 q 885 912 860 904 q 938 919 911 919 q 1001 904 976 919 q 1025 854 1025 889 q 1013 801 1025 832 q 984 740 1001 769 q 950 693 967 711 z "},"Đ":{"ha":969,"x_min":18,"x_max":914,"o":"m 261 507 l 261 342 l 449 342 q 502 363 482 342 q 522 428 522 383 q 515 474 522 453 q 500 507 508 494 l 261 507 m 296 342 l 296 507 l 90 507 q 38 487 57 507 q 18 422 18 467 q 24 376 18 396 q 40 342 31 356 l 296 342 m 697 422 q 631 218 697 286 q 454 150 565 150 q 403 152 431 150 q 357 158 376 154 l 357 686 q 403 692 379 690 q 451 693 426 693 q 580 663 525 693 q 666 574 635 633 q 697 422 697 514 m 914 425 q 854 671 914 574 q 688 816 794 768 q 440 864 582 864 q 323 858 386 864 q 204 835 260 853 q 163 810 179 825 q 147 768 147 796 l 147 103 q 219 11 147 38 q 340 -15 274 -8 q 453 -21 407 -21 q 695 28 592 -21 q 856 176 799 78 q 914 425 914 275 z "},"đ":{"ha":808,"x_min":50,"x_max":808,"o":"m 754 735 l 403 735 q 392 761 397 746 q 386 793 386 776 q 440 853 386 853 l 792 853 q 803 829 797 844 q 808 796 808 814 q 754 735 808 735 m 514 164 l 514 583 l 718 583 l 718 138 q 704 83 718 106 q 660 42 690 60 q 562 -2 622 17 q 422 -21 501 -21 q 224 18 307 -21 q 95 135 140 57 q 50 331 50 214 q 96 531 50 453 q 221 649 142 610 q 396 688 300 688 q 485 676 446 688 q 549 650 525 665 l 549 481 q 497 511 529 497 q 424 525 465 525 q 336 505 374 525 q 278 442 299 485 q 257 331 257 399 q 301 188 257 233 q 421 142 344 142 q 476 149 453 142 q 514 164 499 156 m 718 543 l 513 543 l 513 936 q 551 944 526 940 q 604 947 576 947 q 691 927 664 947 q 718 851 718 907 l 718 543 z "},"Ē":{"ha":760,"x_min":103,"x_max":701,"o":"m 103 588 l 308 588 l 308 10 q 270 1 296 6 q 215 -3 244 -3 q 133 28 164 -3 q 103 110 103 58 l 103 588 m 308 254 l 103 254 l 103 731 q 133 813 103 782 q 215 843 164 843 q 270 839 244 843 q 308 831 296 835 l 308 254 m 215 347 l 215 513 l 635 513 q 649 478 643 499 q 656 432 656 457 q 636 367 656 388 q 583 347 617 347 l 215 347 m 215 -3 l 215 164 l 681 164 q 695 130 689 151 q 701 82 701 108 q 682 18 701 39 q 629 -3 663 -3 l 215 -3 m 215 676 l 215 843 l 674 843 q 689 808 682 829 q 696 763 696 788 q 676 697 696 718 q 622 676 657 676 l 215 676 m 568 963 l 213 963 q 199 995 207 975 q 192 1038 192 1015 q 210 1100 192 1082 q 260 1118 229 1118 l 615 1118 q 630 1085 625 1106 q 635 1042 635 1064 q 617 980 635 997 q 568 963 599 963 z "},"ē":{"ha":753,"x_min":50,"x_max":707,"o":"m 176 236 l 168 375 l 514 429 q 479 502 510 469 q 389 535 449 535 q 283 492 325 535 q 240 371 242 450 l 246 276 q 313 167 260 200 q 438 135 365 135 q 547 151 496 135 q 631 186 599 167 q 664 151 650 174 q 678 104 678 129 q 645 35 678 63 q 555 -7 613 7 q 424 -21 497 -21 q 232 19 317 -21 q 99 140 147 60 q 50 342 50 221 q 78 496 50 431 q 153 603 106 561 q 262 667 201 646 q 388 688 322 688 q 555 649 483 688 q 667 546 626 611 q 707 394 707 481 q 683 330 707 351 q 618 301 660 308 l 176 236 m 543 786 l 188 786 q 174 819 182 799 q 167 861 167 839 q 185 924 167 906 q 235 942 204 942 l 590 942 q 605 908 600 929 q 610 865 610 888 q 592 803 610 821 q 543 786 574 786 z "},"Ĕ":{"ha":760,"x_min":103,"x_max":701,"o":"m 103 588 l 308 588 l 308 10 q 270 1 296 6 q 215 -3 244 -3 q 133 28 164 -3 q 103 110 103 58 l 103 588 m 308 254 l 103 254 l 103 731 q 133 813 103 782 q 215 843 164 843 q 270 839 244 843 q 308 831 296 835 l 308 254 m 215 347 l 215 513 l 635 513 q 649 478 643 499 q 656 432 656 457 q 636 367 656 388 q 583 347 617 347 l 215 347 m 215 -3 l 215 164 l 681 164 q 695 130 689 151 q 701 82 701 108 q 682 18 701 39 q 629 -3 663 -3 l 215 -3 m 215 676 l 215 843 l 674 843 q 689 808 682 829 q 696 763 696 788 q 676 697 696 718 q 622 676 657 676 l 215 676 m 415 1081 q 485 1102 458 1081 q 521 1158 513 1124 q 533 1160 528 1160 q 546 1160 539 1160 q 617 1133 593 1160 q 640 1072 640 1106 q 582 972 640 1014 q 415 931 524 931 q 247 972 306 931 q 189 1072 189 1014 q 213 1133 189 1106 q 285 1160 238 1160 q 297 1160 292 1160 q 310 1158 303 1160 q 344 1102 317 1124 q 415 1081 372 1081 z "},"ĕ":{"ha":753,"x_min":50,"x_max":707,"o":"m 176 236 l 168 375 l 514 429 q 479 502 510 469 q 389 535 449 535 q 283 492 325 535 q 240 371 242 450 l 246 276 q 313 167 260 200 q 438 135 365 135 q 547 151 496 135 q 631 186 599 167 q 664 151 650 174 q 678 104 678 129 q 645 35 678 63 q 555 -7 613 7 q 424 -21 497 -21 q 232 19 317 -21 q 99 140 147 60 q 50 342 50 221 q 78 496 50 431 q 153 603 106 561 q 262 667 201 646 q 388 688 322 688 q 555 649 483 688 q 667 546 626 611 q 707 394 707 481 q 683 330 707 351 q 618 301 660 308 l 176 236 m 397 914 q 467 935 440 914 q 503 992 494 957 q 515 993 510 993 q 528 993 521 993 q 599 966 575 993 q 622 906 622 939 q 564 806 622 847 q 397 764 506 764 q 229 806 288 764 q 171 906 171 847 q 195 966 171 939 q 267 993 219 993 q 279 993 274 993 q 292 992 285 993 q 326 935 299 957 q 397 914 354 914 z "},"Ė":{"ha":760,"x_min":103,"x_max":701,"o":"m 103 588 l 308 588 l 308 10 q 270 1 296 6 q 215 -3 244 -3 q 133 28 164 -3 q 103 110 103 58 l 103 588 m 308 254 l 103 254 l 103 731 q 133 813 103 782 q 215 843 164 843 q 270 839 244 843 q 308 831 296 835 l 308 254 m 215 347 l 215 513 l 635 513 q 649 478 643 499 q 656 432 656 457 q 636 367 656 388 q 583 347 617 347 l 215 347 m 215 -3 l 215 164 l 681 164 q 695 130 689 151 q 701 82 701 108 q 682 18 701 39 q 629 -3 663 -3 l 215 -3 m 215 676 l 215 843 l 674 843 q 689 808 682 829 q 696 763 696 788 q 676 697 696 718 q 622 676 657 676 l 215 676 m 529 1046 q 499 969 529 1000 q 418 938 468 938 q 338 969 368 938 q 307 1046 307 1000 q 338 1123 307 1092 q 417 1154 368 1154 q 499 1123 468 1154 q 529 1046 529 1092 z "},"ė":{"ha":753,"x_min":50,"x_max":707,"o":"m 176 236 l 168 375 l 514 429 q 479 502 510 469 q 389 535 449 535 q 283 492 325 535 q 240 371 242 450 l 246 276 q 313 167 260 200 q 438 135 365 135 q 547 151 496 135 q 631 186 599 167 q 664 151 650 174 q 678 104 678 129 q 645 35 678 63 q 555 -7 613 7 q 424 -21 497 -21 q 232 19 317 -21 q 99 140 147 60 q 50 342 50 221 q 78 496 50 431 q 153 603 106 561 q 262 667 201 646 q 388 688 322 688 q 555 649 483 688 q 667 546 626 611 q 707 394 707 481 q 683 330 707 351 q 618 301 660 308 l 176 236 m 503 869 q 472 792 503 824 q 392 761 442 761 q 311 792 342 761 q 281 869 281 824 q 311 947 281 915 q 390 978 342 978 q 472 947 442 978 q 503 869 503 915 z "},"Ę":{"ha":760,"x_min":103,"x_max":701,"o":"m 103 588 l 308 588 l 308 10 q 270 1 296 6 q 215 -3 244 -3 q 133 28 164 -3 q 103 110 103 58 l 103 588 m 308 254 l 103 254 l 103 731 q 133 813 103 782 q 215 843 164 843 q 270 839 244 843 q 308 831 296 835 l 308 254 m 215 347 l 215 513 l 635 513 q 649 478 643 499 q 656 432 656 457 q 636 367 656 388 q 583 347 617 347 l 215 347 m 215 -3 l 215 164 l 681 164 q 695 130 689 151 q 701 82 701 108 q 682 18 701 39 q 629 -3 663 -3 l 215 -3 m 215 676 l 215 843 l 674 843 q 689 808 682 829 q 696 763 696 788 q 676 697 696 718 q 622 676 657 676 l 215 676 m 501 13 l 658 14 q 619 -19 635 0 q 603 -69 603 -39 q 623 -116 603 -99 q 681 -133 643 -133 l 692 -133 q 698 -157 696 -144 q 700 -185 700 -169 q 675 -247 700 -219 q 585 -275 650 -275 q 465 -237 513 -275 q 417 -131 417 -199 q 431 -64 417 -93 q 465 -15 444 -35 q 501 13 485 4 z "},"ę":{"ha":753,"x_min":50,"x_max":707,"o":"m 176 236 l 168 375 l 514 429 q 479 502 510 469 q 389 535 449 535 q 283 492 325 535 q 240 371 242 450 l 246 276 q 313 167 260 200 q 438 135 365 135 q 547 151 496 135 q 631 186 599 167 q 664 151 650 174 q 678 104 678 129 q 645 35 678 63 q 555 -7 613 7 q 424 -21 497 -21 q 232 19 317 -21 q 99 140 147 60 q 50 342 50 221 q 78 496 50 431 q 153 603 106 561 q 262 667 201 646 q 388 688 322 688 q 555 649 483 688 q 667 546 626 611 q 707 394 707 481 q 683 330 707 351 q 618 301 660 308 l 176 236 m 436 13 l 593 14 q 553 -19 569 0 q 538 -69 538 -39 q 558 -116 538 -99 q 615 -133 578 -133 l 626 -133 q 633 -157 631 -144 q 635 -185 635 -169 q 610 -247 635 -219 q 519 -275 585 -275 q 399 -237 447 -275 q 351 -131 351 -199 q 365 -64 351 -93 q 399 -15 379 -35 q 436 13 419 4 z "},"Ě":{"ha":760,"x_min":103,"x_max":701,"o":"m 103 588 l 308 588 l 308 10 q 270 1 296 6 q 215 -3 244 -3 q 133 28 164 -3 q 103 110 103 58 l 103 588 m 308 254 l 103 254 l 103 731 q 133 813 103 782 q 215 843 164 843 q 270 839 244 843 q 308 831 296 835 l 308 254 m 215 347 l 215 513 l 635 513 q 649 478 643 499 q 656 432 656 457 q 636 367 656 388 q 583 347 617 347 l 215 347 m 215 -3 l 215 164 l 681 164 q 695 130 689 151 q 701 82 701 108 q 682 18 701 39 q 629 -3 663 -3 l 215 -3 m 215 676 l 215 843 l 674 843 q 689 808 682 829 q 696 763 696 788 q 676 697 696 718 q 622 676 657 676 l 215 676 m 414 1044 q 479 1106 446 1075 q 544 1165 513 1138 q 610 1143 583 1165 q 636 1088 636 1121 q 623 1042 636 1061 q 578 997 610 1022 l 528 954 q 469 917 493 928 q 414 907 444 907 q 351 921 378 907 q 300 958 324 935 l 185 1067 q 206 1136 185 1111 q 265 1161 226 1161 q 312 1148 290 1161 q 368 1097 333 1135 l 414 1044 z "},"ě":{"ha":753,"x_min":50,"x_max":707,"o":"m 176 236 l 168 375 l 514 429 q 479 502 510 469 q 389 535 449 535 q 283 492 325 535 q 240 371 242 450 l 246 276 q 313 167 260 200 q 438 135 365 135 q 547 151 496 135 q 631 186 599 167 q 664 151 650 174 q 678 104 678 129 q 645 35 678 63 q 555 -7 613 7 q 424 -21 497 -21 q 232 19 317 -21 q 99 140 147 60 q 50 342 50 221 q 78 496 50 431 q 153 603 106 561 q 262 667 201 646 q 388 688 322 688 q 555 649 483 688 q 667 546 626 611 q 707 394 707 481 q 683 330 707 351 q 618 301 660 308 l 176 236 m 342 947 l 397 886 l 522 1007 q 597 984 569 1007 q 625 926 625 961 q 611 882 625 900 q 567 839 597 864 l 499 778 q 451 748 475 757 q 400 739 426 739 q 361 743 379 739 q 323 761 343 747 q 274 800 303 775 l 167 900 q 169 947 163 922 q 194 988 175 971 q 243 1004 213 1004 q 288 994 268 1004 q 342 947 308 983 z "},"Ĝ":{"ha":914,"x_min":56,"x_max":838,"o":"m 838 415 l 838 125 q 822 67 838 88 q 775 29 807 47 q 667 -8 738 8 q 525 -24 596 -24 q 285 23 392 -24 q 117 167 179 69 q 56 419 56 265 q 118 666 56 567 q 287 816 181 765 q 522 867 393 867 q 671 849 607 867 q 769 799 735 831 q 803 726 803 767 q 787 672 803 696 q 749 635 771 647 q 661 676 714 656 q 538 696 608 696 q 399 663 460 696 q 306 568 339 629 q 272 421 272 507 q 305 268 272 329 q 396 177 338 207 q 528 147 454 147 q 592 153 564 147 q 636 168 619 160 l 636 332 l 472 332 q 458 366 464 344 q 451 413 451 388 q 471 476 451 456 q 524 496 490 496 l 757 496 q 816 474 794 496 q 838 415 838 453 m 490 1025 q 426 965 460 997 q 361 906 393 933 q 297 927 322 906 q 271 982 271 949 q 284 1027 271 1008 q 329 1071 297 1046 l 379 1115 q 493 1165 444 1165 q 551 1153 525 1165 q 606 1113 578 1140 l 718 996 q 695 931 718 953 q 635 908 672 908 q 588 924 610 908 q 538 972 567 940 l 490 1025 z "},"ĝ":{"ha":778,"x_min":51,"x_max":697,"o":"m 360 26 q 206 58 276 26 q 94 162 136 89 q 51 353 51 235 q 95 537 51 463 q 218 649 139 611 q 401 688 297 688 q 540 667 476 688 q 640 624 604 647 q 682 584 667 607 q 697 526 697 561 l 697 92 l 500 92 l 500 503 q 462 519 483 513 q 408 525 440 525 q 298 483 340 525 q 256 353 256 442 q 296 218 256 256 q 396 181 336 181 q 472 197 442 181 q 525 233 503 214 l 532 69 q 460 39 503 51 q 360 26 418 26 m 503 7 l 503 136 l 697 136 l 697 0 q 652 -157 697 -96 q 530 -247 607 -218 q 357 -276 453 -276 q 229 -264 285 -276 q 143 -232 174 -251 q 96 -146 96 -201 q 108 -94 96 -117 q 136 -60 119 -71 q 225 -98 174 -82 q 333 -114 276 -114 q 457 -85 411 -114 q 503 7 503 -57 m 464 789 l 399 867 q 339 799 364 826 q 285 738 314 772 q 209 760 238 738 q 181 815 181 782 q 194 858 181 840 q 235 903 208 876 l 292 961 q 342 999 315 985 q 403 1013 368 1013 q 462 1000 435 1013 q 522 947 489 988 l 625 821 q 605 764 625 788 q 544 740 585 740 q 502 753 521 740 q 464 789 483 767 z "},"Ğ":{"ha":914,"x_min":56,"x_max":838,"o":"m 838 415 l 838 125 q 822 67 838 88 q 775 29 807 47 q 667 -8 738 8 q 525 -24 596 -24 q 285 23 392 -24 q 117 167 179 69 q 56 419 56 265 q 118 666 56 567 q 287 816 181 765 q 522 867 393 867 q 671 849 607 867 q 769 799 735 831 q 803 726 803 767 q 787 672 803 696 q 749 635 771 647 q 661 676 714 656 q 538 696 608 696 q 399 663 460 696 q 306 568 339 629 q 272 421 272 507 q 305 268 272 329 q 396 177 338 207 q 528 147 454 147 q 592 153 564 147 q 636 168 619 160 l 636 332 l 472 332 q 458 366 464 344 q 451 413 451 388 q 471 476 451 456 q 524 496 490 496 l 757 496 q 816 474 794 496 q 838 415 838 453 m 482 1081 q 552 1102 525 1081 q 588 1158 579 1124 q 600 1160 594 1160 q 613 1160 606 1160 q 683 1133 660 1160 q 707 1072 707 1106 q 649 972 707 1014 q 482 931 590 931 q 314 972 372 931 q 256 1072 256 1014 q 280 1133 256 1106 q 351 1160 304 1160 q 364 1160 358 1160 q 376 1158 369 1160 q 411 1102 383 1124 q 482 1081 439 1081 z "},"ğ":{"ha":778,"x_min":51,"x_max":697,"o":"m 360 26 q 206 58 276 26 q 94 162 136 89 q 51 353 51 235 q 95 537 51 463 q 218 649 139 611 q 401 688 297 688 q 540 667 476 688 q 640 624 604 647 q 682 584 667 607 q 697 526 697 561 l 697 92 l 500 92 l 500 503 q 462 519 483 513 q 408 525 440 525 q 298 483 340 525 q 256 353 256 442 q 296 218 256 256 q 396 181 336 181 q 472 197 442 181 q 525 233 503 214 l 532 69 q 460 39 503 51 q 360 26 418 26 m 503 7 l 503 136 l 697 136 l 697 0 q 652 -157 697 -96 q 530 -247 607 -218 q 357 -276 453 -276 q 229 -264 285 -276 q 143 -232 174 -251 q 96 -146 96 -201 q 108 -94 96 -117 q 136 -60 119 -71 q 225 -98 174 -82 q 333 -114 276 -114 q 457 -85 411 -114 q 503 7 503 -57 m 390 914 q 460 935 433 914 q 496 992 488 957 q 508 993 503 993 q 521 993 514 993 q 592 966 568 993 q 615 906 615 939 q 557 806 615 847 q 390 764 499 764 q 222 806 281 764 q 164 906 164 847 q 188 966 164 939 q 260 993 213 993 q 272 993 267 993 q 285 992 278 993 q 319 935 292 957 q 390 914 347 914 z "},"Ġ":{"ha":914,"x_min":56,"x_max":838,"o":"m 838 415 l 838 125 q 822 67 838 88 q 775 29 807 47 q 667 -8 738 8 q 525 -24 596 -24 q 285 23 392 -24 q 117 167 179 69 q 56 419 56 265 q 118 666 56 567 q 287 816 181 765 q 522 867 393 867 q 671 849 607 867 q 769 799 735 831 q 803 726 803 767 q 787 672 803 696 q 749 635 771 647 q 661 676 714 656 q 538 696 608 696 q 399 663 460 696 q 306 568 339 629 q 272 421 272 507 q 305 268 272 329 q 396 177 338 207 q 528 147 454 147 q 592 153 564 147 q 636 168 619 160 l 636 332 l 472 332 q 458 366 464 344 q 451 413 451 388 q 471 476 451 456 q 524 496 490 496 l 757 496 q 816 474 794 496 q 838 415 838 453 m 622 1046 q 592 969 622 1000 q 511 938 561 938 q 431 969 461 938 q 400 1046 400 1000 q 431 1123 400 1092 q 510 1154 461 1154 q 592 1123 561 1154 q 622 1046 622 1092 z "},"ġ":{"ha":778,"x_min":51,"x_max":697,"o":"m 360 26 q 206 58 276 26 q 94 162 136 89 q 51 353 51 235 q 95 537 51 463 q 218 649 139 611 q 401 688 297 688 q 540 667 476 688 q 640 624 604 647 q 682 584 667 607 q 697 526 697 561 l 697 92 l 500 92 l 500 503 q 462 519 483 513 q 408 525 440 525 q 298 483 340 525 q 256 353 256 442 q 296 218 256 256 q 396 181 336 181 q 472 197 442 181 q 525 233 503 214 l 532 69 q 460 39 503 51 q 360 26 418 26 m 503 7 l 503 136 l 697 136 l 697 0 q 652 -157 697 -96 q 530 -247 607 -218 q 357 -276 453 -276 q 229 -264 285 -276 q 143 -232 174 -251 q 96 -146 96 -201 q 108 -94 96 -117 q 136 -60 119 -71 q 225 -98 174 -82 q 333 -114 276 -114 q 457 -85 411 -114 q 503 7 503 -57 m 506 869 q 475 792 506 824 q 394 761 444 761 q 314 792 344 761 q 283 869 283 824 q 314 947 283 915 q 393 978 344 978 q 475 947 444 978 q 506 869 506 915 z "},"Ģ":{"ha":914,"x_min":56,"x_max":838,"o":"m 838 415 l 838 125 q 822 67 838 88 q 775 29 807 47 q 667 -8 738 8 q 525 -24 596 -24 q 285 23 392 -24 q 117 167 179 69 q 56 419 56 265 q 118 666 56 567 q 287 816 181 765 q 522 867 393 867 q 671 849 607 867 q 769 799 735 831 q 803 726 803 767 q 787 672 803 696 q 749 635 771 647 q 661 676 714 656 q 538 696 608 696 q 399 663 460 696 q 306 568 339 629 q 272 421 272 507 q 305 268 272 329 q 396 177 338 207 q 528 147 454 147 q 592 153 564 147 q 636 168 619 160 l 636 332 l 472 332 q 458 366 464 344 q 451 413 451 388 q 471 476 451 456 q 524 496 490 496 l 757 496 q 816 474 794 496 q 838 415 838 453 m 519 -301 q 476 -333 500 -324 q 424 -343 451 -343 q 346 -314 376 -343 q 388 -204 374 -258 q 410 -100 403 -150 q 455 -83 429 -90 q 507 -75 481 -75 q 570 -90 546 -75 q 594 -140 594 -106 q 583 -194 594 -162 q 553 -254 571 -225 q 519 -301 536 -283 z "},"ģ":{"ha":778,"x_min":51,"x_max":697,"o":"m 378 978 q 420 1007 399 999 q 465 1015 442 1015 q 512 1007 489 1015 q 550 986 535 999 q 508 877 524 931 q 486 772 493 824 q 443 754 467 761 q 394 747 419 747 q 328 761 353 747 q 303 804 303 775 q 314 863 303 831 q 342 928 325 896 q 378 978 358 960 m 358 26 q 206 58 276 26 q 94 162 136 89 q 51 353 51 235 q 95 537 51 463 q 217 649 139 611 q 401 688 296 688 q 540 667 476 688 q 640 624 604 647 q 682 584 667 607 q 697 526 697 561 l 697 92 l 499 92 l 499 503 q 462 519 483 513 q 408 525 440 525 q 298 483 340 525 q 256 353 256 442 q 295 218 256 256 q 394 181 335 181 q 472 197 442 181 q 524 233 501 214 l 531 69 q 460 39 501 51 q 358 26 418 26 m 503 7 l 503 136 l 697 136 l 697 0 q 651 -157 697 -96 q 528 -247 606 -218 q 357 -276 451 -276 q 228 -264 283 -276 q 143 -232 172 -251 q 94 -146 94 -201 q 107 -94 94 -117 q 135 -60 119 -71 q 224 -98 172 -82 q 332 -114 275 -114 q 457 -85 411 -114 q 503 7 503 -57 z "},"Ĥ":{"ha":924,"x_min":115,"x_max":846,"o":"m 115 586 l 326 586 l 326 1 q 285 -6 313 -1 q 229 -10 258 -10 q 141 13 167 -10 q 115 89 115 35 l 115 586 m 326 322 l 115 322 l 115 844 q 158 851 129 847 q 213 856 186 856 q 299 835 272 856 q 326 757 326 814 l 326 322 m 635 586 l 846 586 l 846 1 q 804 -6 832 -1 q 747 -10 776 -10 q 660 13 686 -10 q 635 89 635 35 l 635 586 m 846 322 l 635 322 l 635 844 q 677 851 649 847 q 732 856 706 856 q 819 834 792 856 q 846 754 846 813 l 846 322 m 754 339 l 211 339 l 211 507 l 754 507 l 754 339 m 467 1025 q 403 965 436 997 q 338 906 369 933 q 273 927 299 906 q 247 982 247 949 q 260 1027 247 1008 q 306 1071 274 1046 l 356 1115 q 469 1165 421 1165 q 528 1153 501 1165 q 582 1113 554 1140 l 694 996 q 672 931 694 953 q 611 908 649 908 q 565 924 586 908 q 514 972 543 940 l 467 1025 z "},"ĥ":{"ha":803,"x_min":-32,"x_max":735,"o":"m 735 283 l 531 283 l 531 407 q 497 498 531 471 q 414 525 464 525 q 334 508 369 525 q 272 471 299 492 l 268 636 q 347 672 300 656 q 451 688 394 688 q 658 620 582 688 q 735 418 735 553 l 735 283 m 99 367 l 303 367 l 303 1 q 265 -6 290 -1 q 211 -10 240 -10 q 126 11 153 -10 q 99 86 99 32 l 99 367 m 531 367 l 735 367 l 735 1 q 697 -6 722 -1 q 643 -10 672 -10 q 558 11 585 -10 q 531 86 531 32 l 531 367 m 303 261 l 99 261 l 99 904 q 136 913 111 908 q 190 917 161 917 q 276 897 250 917 q 303 821 303 876 l 303 261 m 188 1038 q 124 978 157 1010 q 58 918 90 946 q -6 940 19 918 q -32 994 -32 961 q -19 1040 -32 1021 q 26 1083 -6 1058 l 76 1128 q 190 1178 142 1178 q 249 1165 222 1178 q 303 1125 275 1153 l 415 1008 q 392 943 415 965 q 332 921 369 921 q 285 937 307 921 q 235 985 264 953 l 188 1038 z "},"Ħ":{"ha":957,"x_min":29,"x_max":928,"o":"m 875 601 l 46 601 q 35 627 40 611 q 29 660 29 643 q 83 719 29 719 l 913 719 q 922 696 917 711 q 928 663 928 681 q 914 616 928 631 q 875 601 900 601 m 115 586 l 326 586 l 326 1 q 285 -6 313 -1 q 229 -10 258 -10 q 141 13 167 -10 q 115 89 115 35 l 115 586 m 326 322 l 115 322 l 115 844 q 158 851 131 847 q 214 856 186 856 q 300 835 274 856 q 326 757 326 814 l 326 322 m 635 586 l 846 586 l 846 1 q 805 -6 832 -1 q 749 -10 778 -10 q 660 13 686 -10 q 635 89 635 35 l 635 586 m 846 322 l 635 322 l 635 844 q 677 851 649 847 q 732 856 706 856 q 819 834 792 856 q 846 754 846 813 l 846 322 m 756 339 l 211 339 l 211 507 l 756 507 l 756 339 z "},"ħ":{"ha":810,"x_min":1,"x_max":719,"o":"m 56 853 l 407 853 q 419 828 414 844 q 424 794 424 813 q 369 735 424 735 l 18 735 q 8 759 14 744 q 1 792 1 774 q 56 853 1 853 m 719 283 l 515 283 l 515 407 q 482 498 515 471 q 399 525 449 525 q 319 508 354 525 q 257 471 283 492 l 253 636 q 332 672 285 656 q 436 688 379 688 q 643 620 567 688 q 719 418 719 553 l 719 283 m 83 367 l 288 367 l 288 1 q 250 -6 275 -1 q 196 -10 225 -10 q 110 11 138 -10 q 83 86 83 32 l 83 367 m 515 367 l 719 367 l 719 1 q 682 -6 707 -1 q 628 -10 657 -10 q 542 11 569 -10 q 515 86 515 32 l 515 367 m 288 261 l 83 261 l 83 936 q 121 944 96 940 q 175 947 146 947 q 261 927 235 947 q 288 851 288 907 l 288 261 z "},"Ĩ":{"ha":408,"x_min":-51,"x_max":439,"o":"m 99 586 l 310 586 l 310 1 q 269 -6 296 -1 q 213 -10 242 -10 q 124 13 150 -10 q 99 89 99 35 l 99 586 m 310 322 l 99 322 l 99 844 q 142 851 114 847 q 197 856 169 856 q 283 835 257 856 q 310 757 310 814 l 310 322 m 76 1151 q 151 1141 115 1151 q 217 1120 186 1131 q 268 1110 247 1110 q 313 1127 297 1110 q 335 1160 328 1144 l 342 1160 q 410 1133 381 1160 q 439 1063 439 1107 q 403 978 439 1007 q 311 950 367 950 q 233 961 268 950 q 170 983 199 972 q 118 993 142 993 q 74 976 89 993 q 51 943 60 960 l 47 943 q -22 969 7 943 q -51 1039 -51 994 q -33 1103 -51 1078 q 16 1140 -14 1128 q 76 1151 46 1151 z "},"ĩ":{"ha":378,"x_min":-62,"x_max":428,"o":"m 86 388 l 292 388 l 292 0 q 253 -7 278 -3 q 200 -11 229 -11 q 114 10 142 -11 q 86 85 86 31 l 86 388 m 292 321 l 86 321 l 86 658 q 124 666 100 663 q 178 669 149 669 q 265 649 238 669 q 292 574 292 629 l 292 321 m 65 971 q 140 960 104 971 q 206 940 175 950 q 257 929 236 929 q 302 947 286 929 q 324 979 318 964 l 331 979 q 399 953 369 979 q 428 882 428 926 q 392 798 428 826 q 300 769 356 769 q 222 781 257 769 q 159 802 188 792 q 107 813 131 813 q 63 796 78 813 q 42 763 49 779 l 36 763 q -33 788 -4 763 q -62 858 -62 814 q -44 922 -62 897 q 5 959 -25 947 q 65 971 35 971 z "},"Ī":{"ha":408,"x_min":-22,"x_max":422,"o":"m 99 586 l 310 586 l 310 1 q 269 -6 296 -1 q 213 -10 242 -10 q 124 13 150 -10 q 99 89 99 35 l 99 586 m 310 322 l 99 322 l 99 844 q 142 851 114 847 q 197 856 169 856 q 283 835 257 856 q 310 757 310 814 l 310 322 m 356 963 l 0 963 q -13 995 -6 975 q -21 1038 -21 1015 q -2 1100 -21 1082 q 47 1118 17 1118 l 403 1118 q 417 1085 413 1106 q 422 1042 422 1064 q 404 980 422 997 q 356 963 386 963 z "},"ī":{"ha":378,"x_min":-35,"x_max":410,"o":"m 86 388 l 292 388 l 292 0 q 253 -7 278 -3 q 200 -11 229 -11 q 114 10 142 -11 q 86 85 86 31 l 86 388 m 292 321 l 86 321 l 86 658 q 124 666 100 663 q 178 669 149 669 q 265 649 238 669 q 292 574 292 629 l 292 321 m 342 786 l -14 786 q -27 819 -19 799 q -35 861 -35 839 q -16 924 -35 906 q 33 942 3 942 l 389 942 q 404 908 399 929 q 410 865 410 888 q 392 803 410 821 q 342 786 374 786 z "},"Į":{"ha":408,"x_min":88,"x_max":376,"o":"m 190 24 l 310 1 q 275 -71 275 -31 q 294 -119 275 -101 q 342 -136 313 -136 l 367 -136 q 376 -187 376 -161 q 345 -258 376 -232 q 260 -283 314 -283 q 135 -237 183 -283 q 88 -122 88 -192 q 117 -31 88 -67 q 190 24 147 6 m 99 586 l 310 586 l 310 1 q 269 -6 296 -1 q 213 -10 242 -10 q 124 13 150 -10 q 99 89 99 35 l 99 586 m 310 322 l 99 322 l 99 844 q 142 851 114 847 q 197 856 169 856 q 283 835 257 856 q 310 757 310 814 l 310 322 z "},"į":{"ha":378,"x_min":65,"x_max":350,"o":"m 150 13 l 292 1 q 265 -25 278 -8 q 251 -69 251 -42 q 272 -116 251 -99 q 329 -133 293 -133 l 340 -133 q 347 -157 344 -144 q 350 -185 350 -169 q 324 -247 350 -219 q 233 -275 299 -275 q 113 -237 161 -275 q 65 -131 65 -199 q 79 -64 65 -93 q 113 -15 93 -35 q 150 13 133 4 m 74 858 q 106 938 74 906 q 189 969 139 969 q 271 938 239 969 q 303 858 303 906 q 271 780 303 813 q 189 747 239 747 q 106 780 139 747 q 74 858 74 813 m 86 367 l 292 367 l 292 1 q 253 -6 278 -1 q 199 -10 228 -10 q 113 11 140 -10 q 86 86 86 32 l 86 367 m 292 261 l 86 261 l 86 658 q 125 667 100 663 q 179 671 150 671 q 265 651 238 671 q 292 575 292 631 l 292 261 z "},"İ":{"ha":408,"x_min":88,"x_max":310,"o":"m 99 586 l 310 586 l 310 1 q 269 -6 296 -1 q 213 -10 242 -10 q 124 13 150 -10 q 99 89 99 35 l 99 586 m 310 322 l 99 322 l 99 844 q 142 851 114 847 q 197 856 169 856 q 283 835 257 856 q 310 757 310 814 l 310 322 m 310 1046 q 279 969 310 1000 q 199 938 249 938 q 118 969 149 938 q 88 1046 88 1000 q 118 1123 88 1092 q 197 1154 149 1154 q 279 1123 249 1154 q 310 1046 310 1092 z "},"ı":{"ha":378,"x_min":86,"x_max":292,"o":"m 86 388 l 292 388 l 292 1 q 253 -6 278 -1 q 200 -10 229 -10 q 114 11 142 -10 q 86 86 86 32 l 86 388 m 292 321 l 86 321 l 86 664 q 124 672 100 668 q 178 676 149 676 q 265 656 238 676 q 292 579 292 635 l 292 321 z "},"Ĵ":{"ha":558,"x_min":28,"x_max":581,"o":"m 254 403 l 465 403 l 465 239 q 433 99 465 157 q 342 10 401 40 q 199 -19 283 -19 q 76 6 125 -19 q 28 90 28 31 q 36 135 28 117 q 54 165 44 154 q 101 155 79 158 q 146 151 122 151 q 228 179 203 151 q 254 264 254 207 l 254 403 m 465 314 l 254 314 l 254 844 q 297 851 268 847 q 351 856 325 856 q 438 835 411 856 q 465 757 465 814 l 465 314 m 354 1025 q 290 965 324 997 q 225 906 257 933 q 160 927 186 906 q 135 982 135 949 q 148 1027 135 1008 q 193 1071 161 1046 l 243 1115 q 357 1165 308 1165 q 415 1153 389 1165 q 469 1113 442 1140 l 582 996 q 559 931 582 953 q 499 908 536 908 q 452 924 474 908 q 401 972 431 940 l 354 1025 z "},"ĵ":{"ha":382,"x_min":-39,"x_max":404,"o":"m -3 -136 l 32 -117 q 78 -65 64 -97 q 92 11 92 -33 l 92 367 l 296 367 l 296 -8 q 260 -164 296 -106 q 199 -228 236 -207 q 114 -250 161 -250 q 30 -219 61 -250 q -3 -136 -1 -187 m 296 321 l 92 321 l 92 658 q 129 666 104 663 q 183 669 154 669 q 269 649 243 669 q 296 574 296 629 l 296 321 m 243 789 l 179 867 q 119 799 144 826 q 64 738 94 772 q -11 760 17 738 q -39 815 -39 782 q -25 858 -39 840 q 14 903 -11 876 l 71 961 q 122 999 96 985 q 182 1013 147 1013 q 242 1000 215 1013 q 301 947 269 988 l 404 821 q 385 764 404 788 q 324 740 365 740 q 281 753 300 740 q 243 789 263 767 z "},"Ķ":{"ha":835,"x_min":96,"x_max":803,"o":"m 211 447 l 446 476 q 654 254 563 351 q 803 99 746 157 q 769 16 803 46 q 689 -14 735 -14 q 608 11 640 -14 q 546 69 576 36 l 211 447 m 451 374 l 185 363 l 619 850 q 734 819 699 850 q 769 746 769 789 q 753 687 769 715 q 703 625 738 658 l 451 374 m 96 588 l 307 588 l 307 1 q 266 -6 293 -3 q 210 -10 239 -10 q 122 13 147 -10 q 96 89 96 35 l 96 588 m 307 324 l 96 324 l 96 844 q 138 851 110 847 q 193 856 167 856 q 280 835 253 856 q 307 757 307 814 l 307 324 m 456 -301 q 412 -333 436 -324 q 360 -343 388 -343 q 282 -314 313 -343 q 324 -204 310 -258 q 346 -100 339 -150 q 391 -83 365 -90 q 443 -75 417 -75 q 506 -90 482 -75 q 531 -140 531 -106 q 519 -194 531 -162 q 490 -254 507 -225 q 456 -301 472 -283 z "},"ķ":{"ha":747,"x_min":83,"x_max":707,"o":"m 376 267 l 229 361 l 543 678 q 643 649 606 676 q 681 579 681 622 q 656 515 681 543 q 579 443 631 488 l 376 267 m 238 332 l 400 404 l 707 107 q 675 20 703 51 q 596 -11 647 -11 q 527 8 558 -11 q 461 69 496 26 l 238 332 m 83 368 l 288 364 l 288 1 q 250 -6 275 -1 q 196 -10 225 -10 q 110 11 138 -10 q 83 86 83 32 l 83 368 m 288 258 l 83 263 l 83 904 q 121 913 96 908 q 175 917 146 917 q 261 897 235 917 q 288 821 288 876 l 288 258 m 426 -301 q 383 -333 407 -324 q 331 -343 358 -343 q 253 -314 283 -343 q 295 -204 281 -258 q 317 -100 310 -150 q 362 -83 336 -90 q 414 -75 388 -75 q 477 -90 453 -75 q 501 -140 501 -106 q 490 -194 501 -162 q 460 -254 478 -225 q 426 -301 443 -283 z "},"ĸ":{"ha":747,"x_min":83,"x_max":707,"o":"m 288 311 l 83 311 l 83 664 q 121 672 96 668 q 175 676 146 676 q 261 656 235 676 q 288 579 288 635 l 288 311 m 375 265 l 229 361 l 549 678 q 649 649 611 676 q 686 579 686 621 q 661 515 686 543 q 585 443 636 488 l 375 265 m 238 331 l 397 406 l 707 107 q 675 20 703 51 q 596 -11 647 -11 q 527 8 558 -11 q 461 69 496 26 l 238 331 m 83 382 l 288 382 l 288 1 q 250 -6 275 -1 q 196 -10 225 -10 q 110 11 138 -10 q 83 86 83 32 l 83 382 z "},"Ĺ":{"ha":708,"x_min":99,"x_max":671,"o":"m 99 583 l 310 583 l 310 10 l 211 -3 q 129 28 160 -3 q 99 110 99 58 l 99 583 m 211 -3 l 211 168 l 647 168 q 664 133 657 156 q 671 86 671 111 q 651 19 671 42 q 597 -3 632 -3 l 211 -3 m 310 322 l 99 322 l 99 844 q 141 851 113 847 q 196 856 169 856 q 283 835 256 856 q 310 757 310 814 l 310 322 m 151 1039 l 303 1167 q 383 1140 354 1165 q 411 1079 411 1115 q 399 1035 411 1056 q 354 993 388 1014 l 221 906 q 147 928 172 907 q 122 979 122 950 q 127 1009 122 994 q 151 1039 132 1024 z "},"ĺ":{"ha":379,"x_min":86,"x_max":407,"o":"m 147 1101 l 299 1229 q 378 1203 350 1228 q 407 1142 407 1178 q 395 1097 407 1118 q 350 1056 383 1076 l 217 968 q 143 991 168 969 q 118 1042 118 1013 q 123 1072 118 1057 q 147 1101 128 1086 m 88 367 l 292 363 l 292 1 q 254 -6 279 -1 q 200 -10 229 -10 q 115 11 142 -10 q 88 86 88 32 l 88 367 m 292 257 l 88 261 l 88 904 q 125 913 100 908 q 179 917 150 917 q 265 897 239 917 q 292 821 292 876 l 292 257 z "},"Ļ":{"ha":708,"x_min":99,"x_max":671,"o":"m 99 583 l 310 583 l 310 10 l 211 -3 q 129 28 160 -3 q 99 110 99 58 l 99 583 m 211 -3 l 211 168 l 647 168 q 664 133 657 156 q 671 86 671 111 q 651 19 671 42 q 597 -3 632 -3 l 211 -3 m 310 322 l 99 322 l 99 844 q 141 851 113 847 q 196 856 169 856 q 283 835 256 856 q 310 757 310 814 l 310 322 m 406 -301 q 362 -333 386 -324 q 310 -343 338 -343 q 232 -314 263 -343 q 274 -204 260 -258 q 296 -100 289 -150 q 341 -83 315 -90 q 393 -75 367 -75 q 456 -90 432 -75 q 481 -140 481 -106 q 469 -194 481 -162 q 440 -254 457 -225 q 406 -301 422 -283 z "},"ļ":{"ha":382,"x_min":44,"x_max":293,"o":"m 89 367 l 293 363 l 293 1 q 256 -6 281 -1 q 201 -10 231 -10 q 116 11 143 -10 q 89 86 89 32 l 89 367 m 293 257 l 89 261 l 89 904 q 126 913 101 908 q 181 917 151 917 q 267 897 240 917 q 293 821 293 876 l 293 257 m 218 -301 q 174 -333 199 -324 q 122 -343 150 -343 q 44 -314 75 -343 q 87 -204 72 -258 q 108 -100 101 -150 q 153 -83 128 -90 q 206 -75 179 -75 q 269 -90 244 -75 q 293 -140 293 -106 q 281 -194 293 -162 q 252 -254 269 -225 q 218 -301 235 -283 z "},"Ľ":{"ha":708,"x_min":99,"x_max":671,"o":"m 99 583 l 310 583 l 310 10 l 211 -3 q 129 28 160 -3 q 99 110 99 58 l 99 583 m 211 -3 l 211 168 l 647 168 q 664 133 657 156 q 671 86 671 111 q 651 19 671 42 q 597 -3 632 -3 l 211 -3 m 310 322 l 99 322 l 99 844 q 141 851 113 847 q 196 856 169 856 q 283 835 256 856 q 310 757 310 814 l 310 322 m 564 629 q 520 598 544 607 q 468 589 496 589 q 392 617 422 589 q 433 726 418 672 q 454 831 449 781 q 499 848 474 840 q 551 856 525 856 q 615 840 590 856 q 639 790 639 825 q 627 737 639 768 q 598 676 615 706 q 564 629 581 647 z "},"ľ":{"ha":597,"x_min":89,"x_max":600,"o":"m 89 367 l 293 363 l 293 1 q 256 -6 281 -1 q 201 -10 231 -10 q 116 11 143 -10 q 89 86 89 32 l 89 367 m 293 257 l 89 261 l 89 904 q 126 913 101 908 q 181 917 151 917 q 267 897 240 917 q 293 821 293 876 l 293 257 m 525 693 q 481 662 506 671 q 429 653 457 653 q 353 681 383 653 q 394 790 379 736 q 415 894 410 844 q 460 912 435 904 q 513 919 486 919 q 576 904 551 919 q 600 854 600 889 q 588 801 600 832 q 559 740 576 769 q 525 693 542 711 z "},"Ŀ":{"ha":708,"x_min":99,"x_max":676,"o":"m 99 583 l 310 583 l 310 10 l 211 -3 q 129 28 160 -3 q 99 110 99 58 l 99 583 m 211 -3 l 211 168 l 647 168 q 664 133 657 156 q 671 86 671 111 q 651 19 671 42 q 597 -3 632 -3 l 211 -3 m 310 322 l 99 322 l 99 844 q 141 851 113 847 q 196 856 169 856 q 283 835 256 856 q 310 757 310 814 l 310 322 m 438 476 q 470 563 438 528 q 557 599 503 599 q 644 563 613 599 q 676 476 676 528 q 644 391 676 426 q 557 356 613 356 q 470 391 503 356 q 438 476 438 426 z "},"ŀ":{"ha":588,"x_min":89,"x_max":604,"o":"m 89 367 l 293 363 l 293 1 q 256 -6 281 -1 q 201 -10 231 -10 q 116 11 143 -10 q 89 86 89 32 l 89 367 m 293 257 l 89 261 l 89 904 q 126 913 101 908 q 181 917 151 917 q 267 897 240 917 q 293 821 293 876 l 293 257 m 365 418 q 398 505 365 469 q 485 540 431 540 q 572 505 540 540 q 604 418 604 469 q 572 333 604 368 q 485 297 540 297 q 398 333 431 297 q 365 418 365 368 z "},"Ł":{"ha":757,"x_min":14,"x_max":724,"o":"m 524 482 l 72 292 q 35 333 56 306 q 14 396 14 361 q 58 457 14 439 l 510 647 q 547 604 526 633 q 568 543 568 575 q 556 506 568 521 q 524 482 544 492 m 151 583 l 361 583 l 361 10 l 263 -3 q 181 28 211 -3 q 151 110 151 58 l 151 583 m 263 -3 l 263 168 l 700 168 q 716 133 708 156 q 724 86 724 111 q 703 19 724 42 q 650 -3 683 -3 l 263 -3 m 361 322 l 151 322 l 151 844 q 193 851 165 847 q 249 856 221 856 q 335 835 308 856 q 361 757 361 814 l 361 322 z "},"ł":{"ha":519,"x_min":14,"x_max":506,"o":"m 461 469 l 72 308 q 35 350 56 322 q 14 413 14 378 q 58 472 14 456 l 446 635 q 485 592 464 621 q 506 529 506 563 q 494 493 506 508 q 461 469 482 478 m 158 367 l 363 363 l 363 1 q 325 -6 350 -1 q 271 -10 300 -10 q 185 11 213 -10 q 158 86 158 32 l 158 367 m 363 257 l 158 261 l 158 904 q 196 913 171 908 q 250 917 221 917 q 336 897 310 917 q 363 821 363 876 l 363 257 z "},"Ń":{"ha":933,"x_min":99,"x_max":838,"o":"m 99 604 l 290 606 q 299 489 296 547 q 301 376 301 431 q 301 271 301 322 l 301 1 q 263 -6 290 -1 q 208 -10 236 -10 q 124 11 149 -10 q 99 86 99 32 l 99 604 m 838 243 l 646 240 q 635 435 636 343 q 635 610 635 526 l 635 844 q 675 851 649 847 q 729 856 701 856 q 813 835 789 856 q 838 760 838 814 l 838 243 m 838 310 l 838 442 l 838 26 q 788 0 821 10 q 711 -10 756 -10 q 624 5 664 -10 q 557 72 583 19 l 388 393 q 357 456 372 425 q 328 517 342 486 q 300 579 314 547 l 99 535 l 99 806 q 151 842 117 829 q 226 854 186 854 q 315 839 274 854 q 381 772 356 824 l 551 450 q 583 390 568 421 q 611 327 597 358 q 638 264 625 296 l 838 310 m 431 1039 l 582 1167 q 662 1140 633 1165 q 690 1079 690 1115 q 678 1035 690 1056 q 633 993 667 1014 l 500 906 q 426 928 451 907 q 401 979 401 950 q 406 1009 401 994 q 431 1039 411 1024 z "},"ń":{"ha":799,"x_min":81,"x_max":717,"o":"m 717 432 l 717 301 l 513 301 l 513 425 q 482 501 513 478 q 403 525 451 525 q 339 517 368 525 q 285 496 310 508 l 285 301 l 81 301 l 81 518 q 95 576 81 553 q 139 617 110 599 q 252 667 183 647 q 404 688 321 688 q 635 622 554 688 q 717 432 717 556 m 81 365 l 285 365 l 285 1 q 247 -6 272 -1 q 193 -10 222 -10 q 108 11 135 -10 q 81 86 81 32 l 81 365 m 513 365 l 717 365 l 717 1 q 679 -6 704 -1 q 625 -10 654 -10 q 540 11 567 -10 q 513 86 513 32 l 513 365 m 356 871 l 494 1022 q 588 995 556 1022 q 619 933 619 968 q 607 886 619 906 q 564 842 594 867 l 433 729 q 354 755 382 729 q 326 810 326 781 q 333 839 326 825 q 356 871 339 853 z "},"Ņ":{"ha":933,"x_min":99,"x_max":838,"o":"m 99 604 l 290 606 q 299 489 296 547 q 301 376 301 431 q 301 271 301 322 l 301 1 q 263 -6 290 -1 q 208 -10 236 -10 q 124 11 149 -10 q 99 86 99 32 l 99 604 m 838 243 l 646 240 q 635 435 636 343 q 635 610 635 526 l 635 844 q 675 851 649 847 q 729 856 701 856 q 813 835 789 856 q 838 760 838 814 l 838 243 m 838 310 l 838 442 l 838 26 q 788 0 821 10 q 711 -10 756 -10 q 624 5 664 -10 q 557 72 583 19 l 388 393 q 357 456 372 425 q 328 517 342 486 q 300 579 314 547 l 99 535 l 99 806 q 151 842 117 829 q 226 854 186 854 q 315 839 274 854 q 381 772 356 824 l 551 450 q 583 390 568 421 q 611 327 597 358 q 638 264 625 296 l 838 310 m 493 -301 q 449 -333 474 -324 q 397 -343 425 -343 q 319 -314 350 -343 q 362 -204 347 -258 q 383 -100 376 -150 q 428 -83 403 -90 q 481 -75 454 -75 q 544 -90 519 -75 q 568 -140 568 -106 q 556 -194 568 -162 q 527 -254 544 -225 q 493 -301 510 -283 z "},"ņ":{"ha":799,"x_min":81,"x_max":717,"o":"m 717 432 l 717 301 l 513 301 l 513 425 q 482 501 513 478 q 403 525 451 525 q 339 517 368 525 q 285 496 310 508 l 285 301 l 81 301 l 81 518 q 95 576 81 553 q 139 617 110 599 q 252 667 183 647 q 404 688 321 688 q 635 622 554 688 q 717 432 717 556 m 81 365 l 285 365 l 285 1 q 247 -6 272 -1 q 193 -10 222 -10 q 108 11 135 -10 q 81 86 81 32 l 81 365 m 513 365 l 717 365 l 717 1 q 679 -6 704 -1 q 625 -10 654 -10 q 540 11 567 -10 q 513 86 513 32 l 513 365 m 426 -301 q 383 -333 407 -324 q 331 -343 358 -343 q 253 -314 283 -343 q 295 -204 281 -258 q 317 -100 310 -150 q 362 -83 336 -90 q 414 -75 388 -75 q 477 -90 453 -75 q 501 -140 501 -106 q 490 -194 501 -162 q 460 -254 478 -225 q 426 -301 443 -283 z "},"Ň":{"ha":933,"x_min":99,"x_max":838,"o":"m 99 604 l 290 606 q 299 489 296 547 q 301 376 301 431 q 301 271 301 322 l 301 1 q 263 -6 290 -1 q 208 -10 236 -10 q 124 11 149 -10 q 99 86 99 32 l 99 604 m 838 243 l 646 240 q 635 435 636 343 q 635 610 635 526 l 635 844 q 675 851 649 847 q 729 856 701 856 q 813 835 789 856 q 838 760 838 814 l 838 243 m 838 310 l 838 442 l 838 26 q 788 0 821 10 q 711 -10 756 -10 q 624 5 664 -10 q 557 72 583 19 l 388 393 q 357 456 372 425 q 328 517 342 486 q 300 579 314 547 l 99 535 l 99 806 q 151 842 117 829 q 226 854 186 854 q 315 839 274 854 q 381 772 356 824 l 551 450 q 583 390 568 421 q 611 327 597 358 q 638 264 625 296 l 838 310 m 475 1044 q 540 1106 507 1075 q 606 1165 574 1138 q 671 1143 644 1165 q 697 1088 697 1121 q 684 1042 697 1061 q 639 997 671 1022 l 589 954 q 530 917 554 928 q 475 907 506 907 q 412 921 439 907 q 361 958 385 935 l 246 1067 q 267 1136 246 1111 q 326 1161 288 1161 q 373 1148 351 1161 q 429 1097 394 1135 l 475 1044 z "},"ň":{"ha":799,"x_min":81,"x_max":717,"o":"m 717 432 l 717 301 l 513 301 l 513 425 q 482 501 513 478 q 403 525 451 525 q 339 517 368 525 q 285 496 310 508 l 285 301 l 81 301 l 81 518 q 95 576 81 553 q 139 617 110 599 q 252 667 183 647 q 404 688 321 688 q 635 622 554 688 q 717 432 717 556 m 81 365 l 285 365 l 285 1 q 247 -6 272 -1 q 193 -10 222 -10 q 108 11 135 -10 q 81 86 81 32 l 81 365 m 513 365 l 717 365 l 717 1 q 679 -6 704 -1 q 625 -10 654 -10 q 540 11 567 -10 q 513 86 513 32 l 513 365 m 338 947 l 393 886 l 518 1007 q 593 984 565 1007 q 621 926 621 961 q 607 882 621 900 q 563 839 593 864 l 494 778 q 447 748 471 757 q 396 739 422 739 q 357 743 375 739 q 319 761 339 747 q 269 800 299 775 l 163 900 q 165 947 158 922 q 190 988 171 971 q 239 1004 208 1004 q 284 994 264 1004 q 338 947 304 983 z "},"ŉ":{"ha":992,"x_min":26,"x_max":911,"o":"m 910 432 l 910 301 l 706 301 l 706 425 q 675 501 706 478 q 596 525 644 525 q 532 517 561 525 q 478 496 503 508 l 478 301 l 274 301 l 274 518 q 288 576 274 553 q 332 617 303 599 q 445 667 376 647 q 597 688 514 688 q 828 622 747 688 q 910 432 910 556 m 274 365 l 478 365 l 478 1 q 440 -6 465 -1 q 386 -10 415 -10 q 301 11 328 -10 q 274 86 274 32 l 274 365 m 706 365 l 910 365 l 910 1 q 872 -6 897 -1 q 818 -10 847 -10 q 733 11 760 -10 q 706 86 706 32 l 706 365 m 186 558 q 153 525 172 536 q 107 514 135 514 q 64 519 83 514 q 26 533 44 525 q 38 642 32 585 q 47 753 43 699 q 54 854 51 808 q 98 872 71 864 q 150 879 125 879 q 220 862 189 879 q 251 800 251 844 q 242 719 251 765 q 218 628 233 672 q 186 558 203 585 z "},"Ō":{"ha":972,"x_min":56,"x_max":917,"o":"m 917 422 q 860 178 917 278 q 706 28 803 79 q 485 -24 608 -24 q 265 28 363 -24 q 111 178 167 79 q 56 422 56 278 q 113 666 56 567 q 267 816 169 765 q 485 867 364 867 q 704 816 607 867 q 859 666 801 765 q 917 422 917 567 m 700 422 q 642 626 700 557 q 485 696 583 696 q 331 626 389 696 q 272 422 272 557 q 331 217 272 286 q 486 147 389 147 q 642 217 583 147 q 700 422 700 286 m 635 963 l 279 963 q 266 995 274 975 q 258 1038 258 1015 q 277 1100 258 1082 q 326 1118 296 1118 l 682 1118 q 697 1085 692 1106 q 701 1042 701 1064 q 683 980 701 997 q 635 963 665 963 z "},"ō":{"ha":803,"x_min":50,"x_max":753,"o":"m 753 333 q 710 145 753 225 q 588 22 667 65 q 401 -21 508 -21 q 215 22 294 -21 q 93 144 136 64 q 50 333 50 224 q 94 521 50 442 q 217 644 138 600 q 401 688 297 688 q 586 644 507 688 q 709 520 665 600 q 753 333 753 440 m 401 525 q 298 475 336 525 q 260 333 260 425 q 297 190 260 240 q 401 140 335 140 q 506 191 469 140 q 543 333 543 242 q 506 474 543 424 q 401 525 468 525 m 556 786 l 200 786 q 187 819 194 799 q 179 861 179 839 q 198 924 179 906 q 247 942 217 942 l 603 942 q 617 908 613 929 q 622 865 622 888 q 604 803 622 821 q 556 786 586 786 z "},"Ő":{"ha":972,"x_min":56,"x_max":917,"o":"m 917 422 q 860 178 917 278 q 706 28 803 79 q 485 -24 608 -24 q 265 28 363 -24 q 111 178 167 79 q 56 422 56 278 q 113 666 56 567 q 267 816 169 765 q 485 867 364 867 q 704 816 607 867 q 859 666 801 765 q 917 422 917 567 m 700 422 q 642 626 700 557 q 485 696 583 696 q 331 626 389 696 q 272 422 272 557 q 331 217 272 286 q 486 147 389 147 q 642 217 583 147 q 700 422 700 286 m 282 1047 l 369 1165 q 460 1140 431 1165 q 490 1079 490 1114 q 477 1033 490 1051 q 436 985 464 1014 l 363 906 q 283 929 310 906 q 256 982 256 953 q 261 1013 256 999 q 282 1047 267 1028 m 567 1047 l 654 1165 q 745 1140 715 1165 q 775 1079 775 1114 q 761 1033 775 1051 q 721 985 747 1014 l 647 906 q 567 929 594 906 q 540 982 540 953 q 546 1013 540 999 q 567 1047 551 1028 z "},"ő":{"ha":803,"x_min":50,"x_max":753,"o":"m 753 333 q 710 145 753 225 q 588 22 667 65 q 401 -21 508 -21 q 215 22 294 -21 q 93 144 136 64 q 50 333 50 224 q 94 521 50 442 q 217 644 138 600 q 401 688 297 688 q 586 644 507 688 q 709 520 665 600 q 753 333 753 440 m 401 525 q 298 475 336 525 q 260 333 260 425 q 297 190 260 240 q 401 140 335 140 q 506 191 469 140 q 543 333 543 242 q 506 474 543 424 q 401 525 468 525 m 186 871 l 301 1022 q 395 996 364 1022 q 426 935 426 969 q 413 889 426 907 q 372 842 399 871 l 269 729 q 189 754 217 729 q 161 810 161 779 q 166 838 161 825 q 186 871 171 851 m 482 871 l 596 1022 q 690 996 658 1022 q 721 935 721 969 q 708 889 721 907 q 667 842 694 871 l 564 729 q 484 754 511 729 q 457 810 457 779 q 462 838 457 825 q 482 871 467 851 z "},"Œ":{"ha":1322,"x_min":56,"x_max":1264,"o":"m 481 -24 q 263 28 358 -24 q 111 178 167 79 q 56 422 56 278 q 112 666 56 567 q 265 816 168 765 q 482 867 361 867 q 634 835 568 867 q 745 746 700 804 q 813 606 790 688 q 836 422 836 524 q 797 190 836 290 q 680 33 758 89 q 481 -24 601 -24 m 483 147 q 647 217 588 147 q 706 422 706 286 q 646 627 706 558 q 482 696 586 696 q 330 626 388 696 q 272 422 272 557 q 330 217 272 286 q 483 147 388 147 m 788 -3 q 706 28 736 -3 q 676 110 676 58 l 665 174 l 665 588 l 871 588 l 871 10 q 837 1 857 6 q 788 -3 817 -3 m 788 -3 l 788 164 l 1242 164 q 1257 130 1250 151 q 1264 82 1264 108 q 1244 18 1264 39 q 1190 -3 1225 -3 l 788 -3 m 665 254 l 665 671 l 676 731 q 706 813 676 782 q 788 843 736 843 q 837 839 817 843 q 871 831 857 835 l 871 254 l 665 254 m 778 347 l 778 513 l 1196 513 q 1211 478 1204 499 q 1218 432 1218 457 q 1199 367 1218 388 q 1146 347 1179 347 l 778 347 m 788 676 l 788 843 l 1236 843 q 1251 808 1244 829 q 1258 763 1258 788 q 1239 697 1258 718 q 1185 676 1219 676 l 788 676 z "},"œ":{"ha":1240,"x_min":50,"x_max":1196,"o":"m 718 333 q 681 151 718 232 q 573 25 644 71 q 394 -21 501 -21 q 210 22 288 -21 q 92 144 133 64 q 50 333 50 224 q 92 521 50 442 q 212 644 135 600 q 394 688 289 688 q 572 640 500 688 q 681 512 643 592 q 718 333 718 432 m 401 525 q 298 475 336 525 q 260 333 260 425 q 297 190 260 240 q 401 140 333 140 q 506 191 469 140 q 543 333 543 242 q 506 474 543 424 q 401 525 468 525 m 664 236 l 657 375 l 1003 429 q 968 502 999 469 q 878 535 938 535 q 772 492 814 535 q 728 371 731 450 l 735 276 q 800 167 747 200 q 926 135 853 135 q 1036 151 985 135 q 1118 186 1088 167 q 1153 151 1139 174 q 1167 104 1167 129 q 1133 35 1167 63 q 1043 -7 1100 7 q 913 -21 986 -21 q 658 71 751 -21 q 564 342 564 163 q 606 538 564 461 q 719 651 647 614 q 876 688 790 688 q 1042 649 971 688 q 1155 546 1114 611 q 1196 394 1196 481 q 1172 330 1196 351 q 1107 301 1149 308 l 664 236 z "},"Ŕ":{"ha":839,"x_min":99,"x_max":796,"o":"m 307 446 l 399 446 q 511 478 468 446 q 554 571 554 510 q 513 663 554 632 q 389 694 472 694 q 346 692 365 694 q 307 688 326 690 l 307 446 m 418 285 l 99 285 l 99 768 q 114 810 99 796 q 156 835 129 825 q 262 857 200 850 q 390 864 324 864 q 672 785 578 864 q 767 572 767 707 q 722 424 767 489 q 598 322 676 358 q 418 285 519 285 m 381 333 l 567 378 q 633 291 599 335 q 699 207 668 247 q 756 133 731 167 q 796 75 781 99 q 751 10 783 33 q 679 -12 719 -12 q 602 10 629 -12 q 550 71 575 33 l 381 333 m 99 363 l 310 363 l 310 1 q 269 -6 296 -1 q 213 -10 242 -10 q 124 13 150 -10 q 99 89 99 35 l 99 363 m 344 1039 l 496 1167 q 576 1140 547 1165 q 604 1079 604 1115 q 592 1035 604 1056 q 547 993 581 1014 l 414 906 q 340 928 365 907 q 315 979 315 950 q 320 1009 315 994 q 344 1039 325 1024 z "},"ŕ":{"ha":561,"x_min":81,"x_max":539,"o":"m 285 488 l 285 314 l 81 314 l 81 513 q 99 578 81 551 q 151 626 118 606 q 262 670 197 654 q 397 686 326 686 q 539 592 539 686 q 533 551 539 569 q 517 518 526 532 q 483 522 503 521 q 440 524 463 524 q 356 515 397 524 q 285 488 315 506 m 81 367 l 285 363 l 285 1 q 247 -6 272 -1 q 193 -10 222 -10 q 108 11 135 -10 q 81 86 81 32 l 81 367 m 240 871 l 379 1022 q 472 995 440 1022 q 504 933 504 968 q 492 886 504 906 q 449 842 479 867 l 318 729 q 239 755 267 729 q 211 810 211 781 q 217 839 211 825 q 240 871 224 853 z "},"Ŗ":{"ha":839,"x_min":99,"x_max":796,"o":"m 307 446 l 399 446 q 511 478 468 446 q 554 571 554 510 q 513 663 554 632 q 389 694 472 694 q 346 692 365 694 q 307 688 326 690 l 307 446 m 418 285 l 99 285 l 99 768 q 114 810 99 796 q 156 835 129 825 q 262 857 200 850 q 390 864 324 864 q 672 785 578 864 q 767 572 767 707 q 722 424 767 489 q 598 322 676 358 q 418 285 519 285 m 381 333 l 567 378 q 633 291 599 335 q 699 207 668 247 q 756 133 731 167 q 796 75 781 99 q 751 10 783 33 q 679 -12 719 -12 q 602 10 629 -12 q 550 71 575 33 l 381 333 m 99 363 l 310 363 l 310 1 q 269 -6 296 -1 q 213 -10 242 -10 q 124 13 150 -10 q 99 89 99 35 l 99 363 m 472 -301 q 428 -333 453 -324 q 376 -343 404 -343 q 299 -314 329 -343 q 341 -204 326 -258 q 363 -100 356 -150 q 408 -83 382 -90 q 460 -75 433 -75 q 523 -90 499 -75 q 547 -140 547 -106 q 535 -194 547 -162 q 506 -254 524 -225 q 472 -301 489 -283 z "},"ŗ":{"ha":561,"x_min":38,"x_max":539,"o":"m 285 488 l 285 314 l 81 314 l 81 513 q 99 578 81 551 q 151 626 118 606 q 262 670 197 654 q 397 686 326 686 q 539 592 539 686 q 533 551 539 569 q 517 518 526 532 q 483 522 503 521 q 440 524 463 524 q 356 515 397 524 q 285 488 315 506 m 81 367 l 285 363 l 285 1 q 247 -6 272 -1 q 193 -10 222 -10 q 108 11 135 -10 q 81 86 81 32 l 81 367 m 210 -301 q 166 -333 190 -324 q 114 -343 142 -343 q 36 -314 67 -343 q 78 -204 64 -258 q 100 -100 93 -150 q 145 -83 119 -90 q 197 -75 171 -75 q 260 -90 236 -75 q 285 -140 285 -106 q 273 -194 285 -162 q 244 -254 261 -225 q 210 -301 226 -283 z "},"Ř":{"ha":839,"x_min":99,"x_max":796,"o":"m 307 446 l 399 446 q 511 478 468 446 q 554 571 554 510 q 513 663 554 632 q 389 694 472 694 q 346 692 365 694 q 307 688 326 690 l 307 446 m 418 285 l 99 285 l 99 768 q 114 810 99 796 q 156 835 129 825 q 262 857 200 850 q 390 864 324 864 q 672 785 578 864 q 767 572 767 707 q 722 424 767 489 q 598 322 676 358 q 418 285 519 285 m 381 333 l 567 378 q 633 291 599 335 q 699 207 668 247 q 756 133 731 167 q 796 75 781 99 q 751 10 783 33 q 679 -12 719 -12 q 602 10 629 -12 q 550 71 575 33 l 381 333 m 99 363 l 310 363 l 310 1 q 269 -6 296 -1 q 213 -10 242 -10 q 124 13 150 -10 q 99 89 99 35 l 99 363 m 425 1044 q 490 1106 457 1075 q 556 1165 524 1138 q 621 1143 594 1165 q 647 1088 647 1121 q 634 1042 647 1061 q 589 997 621 1022 l 539 954 q 480 917 504 928 q 425 907 456 907 q 362 921 389 907 q 311 958 335 935 l 196 1067 q 217 1136 196 1111 q 276 1161 238 1161 q 323 1148 301 1161 q 379 1097 344 1135 l 425 1044 z "},"ř":{"ha":561,"x_min":81,"x_max":547,"o":"m 285 488 l 285 314 l 81 314 l 81 513 q 99 578 81 551 q 151 626 118 606 q 262 670 197 654 q 397 686 326 686 q 539 592 539 686 q 533 551 539 569 q 517 518 526 532 q 483 522 503 521 q 440 524 463 524 q 356 515 397 524 q 285 488 315 506 m 81 367 l 285 363 l 285 1 q 247 -6 272 -1 q 193 -10 222 -10 q 108 11 135 -10 q 81 86 81 32 l 81 367 m 264 947 l 319 886 l 444 1007 q 519 984 492 1007 q 547 926 547 961 q 533 882 547 900 q 489 839 519 864 l 421 778 q 373 748 397 757 q 322 739 349 739 q 283 743 301 739 q 245 761 265 747 q 196 800 225 775 l 89 900 q 91 947 85 922 q 116 988 97 971 q 165 1004 135 1004 q 210 994 190 1004 q 264 947 231 983 z "},"Ś":{"ha":756,"x_min":61,"x_max":708,"o":"m 351 149 q 458 176 425 149 q 490 240 490 203 q 465 297 490 275 q 389 335 439 318 l 315 358 q 183 414 240 383 q 94 492 126 444 q 63 615 63 540 q 150 799 63 731 q 393 867 238 867 q 534 851 472 867 q 631 806 596 836 q 667 733 667 776 q 651 679 667 703 q 615 640 636 656 q 530 678 583 661 q 414 694 476 694 q 313 672 347 694 q 279 615 279 650 q 302 570 279 588 q 369 539 325 553 l 446 514 q 640 411 572 475 q 708 239 708 347 q 618 49 708 122 q 357 -24 528 -24 q 206 -5 272 -24 q 100 48 139 14 q 61 128 61 82 q 82 189 61 164 q 129 228 103 214 q 223 173 167 197 q 351 149 279 149 m 310 1039 l 461 1167 q 541 1140 513 1165 q 569 1079 569 1115 q 558 1035 569 1056 q 513 993 546 1014 l 379 906 q 306 928 331 907 q 281 979 281 950 q 285 1009 281 994 q 310 1039 290 1024 z "},"ś":{"ha":668,"x_min":60,"x_max":621,"o":"m 621 194 q 544 35 621 93 q 322 -22 468 -22 q 135 12 208 -22 q 61 110 61 46 q 74 160 61 139 q 106 194 86 182 q 197 153 144 171 q 315 135 249 135 q 418 193 418 135 q 399 233 418 218 q 340 256 381 247 l 279 269 q 115 341 169 292 q 60 476 60 390 q 138 631 60 574 q 350 688 217 688 q 471 674 417 688 q 557 635 525 661 q 589 568 589 608 q 578 520 589 542 q 550 486 567 499 q 503 506 533 496 q 435 524 472 517 q 367 532 399 532 q 288 518 317 532 q 260 476 260 504 q 276 445 260 458 q 333 422 292 432 l 389 410 q 567 328 513 381 q 621 194 621 276 m 278 871 l 417 1022 q 510 995 478 1022 q 542 933 542 968 q 529 886 542 906 q 486 842 517 867 l 356 729 q 276 755 304 729 q 249 810 249 781 q 255 839 249 825 q 278 871 261 853 z "},"Ŝ":{"ha":756,"x_min":61,"x_max":708,"o":"m 351 149 q 458 176 425 149 q 490 240 490 203 q 465 297 490 275 q 389 335 439 318 l 315 358 q 183 414 240 383 q 94 492 126 444 q 63 615 63 540 q 150 799 63 731 q 393 867 238 867 q 534 851 472 867 q 631 806 596 836 q 667 733 667 776 q 651 679 667 703 q 615 640 636 656 q 530 678 583 661 q 414 694 476 694 q 313 672 347 694 q 279 615 279 650 q 302 570 279 588 q 369 539 325 553 l 446 514 q 640 411 572 475 q 708 239 708 347 q 618 49 708 122 q 357 -24 528 -24 q 206 -5 272 -24 q 100 48 139 14 q 61 128 61 82 q 82 189 61 164 q 129 228 103 214 q 223 173 167 197 q 351 149 279 149 m 383 1025 q 319 965 353 997 q 254 906 286 933 q 190 927 215 906 q 164 982 164 949 q 177 1027 164 1008 q 222 1071 190 1046 l 272 1115 q 386 1165 338 1165 q 444 1153 418 1165 q 499 1113 471 1140 l 611 996 q 588 931 611 953 q 528 908 565 908 q 481 924 503 908 q 431 972 460 940 l 383 1025 z "},"ŝ":{"ha":668,"x_min":60,"x_max":621,"o":"m 621 194 q 544 35 621 93 q 322 -22 468 -22 q 135 12 208 -22 q 61 110 61 46 q 74 160 61 139 q 106 194 86 182 q 197 153 144 171 q 315 135 249 135 q 418 193 418 135 q 399 233 418 218 q 340 256 381 247 l 279 269 q 115 341 169 292 q 60 476 60 390 q 138 631 60 574 q 350 688 217 688 q 471 674 417 688 q 557 635 525 661 q 589 568 589 608 q 578 520 589 542 q 550 486 567 499 q 503 506 533 496 q 435 524 472 517 q 367 532 399 532 q 288 518 317 532 q 260 476 260 504 q 276 445 260 458 q 333 422 292 432 l 389 410 q 567 328 513 381 q 621 194 621 276 m 393 789 l 328 867 q 268 799 293 826 q 214 738 243 772 q 138 760 167 738 q 110 815 110 782 q 124 858 110 840 q 164 903 138 876 l 221 961 q 271 999 244 985 q 332 1013 297 1013 q 391 1000 364 1013 q 451 947 418 988 l 554 821 q 534 764 554 788 q 474 740 514 740 q 431 753 450 740 q 393 789 413 767 z "},"Ş":{"ha":756,"x_min":61,"x_max":708,"o":"m 351 149 q 458 176 425 149 q 490 240 490 203 q 465 297 490 275 q 389 335 439 318 l 315 358 q 183 414 240 383 q 94 492 126 444 q 63 615 63 540 q 150 799 63 731 q 393 867 238 867 q 534 851 472 867 q 631 806 596 836 q 667 733 667 776 q 651 679 667 703 q 615 640 636 656 q 530 678 583 661 q 414 694 476 694 q 313 672 347 694 q 279 615 279 650 q 302 570 279 588 q 369 539 325 553 l 446 514 q 640 411 572 475 q 708 239 708 347 q 618 49 708 122 q 357 -24 528 -24 q 206 -5 272 -24 q 100 48 139 14 q 61 128 61 82 q 82 189 61 164 q 129 228 103 214 q 223 173 167 197 q 351 149 279 149 m 294 6 l 406 46 q 475 -26 456 17 q 494 -117 494 -68 q 451 -231 494 -186 q 332 -276 407 -276 q 248 -251 279 -276 q 217 -181 217 -226 q 222 -142 217 -158 l 239 -142 q 303 -121 283 -142 q 322 -68 322 -100 q 316 -31 322 -51 q 294 6 310 -10 z "},"ş":{"ha":668,"x_min":60,"x_max":621,"o":"m 621 194 q 544 35 621 93 q 322 -22 468 -22 q 135 12 208 -22 q 61 110 61 46 q 74 160 61 139 q 106 194 86 182 q 197 153 144 171 q 315 135 249 135 q 418 193 418 135 q 399 233 418 218 q 340 256 381 247 l 279 269 q 115 341 169 292 q 60 476 60 390 q 138 631 60 574 q 350 688 217 688 q 471 674 417 688 q 557 635 525 661 q 589 568 589 608 q 578 520 589 542 q 550 486 567 499 q 503 506 533 496 q 435 524 472 517 q 367 532 399 532 q 288 518 317 532 q 260 476 260 504 q 276 445 260 458 q 333 422 292 432 l 389 410 q 567 328 513 381 q 621 194 621 276 m 267 6 l 378 46 q 447 -26 428 17 q 467 -117 467 -68 q 423 -231 467 -186 q 304 -276 379 -276 q 220 -251 251 -276 q 189 -181 189 -226 q 194 -142 189 -158 l 211 -142 q 275 -121 256 -142 q 294 -68 294 -100 q 288 -31 294 -51 q 267 6 282 -10 z "},"Š":{"ha":756,"x_min":61,"x_max":708,"o":"m 351 149 q 458 176 425 149 q 490 240 490 203 q 465 297 490 275 q 389 335 439 318 l 315 358 q 183 414 240 383 q 94 492 126 444 q 63 615 63 540 q 150 799 63 731 q 393 867 238 867 q 534 851 472 867 q 631 806 596 836 q 667 733 667 776 q 651 679 667 703 q 615 640 636 656 q 530 678 583 661 q 414 694 476 694 q 313 672 347 694 q 279 615 279 650 q 302 570 279 588 q 369 539 325 553 l 446 514 q 640 411 572 475 q 708 239 708 347 q 618 49 708 122 q 357 -24 528 -24 q 206 -5 272 -24 q 100 48 139 14 q 61 128 61 82 q 82 189 61 164 q 129 228 103 214 q 223 173 167 197 q 351 149 279 149 m 383 1044 q 449 1106 415 1075 q 514 1165 482 1138 q 579 1143 553 1165 q 606 1088 606 1121 q 592 1042 606 1061 q 547 997 579 1022 l 497 954 q 438 917 463 928 q 383 907 414 907 q 320 921 347 907 q 269 958 293 935 l 154 1067 q 175 1136 154 1111 q 235 1161 196 1161 q 281 1148 260 1161 q 338 1097 303 1135 l 383 1044 z "},"š":{"ha":668,"x_min":60,"x_max":621,"o":"m 621 194 q 544 35 621 93 q 322 -22 468 -22 q 135 12 208 -22 q 61 110 61 46 q 74 160 61 139 q 106 194 86 182 q 197 153 144 171 q 315 135 249 135 q 418 193 418 135 q 399 233 418 218 q 340 256 381 247 l 279 269 q 115 341 169 292 q 60 476 60 390 q 138 631 60 574 q 350 688 217 688 q 471 674 417 688 q 557 635 525 661 q 589 568 589 608 q 578 520 589 542 q 550 486 567 499 q 503 506 533 496 q 435 524 472 517 q 367 532 399 532 q 288 518 317 532 q 260 476 260 504 q 276 445 260 458 q 333 422 292 432 l 389 410 q 567 328 513 381 q 621 194 621 276 m 272 947 l 328 886 l 453 1007 q 528 984 500 1007 q 556 926 556 961 q 542 882 556 900 q 497 839 528 864 l 429 778 q 381 748 406 757 q 331 739 357 739 q 292 743 310 739 q 253 761 274 747 q 204 800 233 775 l 97 900 q 99 947 93 922 q 124 988 106 971 q 174 1004 143 1004 q 219 994 199 1004 q 272 947 239 983 z "},"Ț":{"ha":761,"x_min":28,"x_max":732,"o":"m 283 672 l 282 843 l 710 843 q 725 808 718 829 q 732 761 732 786 q 712 694 732 717 q 657 672 692 672 l 283 672 m 476 843 l 478 672 l 50 672 q 35 708 42 686 q 28 756 28 729 q 48 822 28 800 q 101 843 68 843 l 476 843 m 272 710 l 482 710 l 482 1 q 442 -6 469 -1 q 385 -10 414 -10 q 298 13 324 -10 q 272 89 272 35 l 272 710 m 404 -301 q 360 -333 385 -324 q 308 -343 336 -343 q 231 -314 261 -343 q 273 -204 258 -258 q 294 -100 288 -150 q 340 -83 314 -90 q 392 -75 365 -75 q 455 -90 431 -75 q 479 -140 479 -106 q 467 -194 479 -162 q 438 -254 456 -225 q 404 -301 421 -283 z "},"ț":{"ha":543,"x_min":83,"x_max":500,"o":"m 83 367 l 286 367 l 286 218 q 311 160 286 178 q 381 143 336 143 q 426 147 403 143 q 468 158 450 151 q 488 128 479 146 q 496 88 496 111 q 458 10 496 40 q 328 -19 419 -19 q 148 33 213 -19 q 83 204 83 85 l 83 367 m 211 493 l 211 651 l 479 651 q 493 619 486 640 q 500 574 500 599 q 481 513 500 532 q 431 493 463 493 l 211 493 m 286 332 l 83 332 l 83 831 q 121 840 96 835 q 174 844 146 844 q 259 824 232 844 q 286 749 286 803 l 286 332 m 319 -301 q 276 -333 300 -324 q 224 -343 251 -343 q 146 -314 176 -343 q 188 -204 174 -258 q 210 -100 203 -150 q 255 -83 229 -90 q 307 -75 281 -75 q 370 -90 346 -75 q 394 -140 394 -106 q 383 -194 394 -162 q 353 -254 371 -225 q 319 -301 336 -283 z "},"Ť":{"ha":761,"x_min":28,"x_max":732,"o":"m 283 672 l 282 843 l 710 843 q 725 808 718 829 q 732 761 732 786 q 712 694 732 717 q 657 672 692 672 l 283 672 m 476 843 l 478 672 l 50 672 q 35 708 42 686 q 28 756 28 729 q 48 822 28 800 q 101 843 68 843 l 476 843 m 272 710 l 482 710 l 482 1 q 442 -6 469 -1 q 385 -10 414 -10 q 298 13 324 -10 q 272 89 272 35 l 272 710 m 385 1044 q 450 1106 417 1075 q 515 1165 483 1138 q 581 1143 554 1165 q 607 1088 607 1121 q 594 1042 607 1061 q 549 997 581 1022 l 499 954 q 440 917 464 928 q 385 907 415 907 q 322 921 349 907 q 271 958 294 935 l 156 1067 q 176 1136 156 1111 q 236 1161 197 1161 q 283 1148 261 1161 q 339 1097 304 1135 l 385 1044 z "},"ť":{"ha":768,"x_min":83,"x_max":785,"o":"m 83 367 l 286 367 l 286 218 q 311 160 286 178 q 381 143 336 143 q 426 147 403 143 q 468 158 450 151 q 488 128 479 146 q 496 88 496 111 q 458 10 496 40 q 328 -19 419 -19 q 148 33 213 -19 q 83 204 83 85 l 83 367 m 211 493 l 211 651 l 479 651 q 493 619 486 640 q 500 574 500 599 q 481 513 500 532 q 431 493 463 493 l 211 493 m 286 332 l 83 332 l 83 831 q 121 840 96 835 q 174 844 146 844 q 259 824 232 844 q 286 749 286 803 l 286 332 m 710 693 q 666 662 690 671 q 614 653 642 653 q 538 681 568 653 q 579 790 564 736 q 600 894 594 844 q 645 912 619 904 q 697 919 671 919 q 760 904 736 919 q 785 854 785 889 q 773 801 785 832 q 744 740 761 769 q 710 693 726 711 z "},"Ũ":{"ha":917,"x_min":96,"x_max":822,"o":"m 458 -24 q 263 17 344 -24 q 139 132 182 58 q 96 304 96 206 l 96 396 l 306 396 l 306 310 q 349 190 306 233 q 458 147 392 147 q 568 190 525 147 q 611 310 611 233 l 611 396 l 822 396 l 822 304 q 778 132 822 206 q 653 17 735 58 q 458 -24 572 -24 m 306 354 l 96 354 l 96 844 q 138 851 110 847 q 193 856 165 856 q 279 835 253 856 q 306 757 306 814 l 306 354 m 822 351 l 611 351 l 611 844 q 653 851 625 847 q 708 856 682 856 q 795 835 768 856 q 822 757 822 814 l 822 351 m 340 1151 q 415 1141 379 1151 q 481 1120 450 1131 q 532 1110 511 1110 q 576 1127 561 1110 q 599 1160 592 1144 l 606 1160 q 674 1133 644 1160 q 703 1063 703 1107 q 667 978 703 1007 q 575 950 631 950 q 497 961 532 950 q 434 983 463 972 q 382 993 406 993 q 338 976 353 993 q 315 943 324 960 l 311 943 q 242 969 271 943 q 213 1039 213 994 q 231 1103 213 1078 q 280 1140 250 1128 q 340 1151 310 1151 z "},"ũ":{"ha":797,"x_min":81,"x_max":717,"o":"m 81 260 l 81 360 l 285 360 l 285 261 q 318 169 285 197 q 411 140 351 140 q 474 147 449 140 q 513 163 500 154 l 513 360 l 717 360 l 717 138 q 704 81 717 104 q 663 39 692 57 q 553 -5 618 11 q 410 -21 489 -21 q 237 8 311 -21 q 122 99 163 38 q 81 260 81 161 m 717 297 l 513 297 l 513 664 q 550 672 525 668 q 604 676 575 676 q 690 656 664 676 q 717 579 717 636 l 717 297 m 285 297 l 81 297 l 81 664 q 118 672 93 668 q 172 676 143 676 q 258 656 232 676 q 285 579 285 636 l 285 297 m 278 971 q 352 960 317 971 q 418 940 388 950 q 469 929 449 929 q 514 947 499 929 q 536 979 529 964 l 543 979 q 611 953 582 979 q 640 882 640 926 q 604 798 640 826 q 513 769 568 769 q 435 781 469 769 q 372 802 400 792 q 319 813 343 813 q 276 796 290 813 q 253 763 261 779 l 249 763 q 179 788 208 763 q 150 858 150 814 q 169 922 150 897 q 217 959 188 947 q 278 971 247 971 z "},"Ū":{"ha":917,"x_min":96,"x_max":822,"o":"m 458 -24 q 263 17 344 -24 q 139 132 182 58 q 96 304 96 206 l 96 396 l 306 396 l 306 310 q 349 190 306 233 q 458 147 392 147 q 568 190 525 147 q 611 310 611 233 l 611 396 l 822 396 l 822 304 q 778 132 822 206 q 653 17 735 58 q 458 -24 572 -24 m 306 354 l 96 354 l 96 844 q 138 851 110 847 q 193 856 165 856 q 279 835 253 856 q 306 757 306 814 l 306 354 m 822 351 l 611 351 l 611 844 q 653 851 625 847 q 708 856 682 856 q 795 835 768 856 q 822 757 822 814 l 822 351 m 606 963 l 250 963 q 237 995 244 975 q 229 1038 229 1015 q 248 1100 229 1082 q 297 1118 267 1118 l 653 1118 q 667 1085 663 1106 q 672 1042 672 1064 q 654 980 672 997 q 606 963 636 963 z "},"ū":{"ha":797,"x_min":81,"x_max":717,"o":"m 81 260 l 81 360 l 285 360 l 285 261 q 318 169 285 197 q 411 140 351 140 q 474 147 449 140 q 513 163 500 154 l 513 360 l 717 360 l 717 138 q 704 81 717 104 q 663 39 692 57 q 553 -5 618 11 q 410 -21 489 -21 q 237 8 311 -21 q 122 99 163 38 q 81 260 81 161 m 717 297 l 513 297 l 513 664 q 550 672 525 668 q 604 676 575 676 q 690 656 664 676 q 717 579 717 636 l 717 297 m 285 297 l 81 297 l 81 664 q 118 672 93 668 q 172 676 143 676 q 258 656 232 676 q 285 579 285 636 l 285 297 m 558 786 l 203 786 q 190 819 197 799 q 182 861 182 839 q 201 924 182 906 q 250 942 219 942 l 606 942 q 620 908 615 929 q 625 865 625 888 q 607 803 625 821 q 558 786 589 786 z "},"Ŭ":{"ha":917,"x_min":96,"x_max":822,"o":"m 458 -24 q 263 17 344 -24 q 139 132 182 58 q 96 304 96 206 l 96 396 l 306 396 l 306 310 q 349 190 306 233 q 458 147 392 147 q 568 190 525 147 q 611 310 611 233 l 611 396 l 822 396 l 822 304 q 778 132 822 206 q 653 17 735 58 q 458 -24 572 -24 m 306 354 l 96 354 l 96 844 q 138 851 110 847 q 193 856 165 856 q 279 835 253 856 q 306 757 306 814 l 306 354 m 822 351 l 611 351 l 611 844 q 653 851 625 847 q 708 856 682 856 q 795 835 768 856 q 822 757 822 814 l 822 351 m 453 1067 q 523 1088 496 1067 q 558 1144 550 1110 q 571 1146 565 1146 q 583 1146 576 1146 q 654 1119 631 1146 q 678 1058 678 1092 q 619 958 678 1000 q 453 917 561 917 q 285 958 343 917 q 226 1058 226 1000 q 251 1119 226 1092 q 322 1146 275 1146 q 335 1146 329 1146 q 347 1144 340 1146 q 382 1088 354 1110 q 453 1067 410 1067 z "},"ŭ":{"ha":797,"x_min":81,"x_max":717,"o":"m 81 260 l 81 360 l 285 360 l 285 261 q 318 169 285 197 q 411 140 351 140 q 474 147 449 140 q 513 163 500 154 l 513 360 l 717 360 l 717 138 q 704 81 717 104 q 663 39 692 57 q 553 -5 618 11 q 410 -21 489 -21 q 237 8 311 -21 q 122 99 163 38 q 81 260 81 161 m 717 297 l 513 297 l 513 664 q 550 672 525 668 q 604 676 575 676 q 690 656 664 676 q 717 579 717 636 l 717 297 m 285 297 l 81 297 l 81 664 q 118 672 93 668 q 172 676 143 676 q 258 656 232 676 q 285 579 285 636 l 285 297 m 400 914 q 470 935 443 914 q 506 992 497 957 q 518 993 513 993 q 531 993 524 993 q 601 966 578 993 q 625 906 625 939 q 567 806 625 847 q 400 764 508 764 q 232 806 290 764 q 174 906 174 847 q 198 966 174 939 q 269 993 222 993 q 282 993 276 993 q 294 992 288 993 q 329 935 301 957 q 400 914 357 914 z "},"Ů":{"ha":917,"x_min":96,"x_max":822,"o":"m 458 -24 q 263 17 344 -24 q 139 132 182 58 q 96 304 96 206 l 96 396 l 306 396 l 306 310 q 349 190 306 233 q 458 147 392 147 q 568 190 525 147 q 611 310 611 233 l 611 396 l 822 396 l 822 304 q 778 132 822 206 q 653 17 735 58 q 458 -24 572 -24 m 306 354 l 96 354 l 96 844 q 138 851 110 847 q 193 856 165 856 q 279 835 253 856 q 306 757 306 814 l 306 354 m 822 351 l 611 351 l 611 844 q 653 851 625 847 q 708 856 682 856 q 795 835 768 856 q 822 757 822 814 l 822 351 m 289 1044 q 335 1147 289 1106 q 463 1189 382 1189 q 595 1147 547 1189 q 643 1044 643 1106 q 595 942 643 983 q 463 900 547 900 q 335 942 382 900 q 289 1044 289 983 m 415 1043 q 429 1010 415 1022 q 464 997 443 997 q 501 1010 486 997 q 515 1044 515 1022 q 501 1078 515 1065 q 464 1090 486 1090 q 429 1078 443 1090 q 415 1043 415 1065 z "},"ů":{"ha":797,"x_min":81,"x_max":717,"o":"m 81 260 l 81 360 l 285 360 l 285 261 q 318 169 285 197 q 411 140 351 140 q 474 147 449 140 q 513 163 500 154 l 513 360 l 717 360 l 717 138 q 704 81 717 104 q 663 39 692 57 q 553 -5 618 11 q 410 -21 489 -21 q 237 8 311 -21 q 122 99 163 38 q 81 260 81 161 m 717 297 l 513 297 l 513 664 q 550 672 525 668 q 604 676 575 676 q 690 656 664 676 q 717 579 717 636 l 717 297 m 285 297 l 81 297 l 81 664 q 118 672 93 668 q 172 676 143 676 q 258 656 232 676 q 285 579 285 636 l 285 297 m 217 881 q 263 986 217 943 q 390 1029 310 1029 q 522 986 475 1029 q 569 881 569 943 q 522 775 569 818 q 390 732 475 732 q 263 775 310 732 q 217 881 217 818 m 342 881 q 356 842 342 856 q 392 829 371 829 q 428 842 414 829 q 443 881 443 856 q 428 918 443 904 q 392 932 414 932 q 356 919 371 932 q 342 881 342 906 z "},"Ű":{"ha":917,"x_min":96,"x_max":822,"o":"m 458 -24 q 263 17 344 -24 q 139 132 182 58 q 96 304 96 206 l 96 396 l 306 396 l 306 310 q 349 190 306 233 q 458 147 392 147 q 568 190 525 147 q 611 310 611 233 l 611 396 l 822 396 l 822 304 q 778 132 822 206 q 653 17 735 58 q 458 -24 572 -24 m 306 354 l 96 354 l 96 844 q 138 851 110 847 q 193 856 165 856 q 279 835 253 856 q 306 757 306 814 l 306 354 m 822 351 l 611 351 l 611 844 q 653 851 625 847 q 708 856 682 856 q 795 835 768 856 q 822 757 822 814 l 822 351 m 242 1047 l 329 1165 q 420 1140 390 1165 q 450 1079 450 1114 q 437 1033 450 1051 q 396 985 424 1014 l 322 906 q 242 929 269 906 q 215 982 215 953 q 221 1013 215 999 q 242 1047 226 1028 m 526 1047 l 614 1165 q 705 1140 675 1165 q 735 1079 735 1114 q 721 1033 735 1051 q 681 985 707 1014 l 607 906 q 527 929 554 906 q 500 982 500 953 q 506 1013 500 999 q 526 1047 511 1028 z "},"ű":{"ha":797,"x_min":81,"x_max":717,"o":"m 81 260 l 81 360 l 285 360 l 285 261 q 318 169 285 197 q 411 140 351 140 q 474 147 449 140 q 513 163 500 154 l 513 360 l 717 360 l 717 138 q 704 81 717 104 q 663 39 692 57 q 553 -5 618 11 q 410 -21 489 -21 q 237 8 311 -21 q 122 99 163 38 q 81 260 81 161 m 717 297 l 513 297 l 513 664 q 550 672 525 668 q 604 676 575 676 q 690 656 664 676 q 717 579 717 636 l 717 297 m 285 297 l 81 297 l 81 664 q 118 672 93 668 q 172 676 143 676 q 258 656 232 676 q 285 579 285 636 l 285 297 m 175 871 l 290 1022 q 384 996 353 1022 q 415 935 415 969 q 401 889 415 907 q 361 842 388 871 l 258 729 q 178 754 206 729 q 150 810 150 779 q 155 838 150 825 q 175 871 160 851 m 471 871 l 585 1022 q 678 996 647 1022 q 710 935 710 969 q 697 889 710 907 q 656 842 683 871 l 553 729 q 473 754 500 729 q 446 810 446 779 q 451 838 446 825 q 471 871 456 851 z "},"Ų":{"ha":917,"x_min":96,"x_max":822,"o":"m 458 -24 q 263 17 344 -24 q 139 132 182 58 q 96 304 96 206 l 96 396 l 306 396 l 306 310 q 349 190 306 233 q 458 147 392 147 q 568 190 525 147 q 611 310 611 233 l 611 396 l 822 396 l 822 304 q 778 132 822 206 q 653 17 735 58 q 458 -24 572 -24 m 306 354 l 96 354 l 96 844 q 138 851 110 847 q 193 856 165 856 q 279 835 253 856 q 306 757 306 814 l 306 354 m 822 351 l 611 351 l 611 844 q 653 851 625 847 q 708 856 682 856 q 795 835 768 856 q 822 757 822 814 l 822 351 m 422 13 l 579 14 q 540 -19 556 0 q 524 -69 524 -39 q 544 -116 524 -99 q 601 -133 564 -133 l 613 -133 q 619 -157 617 -144 q 621 -185 621 -169 q 596 -247 621 -219 q 506 -275 571 -275 q 385 -237 433 -275 q 338 -131 338 -199 q 351 -64 338 -93 q 385 -15 365 -35 q 422 13 406 4 z "},"ų":{"ha":797,"x_min":81,"x_max":717,"o":"m 501 8 l 674 47 q 620 -3 642 22 q 599 -69 599 -29 q 619 -116 599 -99 q 678 -133 640 -133 l 688 -133 q 694 -157 692 -144 q 697 -185 697 -169 q 672 -247 697 -219 q 582 -275 647 -275 q 460 -237 508 -275 q 413 -131 413 -199 q 443 -40 413 -75 q 501 8 474 -6 m 81 260 l 81 360 l 285 360 l 285 261 q 318 169 285 197 q 411 140 351 140 q 474 147 449 140 q 513 163 500 154 l 513 360 l 717 360 l 717 138 q 704 81 717 104 q 663 39 692 57 q 617 17 642 26 q 565 0 593 8 q 494 -15 533 -8 q 410 -21 454 -21 q 237 8 311 -21 q 122 99 163 38 q 81 260 81 161 m 717 297 l 513 297 l 513 664 q 550 672 525 668 q 604 676 575 676 q 690 656 664 676 q 717 579 717 636 l 717 297 m 285 297 l 81 297 l 81 664 q 118 672 93 668 q 172 676 143 676 q 258 656 232 676 q 285 579 285 636 l 285 297 z "},"Ŵ":{"ha":1176,"x_min":38,"x_max":1129,"o":"m 483 636 q 526 651 497 643 q 583 658 554 658 q 669 643 635 658 q 710 599 703 628 q 754 447 735 515 q 792 315 774 379 q 828 182 810 251 l 835 182 q 869 403 854 299 q 899 612 885 508 q 926 825 913 715 q 1019 849 971 849 q 1097 829 1065 849 q 1129 764 1129 810 q 1122 680 1129 735 q 1104 553 1115 625 q 1078 406 1093 482 q 1048 257 1064 331 q 1015 124 1032 183 q 983 29 997 65 q 924 2 964 14 q 840 -10 883 -10 q 745 6 785 -10 q 696 50 706 22 q 666 144 683 90 q 630 264 649 199 q 593 397 611 329 q 558 261 576 331 q 524 132 540 192 q 493 29 507 72 q 439 2 475 14 q 358 -10 403 -10 q 262 7 306 -10 q 204 50 218 24 q 172 147 190 82 q 134 295 154 211 q 95 471 114 379 q 61 649 76 563 q 39 806 46 736 q 85 835 56 822 q 151 849 115 849 q 226 828 197 849 q 263 761 254 808 q 299 542 285 633 q 324 385 314 450 q 343 271 335 319 q 361 182 351 222 l 368 182 q 394 289 382 239 q 421 389 407 339 q 450 499 435 439 q 483 636 465 558 m 654 946 l 589 1024 q 529 956 554 983 q 475 894 504 929 q 399 917 428 894 q 371 972 371 939 q 385 1015 371 997 q 425 1060 399 1033 l 482 1118 q 532 1156 506 1142 q 593 1169 558 1169 q 652 1157 625 1169 q 713 1104 679 1144 l 815 978 q 795 921 815 944 q 735 897 775 897 q 692 910 711 897 q 654 946 674 924 z "},"ŵ":{"ha":1071,"x_min":35,"x_max":1033,"o":"m 542 404 q 503 260 525 335 q 460 122 481 186 q 428 19 440 58 q 383 -3 411 6 q 314 -12 354 -12 q 230 1 267 -12 q 181 42 193 15 q 152 121 168 69 q 119 238 136 172 q 87 376 103 304 q 58 516 71 449 q 35 638 44 583 q 80 667 51 654 q 143 681 108 681 q 213 660 186 681 q 246 593 239 640 q 271 429 260 500 q 291 308 282 358 q 306 226 300 258 q 317 178 313 194 l 322 178 q 347 275 329 208 q 388 427 364 342 q 435 600 413 513 q 483 621 458 614 q 542 628 508 628 q 615 614 585 628 q 653 572 644 600 q 700 408 678 488 q 739 268 722 329 q 761 176 756 207 l 768 176 q 808 410 788 288 q 844 656 829 533 q 938 681 886 681 q 1007 662 979 681 q 1035 599 1035 643 q 1027 535 1035 579 q 1007 435 1019 492 q 979 317 994 379 q 948 196 964 254 q 918 92 932 138 q 893 19 904 46 q 843 -3 878 6 q 769 -12 808 -12 q 649 38 667 -12 q 616 135 636 75 q 576 265 596 194 q 542 404 557 336 m 604 789 l 539 867 q 479 799 504 826 q 425 738 454 772 q 349 760 378 738 q 321 815 321 782 q 335 858 321 840 q 375 903 349 876 l 432 961 q 482 999 456 985 q 543 1013 508 1013 q 602 1000 575 1013 q 663 947 629 988 l 765 821 q 745 764 765 788 q 685 740 725 740 q 642 753 661 740 q 604 789 624 767 z "},"Ŷ":{"ha":789,"x_min":13,"x_max":767,"o":"m 501 272 l 314 272 q 235 392 278 325 q 150 529 192 458 q 72 667 108 600 q 13 786 36 733 q 55 828 28 810 q 122 847 82 847 q 199 827 169 847 q 256 754 228 807 q 275 718 260 747 q 310 651 290 689 q 349 575 329 614 q 384 508 369 536 q 403 474 399 481 l 410 474 q 467 592 442 538 q 517 703 493 646 q 571 825 542 760 q 617 842 592 836 q 667 847 643 847 q 738 825 710 847 q 767 758 767 803 q 754 710 767 743 q 712 622 742 678 q 631 480 682 565 q 501 272 579 394 m 304 347 l 510 347 l 510 1 q 470 -6 497 -1 q 415 -10 443 -10 q 328 12 353 -10 q 304 88 304 33 l 304 347 m 403 1025 q 339 965 372 997 q 274 906 306 933 q 209 927 235 906 q 183 982 183 949 q 197 1027 183 1008 q 242 1071 210 1046 l 292 1115 q 406 1165 357 1165 q 464 1153 438 1165 q 518 1113 490 1140 l 631 996 q 608 931 631 953 q 547 908 585 908 q 501 924 522 908 q 450 972 479 940 l 403 1025 z "},"ŷ":{"ha":744,"x_min":32,"x_max":707,"o":"m 192 165 q 144 276 171 211 q 90 431 118 342 q 32 636 63 519 q 77 667 49 654 q 139 681 106 681 q 210 663 182 681 q 251 594 238 644 q 315 393 282 493 q 381 190 347 293 l 386 190 q 434 332 410 253 q 480 496 458 411 q 515 658 501 581 q 557 674 535 668 q 603 681 579 681 q 676 662 646 681 q 707 599 707 643 q 696 503 707 560 q 665 380 685 446 q 619 245 644 314 q 564 113 593 176 q 506 -3 535 49 q 367 -198 431 -133 q 243 -262 304 -262 q 160 -233 193 -262 q 122 -156 128 -203 q 183 -97 151 -129 q 245 -27 215 -64 q 297 46 275 10 q 248 76 274 53 q 192 165 222 100 m 444 789 l 379 867 q 319 799 344 826 q 265 738 294 772 q 190 760 218 738 q 161 815 161 782 q 175 858 161 840 q 215 903 189 876 l 272 961 q 322 999 296 985 q 383 1013 349 1013 q 442 1000 415 1013 q 503 947 469 988 l 606 821 q 585 764 606 788 q 525 740 565 740 q 483 753 501 740 q 444 789 464 767 z "},"Ÿ":{"ha":789,"x_min":13,"x_max":767,"o":"m 501 272 l 314 272 q 235 392 278 325 q 150 529 192 458 q 72 667 108 600 q 13 786 36 733 q 55 828 28 810 q 122 847 82 847 q 199 827 169 847 q 256 754 228 807 q 275 718 260 747 q 310 651 290 689 q 349 575 329 614 q 384 508 369 536 q 403 474 399 481 l 410 474 q 467 592 442 538 q 517 703 493 646 q 571 825 542 760 q 617 842 592 836 q 667 847 643 847 q 738 825 710 847 q 767 758 767 803 q 754 710 767 743 q 712 622 742 678 q 631 480 682 565 q 501 272 579 394 m 304 347 l 510 347 l 510 1 q 470 -6 497 -1 q 415 -10 443 -10 q 328 12 353 -10 q 304 88 304 33 l 304 347 m 363 1032 q 333 960 363 989 q 256 931 304 931 q 182 960 211 931 q 153 1032 153 989 q 182 1105 153 1075 q 256 1135 211 1135 q 333 1105 304 1135 q 363 1032 363 1075 m 646 1032 q 617 960 646 989 q 540 931 589 931 q 466 960 496 931 q 436 1032 436 989 q 466 1105 436 1075 q 540 1135 496 1135 q 617 1105 589 1135 q 646 1032 646 1075 z "},"Ź":{"ha":776,"x_min":53,"x_max":729,"o":"m 106 231 l 604 846 l 667 846 q 719 732 719 803 q 706 672 719 701 q 669 615 692 643 l 175 0 l 100 0 q 66 45 79 17 q 53 110 53 74 q 68 172 53 142 q 106 231 83 203 m 128 0 l 225 174 l 706 174 q 722 137 714 158 q 729 89 729 115 q 709 22 729 43 q 654 0 689 0 l 128 0 m 626 846 l 550 672 l 88 672 q 72 708 79 688 q 65 756 65 729 q 85 824 65 801 q 142 846 106 846 l 626 846 m 351 1039 l 503 1167 q 583 1140 554 1165 q 611 1079 611 1115 q 599 1035 611 1056 q 554 993 588 1014 l 421 906 q 347 928 372 907 q 322 979 322 950 q 327 1009 322 994 q 351 1039 332 1024 z "},"ź":{"ha":664,"x_min":51,"x_max":624,"o":"m 174 0 l 93 0 q 63 40 74 17 q 51 92 51 63 q 63 140 51 117 q 92 186 75 164 l 494 665 l 567 665 q 597 626 586 649 q 608 574 608 603 q 597 526 608 550 q 568 481 586 501 l 174 0 m 525 665 l 525 507 l 78 507 q 64 541 71 519 q 57 586 57 563 q 76 647 57 628 q 128 665 96 665 l 525 665 m 150 0 l 150 160 l 603 160 q 617 126 610 147 q 624 81 624 106 q 605 19 624 39 q 554 0 586 0 l 150 0 m 292 871 l 431 1022 q 524 995 492 1022 q 556 933 556 968 q 543 886 556 906 q 500 842 531 867 l 369 729 q 290 755 318 729 q 263 810 263 781 q 269 839 263 825 q 292 871 275 853 z "},"Ż":{"ha":776,"x_min":53,"x_max":729,"o":"m 106 231 l 604 846 l 667 846 q 719 732 719 803 q 706 672 719 701 q 669 615 692 643 l 175 0 l 100 0 q 66 45 79 17 q 53 110 53 74 q 68 172 53 142 q 106 231 83 203 m 128 0 l 225 174 l 706 174 q 722 137 714 158 q 729 89 729 115 q 709 22 729 43 q 654 0 689 0 l 128 0 m 626 846 l 550 672 l 88 672 q 72 708 79 688 q 65 756 65 729 q 85 824 65 801 q 142 846 106 846 l 626 846 m 507 1046 q 476 969 507 1000 q 396 938 446 938 q 315 969 346 938 q 285 1046 285 1000 q 315 1123 285 1092 q 394 1154 346 1154 q 476 1123 446 1154 q 507 1046 507 1092 z "},"ż":{"ha":664,"x_min":51,"x_max":624,"o":"m 174 0 l 93 0 q 63 40 74 17 q 51 92 51 63 q 63 140 51 117 q 92 186 75 164 l 494 665 l 567 665 q 597 626 586 649 q 608 574 608 603 q 597 526 608 550 q 568 481 586 501 l 174 0 m 525 665 l 525 507 l 78 507 q 64 541 71 519 q 57 586 57 563 q 76 647 57 628 q 128 665 96 665 l 525 665 m 150 0 l 150 160 l 603 160 q 617 126 610 147 q 624 81 624 106 q 605 19 624 39 q 554 0 586 0 l 150 0 m 449 869 q 418 792 449 824 q 338 761 388 761 q 257 792 288 761 q 226 869 226 824 q 257 947 226 915 q 336 978 288 978 q 418 947 388 978 q 449 869 449 915 z "},"Ž":{"ha":776,"x_min":53,"x_max":729,"o":"m 106 231 l 604 846 l 667 846 q 719 732 719 803 q 706 672 719 701 q 669 615 692 643 l 175 0 l 100 0 q 66 45 79 17 q 53 110 53 74 q 68 172 53 142 q 106 231 83 203 m 128 0 l 225 174 l 706 174 q 722 137 714 158 q 729 89 729 115 q 709 22 729 43 q 654 0 689 0 l 128 0 m 626 846 l 550 672 l 88 672 q 72 708 79 688 q 65 756 65 729 q 85 824 65 801 q 142 846 106 846 l 626 846 m 407 1044 q 472 1106 439 1075 q 538 1165 506 1138 q 603 1143 576 1165 q 629 1088 629 1121 q 616 1042 629 1061 q 571 997 603 1022 l 521 954 q 462 917 486 928 q 407 907 438 907 q 344 921 371 907 q 293 958 317 935 l 178 1067 q 199 1136 178 1111 q 258 1161 219 1161 q 305 1148 283 1161 q 361 1097 326 1135 l 407 1044 z "},"ž":{"ha":664,"x_min":51,"x_max":624,"o":"m 174 0 l 93 0 q 63 40 74 17 q 51 92 51 63 q 63 140 51 117 q 92 186 75 164 l 494 665 l 567 665 q 597 626 586 649 q 608 574 608 603 q 597 526 608 550 q 568 481 586 501 l 174 0 m 525 665 l 525 507 l 78 507 q 64 541 71 519 q 57 586 57 563 q 76 647 57 628 q 128 665 96 665 l 525 665 m 150 0 l 150 160 l 603 160 q 617 126 610 147 q 624 81 624 106 q 605 19 624 39 q 554 0 586 0 l 150 0 m 279 947 l 335 886 l 460 1007 q 535 984 507 1007 q 563 926 563 961 q 549 882 563 900 q 504 839 535 864 l 436 778 q 388 748 413 757 q 338 739 364 739 q 299 743 317 739 q 260 761 281 747 q 211 800 240 775 l 104 900 q 106 947 100 922 q 131 988 113 971 q 181 1004 150 1004 q 226 994 206 1004 q 279 947 246 983 z "}}}
